<?xml version="1.0" encoding="utf-8"?>
<!-- Generator: Adobe Illustrator 20.1.0, SVG Export Plug-In . SVG Version: 6.00 Build 0)  -->
<svg version="1.1" id="Capa_1" xmlns="http://www.w3.org/2000/svg" xmlns:xlink="http://www.w3.org/1999/xlink" x="0px" y="0px"
	 viewBox="0 0 40 40" style="enable-background:new 0 0 40 40;" xml:space="preserve">
<style type="text/css">
	.st0{fill:#FFFFFF;}
</style>
<g>
	<path id="email_1_4_" class="st0" d="M10.1,13.2v13.6h19.7V13.2H10.1z M28.3,25.3H11.7v-8.7L20,23l8.3-6.4V25.3z M28.3,14.7
		L28.3,14.7L20,21.1l-8.3-6.4h0v0L28.3,14.7L28.3,14.7z"/>
	<g>
		<path class="st0" d="M20,39.5C9.3,39.5,0.5,30.7,0.5,20S9.3,0.5,20,0.5S39.5,9.3,39.5,20S30.7,39.5,20,39.5z M20,2.3
			C10.3,2.3,2.3,10.3,2.3,20S10.3,37.7,20,37.7S37.7,29.7,37.7,20S29.7,2.3,20,2.3z"/>
	</g>
</g>
</svg>
