<?xml version="1.0" encoding="utf-8"?>
<!-- Generator: Adobe Illustrator 17.0.0, SVG Export Plug-In . SVG Version: 6.00 Build 0)  -->
<!DOCTYPE svg PUBLIC "-//W3C//DTD SVG 1.1//EN" "http://www.w3.org/Graphics/SVG/1.1/DTD/svg11.dtd">
<svg version="1.1" id="Capa_1" xmlns="http://www.w3.org/2000/svg" xmlns:xlink="http://www.w3.org/1999/xlink" x="0px" y="0px"
	 width="100px" height="100px" viewBox="0 0 100 100" enable-background="new 0 0 100 100" xml:space="preserve">
<g>
	<g enable-background="new    ">
		<path fill="#FFFFFF" d="M11.896,75.098c0.014,0.572,0.028,1.187,0.028,1.843c0,1.438-0.153,2.024-0.656,2.569
			c-0.572,0.601-1.34,0.768-3.532,0.768c-1.382,0-1.955-0.069-2.499-0.293c-1.215-0.517-1.675-1.479-1.675-3.561
			c0-2.289,0.056-3.058,0.265-3.699c0.265-0.866,0.907-1.452,1.843-1.718c0.461-0.126,1.131-0.182,2.43-0.182
			c1.661,0,2.206,0.084,2.834,0.447c0.656,0.377,0.921,1.075,0.963,2.471H9.718c-0.083-0.963-0.321-1.116-1.829-1.116
			c-1.215,0-1.689,0.153-1.927,0.642c-0.167,0.335-0.209,0.769-0.209,2.137c0,1.508,0.042,2.107,0.195,2.443
			c0.195,0.46,0.698,0.628,1.829,0.628c1.662,0,2.01-0.266,2.01-1.55c0-0.028-0.014-0.168-0.028-0.308H7.736v-1.521H11.896z"/>
		<path fill="#FFFFFF" d="M18.975,78.071v0.182c0,0.503-0.125,0.964-0.349,1.271c-0.391,0.53-1.103,0.754-2.471,0.754
			c-1.438,0-2.178-0.182-2.667-0.642c-0.489-0.461-0.656-1.201-0.656-2.778c0-1.425,0.167-2.108,0.628-2.569
			c0.489-0.475,1.215-0.67,2.471-0.67c2.374,0,3.043,0.67,3.043,3.085v0.572h-4.286c-0.014,0.112-0.014,0.224-0.014,0.266
			c0,1.117,0.279,1.41,1.298,1.41c0.949,0,1.159-0.168,1.173-0.88H18.975z M17.174,76.201c-0.014-0.099-0.014-0.196-0.014-0.224
			c-0.014-0.852-0.209-1.006-1.243-1.006c-0.726,0-0.977,0.099-1.117,0.434c-0.07,0.167-0.084,0.279-0.098,0.796H17.174z"/>
		<path fill="#FFFFFF" d="M25.635,74.204c0.461,0.461,0.643,1.131,0.643,2.499c0,2.988-0.531,3.574-3.197,3.574
			c-1.55,0-2.346-0.279-2.75-0.936c-0.321-0.544-0.391-1.033-0.391-2.681c0-1.368,0.182-2.024,0.698-2.484
			c0.475-0.434,1.075-0.559,2.555-0.559C24.574,73.618,25.174,73.758,25.635,74.204z M21.823,76.871
			c0,1.717,0.167,1.996,1.271,1.996c1.131,0,1.299-0.279,1.299-2.094c0-1.466-0.196-1.745-1.271-1.745
			C22.019,75.028,21.823,75.293,21.823,76.871z"/>
		<path fill="#FFFFFF" d="M29.363,80.208h-1.857v-9.312h1.857V80.208z"/>
		<path fill="#FFFFFF" d="M36.274,74.204c0.461,0.461,0.643,1.131,0.643,2.499c0,2.988-0.531,3.574-3.197,3.574
			c-1.55,0-2.346-0.279-2.75-0.936c-0.321-0.544-0.391-1.033-0.391-2.681c0-1.368,0.182-2.024,0.698-2.484
			c0.475-0.434,1.075-0.559,2.555-0.559C35.213,73.618,35.814,73.758,36.274,74.204z M32.463,76.871
			c0,1.717,0.167,1.996,1.271,1.996c1.131,0,1.299-0.279,1.299-2.094c0-1.466-0.196-1.745-1.271-1.745
			C32.659,75.028,32.463,75.293,32.463,76.871z"/>
		<path fill="#FFFFFF" d="M43.968,77.652c0,1.006-0.07,1.41-0.321,1.802c-0.391,0.628-0.977,0.823-2.471,0.823
			c-1.382,0-2.066-0.153-2.569-0.601c-0.544-0.475-0.726-1.158-0.726-2.736c0-1.382,0.14-2.038,0.531-2.526
			c0.433-0.545,1.214-0.796,2.485-0.796c2.36,0,2.988,0.517,2.988,2.443h-1.801c-0.014-0.824-0.209-1.02-1.061-1.02
			c-1.131,0-1.257,0.195-1.257,1.913c0,1.661,0.154,1.898,1.257,1.898c0.963,0,1.117-0.168,1.117-1.201H43.968z"/>
		<path fill="#FFFFFF" d="M45.113,75.601c-0.014-1.592,0.558-1.982,2.82-1.982c1.731,0,2.499,0.279,2.862,1.019
			c0.126,0.237,0.224,0.852,0.224,1.327v4.244h-1.857l0.07-0.978h-0.042c-0.321,0.81-0.782,1.047-2.024,1.047
			c-1.703,0-2.318-0.544-2.318-2.052c0-1.425,0.67-1.997,2.36-1.997c1.256,0,1.647,0.168,1.927,0.782h0.028v-1.173
			c0-0.81-0.265-1.047-1.159-1.047c-0.81,0-0.978,0.14-1.02,0.81H45.113z M46.732,78.169c0,0.698,0.237,0.853,1.256,0.853
			c0.908,0,1.173-0.196,1.173-0.838c0-0.614-0.279-0.782-1.271-0.782C46.998,77.401,46.732,77.583,46.732,78.169z"/>
		<path fill="#FFFFFF" d="M54.328,80.208h-1.857v-9.312h1.857V80.208z"/>
		<path fill="#FFFFFF" d="M57.665,72.361h-1.857v-1.466h1.857V72.361z M57.665,80.208h-1.857v-6.521h1.857V80.208z"/>
		<path fill="#FFFFFF" d="M64.144,73.688v1.521l-3.31,3.645h3.31v1.354h-5.487v-1.563l3.253-3.603h-3.001v-1.354H64.144z"/>
		<path fill="#FFFFFF" d="M65.246,75.601c-0.014-1.592,0.559-1.982,2.82-1.982c1.731,0,2.499,0.279,2.862,1.019
			c0.126,0.237,0.224,0.852,0.224,1.327v4.244h-1.857l0.07-0.978h-0.042c-0.321,0.81-0.782,1.047-2.024,1.047
			c-1.704,0-2.318-0.544-2.318-2.052c0-1.425,0.671-1.997,2.36-1.997c1.256,0,1.647,0.168,1.927,0.782h0.027v-1.173
			c0-0.81-0.265-1.047-1.158-1.047c-0.811,0-0.978,0.14-1.02,0.81H65.246z M66.866,78.169c0,0.698,0.237,0.853,1.256,0.853
			c0.908,0,1.173-0.196,1.173-0.838c0-0.614-0.279-0.782-1.271-0.782C67.131,77.401,66.866,77.583,66.866,78.169z"/>
		<path fill="#FFFFFF" d="M78.427,77.652c0,1.006-0.07,1.41-0.321,1.802c-0.391,0.628-0.978,0.823-2.472,0.823
			c-1.382,0-2.066-0.153-2.568-0.601c-0.545-0.475-0.727-1.158-0.727-2.736c0-1.382,0.14-2.038,0.531-2.526
			c0.433-0.545,1.214-0.796,2.484-0.796c2.36,0,2.988,0.517,2.988,2.443h-1.801c-0.015-0.824-0.21-1.02-1.062-1.02
			c-1.131,0-1.257,0.195-1.257,1.913c0,1.661,0.154,1.898,1.257,1.898c0.964,0,1.117-0.168,1.117-1.201H78.427z"/>
		<path fill="#FFFFFF" d="M81.345,72.361h-1.857v-1.466h1.857V72.361z M81.345,80.208h-1.857v-6.521h1.857V80.208z"/>
		<path fill="#FFFFFF" d="M88.256,74.204c0.461,0.461,0.643,1.131,0.643,2.499c0,2.988-0.531,3.574-3.197,3.574
			c-1.55,0-2.346-0.279-2.751-0.936c-0.321-0.544-0.391-1.033-0.391-2.681c0-1.368,0.182-2.024,0.698-2.484
			c0.475-0.434,1.075-0.559,2.555-0.559C87.194,73.618,87.795,73.758,88.256,74.204z M84.444,76.871
			c0,1.717,0.167,1.996,1.271,1.996c1.131,0,1.299-0.279,1.299-2.094c0-1.466-0.196-1.745-1.271-1.745
			C84.64,75.028,84.444,75.293,84.444,76.871z M87.99,72.068l-2.89,1.061l-0.391-0.781l2.624-1.62L87.99,72.068z"/>
		<path fill="#FFFFFF" d="M91.983,73.688l-0.069,1.187h0.042c0.321-0.894,0.894-1.256,1.969-1.256c1.019,0,1.717,0.293,2.038,0.852
			c0.168,0.307,0.224,0.601,0.224,1.215v4.523h-1.857v-3.826c0-1.074-0.167-1.298-0.977-1.298c-0.922,0-1.354,0.404-1.354,1.284
			v3.84h-1.871v-6.521H91.983z"/>
	</g>
	<path fill="#FFFFFF" d="M71.869,56.449l-14.86,5c-1.168,0.374-2.243-0.748-1.822-1.916l1.075-2.617
		c0.14-0.421,0.467-0.701,0.935-0.794l10.421-3.458c0.607-0.187,1.028-0.748,1.028-1.402V25.14c0-1.028-0.981-1.682-1.916-1.402
		l-6.916,2.243c-1.262,0.421-2.43,0.421-3.692,0l-12.243-4.019c-1.262-0.421-2.43-0.421-3.692,0l-7.757,2.57
		c-0.607,0.187-1.028,0.748-1.028,1.402v26.075c0,1.028,0.981,1.682,1.916,1.402l6.495-2.15c0.701-0.234,1.542,0.14,1.822,0.841
		l0.794,2.009c0.28,0.748-0.093,1.682-0.935,1.916L30,59.813c-1.869,0.607-3.832-0.748-3.832-2.804V23.458
		c0-1.308,0.748-2.336,2.009-2.804l12.056-4.019c1.262-0.421,2.43-0.421,3.692,0l12.196,4.065c1.262,0.421,2.43,0.421,3.692,0
		l10.234-3.411c1.869-0.607,3.832,0.748,3.832,2.804v33.598C73.879,54.953,73.084,56.028,71.869,56.449z M40,38.832
		c0-5.514,4.486-10,10-10s10,4.486,10,10c0,1.308-0.234,2.57-0.701,3.738l-8.551,19.065c-0.28,0.654-1.308,0.654-1.589,0
		l-8.411-19.112C40.28,41.402,40,40.14,40,38.832z M50,43.178c2.383,0,4.346-1.963,4.346-4.346S52.383,34.486,50,34.486
		s-4.346,1.963-4.346,4.346C45.607,41.262,47.617,43.178,50,43.178z"/>
</g>
</svg>
