<?xml version="1.0" encoding="utf-8"?>
<!-- Generator: Adobe Illustrator 17.0.0, SVG Export Plug-In . SVG Version: 6.00 Build 0)  -->
<!DOCTYPE svg PUBLIC "-//W3C//DTD SVG 1.1//EN" "http://www.w3.org/Graphics/SVG/1.1/DTD/svg11.dtd">
<svg version="1.1" id="Capa_1" xmlns="http://www.w3.org/2000/svg" xmlns:xlink="http://www.w3.org/1999/xlink" x="0px" y="0px"
	 width="100px" height="100px" viewBox="0 0 100 100" enable-background="new 0 0 100 100" xml:space="preserve">
<rect x="137.143" y="104" fill="none" width="79.048" height="12.571"/>
<g>
	<g>
		<g>
			<g>
				<path fill="none" stroke="#FFFFFF" stroke-width="4" stroke-miterlimit="10" d="M49.429,40.143c-4.81,0-8.714-3.905-8.714-8.714
					s3.905-8.762,8.714-8.762s8.714,3.905,8.714,8.714S54.238,40.143,49.429,40.143z M49.429,24.238c-3.952,0-7.19,3.238-7.19,7.19
					s3.238,7.19,7.19,7.19s7.19-3.238,7.19-7.19S53.381,24.238,49.429,24.238z"/>
			</g>
			<g>
				<g>
					<path fill="none" stroke="#FFFFFF" stroke-width="4" stroke-miterlimit="10" d="M49.429,63.667
						c-0.238,0-0.429-0.095-0.571-0.286c-0.762-0.905-18.19-21.857-18.19-31.952c0-10.381,8.429-18.81,18.762-18.81
						s18.81,8.429,18.81,18.81c0,10.095-17.476,31.095-18.19,31.952C49.857,63.571,49.667,63.667,49.429,63.667z M49.429,14.143
						c-9.524,0-17.238,7.762-17.238,17.286c0,8.571,14.143,26.476,17.238,30.238c3.095-3.81,17.238-21.714,17.238-30.238
						C66.667,21.905,58.952,14.143,49.429,14.143z"/>
				</g>
			</g>
		</g>
		<g>
			<path fill="none" stroke="#FFFFFF" stroke-width="4" stroke-miterlimit="10" d="M49.429,69.714
				c-10.952,0-22.571-2.429-22.571-6.952c0-4.095,9.333-6.19,17.333-6.762c0.429-0.048,0.81,0.286,0.81,0.714
				c0.048,0.429-0.286,0.81-0.714,0.81c-9.952,0.667-15.905,3.19-15.905,5.238c0,2.238,8,5.381,21.048,5.381
				S70.476,65,70.476,62.762c0-2.048-5.952-4.524-15.952-5.238c-0.429-0.048-0.762-0.381-0.714-0.81
				c0.048-0.429,0.381-0.762,0.81-0.714C62.667,56.571,72,58.667,72,62.762C72,67.286,60.381,69.714,49.429,69.714z"/>
		</g>
	</g>
	<g enable-background="new    ">
		<path fill="#FFFFFF" d="M11.013,83.365c0.014,0.586,0.028,1.214,0.028,1.885c0,1.472-0.157,2.071-0.671,2.628
			c-0.585,0.614-1.371,0.786-3.613,0.786c-1.414,0-2-0.071-2.557-0.3c-1.243-0.528-1.714-1.515-1.714-3.643
			c0-2.342,0.057-3.128,0.271-3.784c0.271-0.886,0.928-1.485,1.885-1.757c0.471-0.129,1.157-0.186,2.485-0.186
			c1.699,0,2.256,0.085,2.899,0.457c0.671,0.386,0.943,1.1,0.986,2.527H8.784c-0.085-0.985-0.328-1.143-1.871-1.143
			c-1.243,0-1.728,0.157-1.971,0.657c-0.171,0.343-0.214,0.785-0.214,2.186c0,1.542,0.042,2.156,0.2,2.499
			c0.2,0.472,0.714,0.643,1.871,0.643c1.7,0,2.057-0.271,2.057-1.585c0-0.028-0.014-0.172-0.029-0.314H6.756v-1.557H11.013z"/>
		<path fill="#FFFFFF" d="M18.256,86.407v0.186c0,0.515-0.129,0.985-0.357,1.3c-0.4,0.543-1.128,0.771-2.528,0.771
			c-1.471,0-2.228-0.186-2.728-0.657s-0.671-1.229-0.671-2.842c0-1.457,0.171-2.157,0.643-2.628c0.5-0.486,1.242-0.686,2.528-0.686
			c2.428,0,3.114,0.686,3.114,3.156v0.585h-4.385c-0.015,0.114-0.015,0.229-0.015,0.271c0,1.143,0.286,1.442,1.329,1.442
			c0.971,0,1.185-0.171,1.2-0.899H18.256z M16.413,84.493c-0.014-0.1-0.014-0.199-0.014-0.229c-0.014-0.871-0.214-1.028-1.271-1.028
			c-0.743,0-1,0.101-1.143,0.443c-0.071,0.171-0.086,0.285-0.1,0.813H16.413z"/>
		<path fill="#FFFFFF" d="M25.069,82.451c0.472,0.472,0.657,1.157,0.657,2.557c0,3.057-0.543,3.656-3.271,3.656
			c-1.585,0-2.399-0.286-2.813-0.957c-0.329-0.557-0.4-1.057-0.4-2.742c0-1.399,0.186-2.071,0.714-2.542
			c0.486-0.443,1.1-0.571,2.614-0.571C23.984,81.852,24.598,81.994,25.069,82.451z M21.17,85.179c0,1.757,0.171,2.043,1.3,2.043
			c1.157,0,1.328-0.286,1.328-2.143c0-1.5-0.2-1.785-1.299-1.785C21.371,83.294,21.17,83.565,21.17,85.179z"/>
		<path fill="#FFFFFF" d="M28.885,88.593h-1.899v-9.526h1.899V88.593z"/>
		<path fill="#FFFFFF" d="M35.955,82.451c0.472,0.472,0.657,1.157,0.657,2.557c0,3.057-0.543,3.656-3.271,3.656
			c-1.585,0-2.399-0.286-2.813-0.957c-0.329-0.557-0.4-1.057-0.4-2.742c0-1.399,0.186-2.071,0.714-2.542
			c0.486-0.443,1.1-0.571,2.614-0.571C34.87,81.852,35.484,81.994,35.955,82.451z M32.056,85.179c0,1.757,0.171,2.043,1.3,2.043
			c1.157,0,1.328-0.286,1.328-2.143c0-1.5-0.2-1.785-1.299-1.785C32.256,83.294,32.056,83.565,32.056,85.179z"/>
		<path fill="#FFFFFF" d="M43.826,85.979c0,1.028-0.071,1.442-0.328,1.843c-0.4,0.643-1,0.843-2.528,0.843
			c-1.414,0-2.113-0.157-2.628-0.614c-0.557-0.485-0.742-1.186-0.742-2.8c0-1.413,0.143-2.085,0.542-2.585
			c0.443-0.557,1.243-0.813,2.542-0.813c2.414,0,3.056,0.528,3.056,2.499h-1.842c-0.015-0.843-0.214-1.043-1.085-1.043
			c-1.157,0-1.286,0.2-1.286,1.957c0,1.699,0.157,1.942,1.286,1.942c0.985,0,1.143-0.171,1.143-1.229H43.826z"/>
		<path fill="#FFFFFF" d="M45,83.879c-0.014-1.628,0.571-2.027,2.885-2.027c1.771,0,2.557,0.285,2.928,1.042
			c0.129,0.243,0.229,0.871,0.229,1.357v4.342h-1.9l0.072-1H49.17c-0.329,0.828-0.8,1.071-2.071,1.071
			c-1.742,0-2.371-0.558-2.371-2.1c0-1.457,0.686-2.042,2.414-2.042c1.286,0,1.686,0.171,1.971,0.8h0.028v-1.2
			c0-0.828-0.271-1.071-1.185-1.071c-0.829,0-1,0.143-1.043,0.828H45z M46.656,86.507c0,0.715,0.243,0.872,1.285,0.872
			c0.929,0,1.2-0.2,1.2-0.857c0-0.628-0.286-0.8-1.299-0.8C46.928,85.722,46.656,85.907,46.656,86.507z"/>
		<path fill="#FFFFFF" d="M54.428,88.593h-1.899v-9.526h1.899V88.593z"/>
		<path fill="#FFFFFF" d="M57.842,80.565h-1.899v-1.499h1.899V80.565z M57.842,88.593h-1.899v-6.67h1.899V88.593z"/>
		<path fill="#FFFFFF" d="M64.47,81.923v1.557l-3.385,3.728h3.385v1.386h-5.613v-1.6l3.328-3.686h-3.071v-1.385H64.47z"/>
		<path fill="#FFFFFF" d="M65.6,83.879c-0.015-1.628,0.571-2.027,2.885-2.027c1.771,0,2.557,0.285,2.928,1.042
			c0.129,0.243,0.229,0.871,0.229,1.357v4.342h-1.899l0.071-1H69.77c-0.328,0.828-0.8,1.071-2.071,1.071
			c-1.742,0-2.37-0.558-2.37-2.1c0-1.457,0.686-2.042,2.413-2.042c1.286,0,1.686,0.171,1.972,0.8h0.028v-1.2
			c0-0.828-0.271-1.071-1.186-1.071c-0.828,0-1,0.143-1.043,0.828H65.6z M67.256,86.507c0,0.715,0.243,0.872,1.285,0.872
			c0.929,0,1.2-0.2,1.2-0.857c0-0.628-0.286-0.8-1.3-0.8C67.527,85.722,67.256,85.907,67.256,86.507z"/>
		<path fill="#FFFFFF" d="M79.083,85.979c0,1.028-0.071,1.442-0.328,1.843c-0.399,0.643-1,0.843-2.528,0.843
			c-1.413,0-2.113-0.157-2.628-0.614c-0.557-0.485-0.742-1.186-0.742-2.8c0-1.413,0.143-2.085,0.543-2.585
			c0.442-0.557,1.242-0.813,2.542-0.813c2.414,0,3.057,0.528,3.057,2.499h-1.843c-0.015-0.843-0.214-1.043-1.085-1.043
			c-1.157,0-1.286,0.2-1.286,1.957c0,1.699,0.157,1.942,1.286,1.942c0.985,0,1.143-0.171,1.143-1.229H79.083z"/>
		<path fill="#FFFFFF" d="M82.069,80.565H80.17v-1.499h1.899V80.565z M82.069,88.593H80.17v-6.67h1.899V88.593z"/>
		<path fill="#FFFFFF" d="M89.141,82.451c0.472,0.472,0.657,1.157,0.657,2.557c0,3.057-0.543,3.656-3.271,3.656
			c-1.586,0-2.399-0.286-2.814-0.957c-0.328-0.557-0.399-1.057-0.399-2.742c0-1.399,0.186-2.071,0.714-2.542
			c0.485-0.443,1.1-0.571,2.614-0.571C88.055,81.852,88.669,81.994,89.141,82.451z M85.241,85.179c0,1.757,0.172,2.043,1.3,2.043
			c1.157,0,1.328-0.286,1.328-2.143c0-1.5-0.199-1.785-1.3-1.785C85.441,83.294,85.241,83.565,85.241,85.179z M88.869,80.266
			l-2.956,1.086l-0.4-0.8l2.686-1.657L88.869,80.266z"/>
		<path fill="#FFFFFF" d="M92.955,81.923l-0.071,1.214h0.043c0.329-0.914,0.914-1.285,2.014-1.285c1.043,0,1.757,0.3,2.086,0.871
			c0.171,0.314,0.229,0.614,0.229,1.242v4.628h-1.9v-3.914c0-1.1-0.171-1.328-0.999-1.328c-0.943,0-1.386,0.414-1.386,1.314v3.928
			h-1.914v-6.67H92.955z"/>
	</g>
</g>
</svg>
