<?xml version="1.0" encoding="utf-8"?>
<!-- Generator: Adobe Illustrator 20.1.0, SVG Export Plug-In . SVG Version: 6.00 Build 0)  -->
<svg version="1.1" id="Capa_1" xmlns="http://www.w3.org/2000/svg" xmlns:xlink="http://www.w3.org/1999/xlink" x="0px" y="0px"
	 viewBox="0 0 284 57" style="enable-background:new 0 0 284 57;" xml:space="preserve">
<style type="text/css">
	.st0{enable-background:new    ;}
	.st1{fill:#314F96;}
	.st2{fill:none;}
	.st3{fill:url(#SVGID_1_);}
	.st4{fill:#355399;}
</style>
<g>
	<g class="st0">
		<path class="st1" d="M103.7,43.8h-5.6V27.5c0-1.3,0.1-4.2,0.3-8.8h-0.2c-2,6.3-2.1,6.6-2.7,8.3L89,43.8h-5.1l-6.6-16.7
			c-0.5-1.3-1.4-4.1-2.8-8.3h-0.2c0.3,6.3,0.4,6.8,0.4,8.7v16.3H69V14h9.2l5.3,13.8c0.5,1.3,1.2,3.2,2.8,8.3h0.2l1.1-3.3
			c0.7-2.3,1.3-4,1.6-4.9L94.4,14h9.4V43.8z"/>
		<path class="st1" d="M133.6,14v19.8c0,3.7-0.4,5.7-1.6,7.1c-0.9,1.2-2.2,2.1-3.9,2.5c-1.2,0.4-3.5,0.5-6.9,0.5
			c-4.4,0-6.4-0.2-8.1-1c-3.2-1.4-4.2-3.5-4.2-8.9V14h5.7v20.1c0,4.3,0.9,5,6.7,5c5.8,0,6.6-0.6,6.6-5.2V14H133.6z"/>
		<path class="st1" d="M166.5,43.8h-9.6l-8.5-16.3c-0.8-1.6-0.9-1.8-3.9-8.5h-0.2c0.2,5.2,0.2,5.2,0.2,7.8v17.1h-5.6V14h9.6
			l7.8,15.1c1,1.9,1.6,3.2,3,6.3c0.5,1.1,1.1,2.2,1.6,3.4h0.2c-0.2-5.1-0.2-5.1-0.2-7.7V14h5.7V43.8z"/>
		<path class="st1" d="M171.7,14h14.7c4.1,0,6.7,0.8,8.4,2.5c2.1,2.2,2.9,4.7,2.9,9.9c0,8-0.3,10.5-1.2,12.6
			c-1.7,3.3-4.6,4.7-9.8,4.7h-14.9V14z M185.5,38.8c2.7,0,4.2-0.5,5.1-1.8c1-1.4,1.2-3.2,1.2-8.3c0-5.2-0.2-6.9-1.2-8.2
			c-0.8-1.2-2.2-1.7-4.9-1.7h-8.4v19.9H185.5z"/>
		<path class="st1" d="M207.6,43.8h-5.7V14h5.7V43.8z"/>
		<path class="st1" d="M224.9,43.8h-5.7V19h-8.6v-5h23.1v5h-8.8V43.8z"/>
		<path class="st1" d="M242.5,26.4h13.9v4.2h-13.9V39h14.8v4.7h-20.5V14h20.4v4.7h-14.6V26.4z"/>
		<path class="st1" d="M267.2,38.8h13.9v5h-19.6V14h5.7V38.8z"/>
	</g>
	<path class="st2" d="M16,31.4c-0.7,0.3-1.4,0.6-2.1,0.8c-0.7,0.3-1.4,0.5-2.2,0.8c-1.5,0.5-2.9,0.9-4.4,1.3c-1,0.3-2,0.5-3,0.7
		c0.8,1.3,1.5,2.6,2.3,3.7c0.4,0.6,0.8,1.2,1.1,1.7c0.4,0.5,0.7,1,1.1,1.5C9,42.3,9.3,42.7,9.5,43c1.2,0.2,2.5,0.3,3.8,0.3
		c3,0,6-0.5,8.7-1.4l-4.3-11.2C17.2,31,16.6,31.2,16,31.4z"/>
	<g>
		
			<linearGradient id="SVGID_1_" gradientUnits="userSpaceOnUse" x1="4.2948" y1="28.15" x2="37.1596" y2="28.15" gradientTransform="matrix(1 0 0 -1 0 58)">
			<stop  offset="0.1462" style="stop-color:#4D81B0"/>
			<stop  offset="1" style="stop-color:#619CCC;stop-opacity:0.7"/>
		</linearGradient>
		<path class="st3" d="M22.3,7l14.9,43l-8.4,2.7c0,0-13.6-0.9-18.7-7.6c-2.2-2.5-7.9-12-5-21.6C6,20.1,9.8,9.7,22.3,7z"/>
		<path class="st4" d="M48.9,25c0-0.2,0-0.4-0.1-0.6c0-0.2-0.1-0.4-0.1-0.6s-0.1-0.4-0.1-0.6s-0.1-0.4-0.1-0.6s-0.1-0.4-0.1-0.6
			s-0.1-0.4-0.1-0.6s-0.1-0.4-0.1-0.6L48,20.2c-0.2-0.8-0.5-1.5-0.7-2.3c-0.3-0.7-0.6-1.5-0.9-2.1c-0.3-0.7-0.7-1.3-1.1-1.9
			c-0.4-0.6-0.8-1.1-1.2-1.6S43.3,11.4,43,11c-0.4-0.4-0.7-0.7-1-0.9s-0.5-0.4-0.7-0.6c-0.1-0.1-0.2-0.1-0.2-0.2
			C41,9.5,41,9.4,41,9.4c-0.8-0.5-1.8-0.2-2.3,0.7c-0.5,0.8-0.2,1.8,0.7,2.3l0,0c0,0,0.1,0,0.1,0.1c0.1,0.1,0.3,0.2,0.6,0.3
			c0.2,0.2,0.5,0.4,0.9,0.6c0.3,0.3,0.7,0.6,1.1,0.9c0.4,0.4,0.8,0.8,1.2,1.3s0.8,1,1.2,1.6s0.8,1.2,1.1,1.8c0.3,0.6,0.7,1.3,1,2
			l0.2,0.5c0.1,0.2,0.1,0.3,0.2,0.5c0.1,0.2,0.1,0.3,0.2,0.5c0.1,0.2,0.1,0.4,0.2,0.5c0.1,0.2,0.1,0.4,0.2,0.5
			c0,0.2,0.1,0.4,0.1,0.5c0,0.2,0.1,0.3,0.1,0.5s0.1,0.3,0.1,0.5c0.2,0.7,0.3,1.4,0.4,2c0.1,0.6,0.2,1.3,0.3,1.8
			c0,0.3,0.1,0.6,0.1,0.8c0,0.3,0,0.5,0.1,0.7c0,0.2,0,0.5,0.1,0.7c0,0.2,0,0.4,0,0.6c0,0.7,0,1.1,0,1.1s0-0.4,0.1-1.1
			c0-0.2,0-0.4,0.1-0.6c0-0.2,0-0.4,0-0.7c0-0.2,0-0.5,0-0.8s0-0.5,0-0.8c0-0.6,0-1.2,0-1.9C49,26.4,49,25.7,48.9,25z"/>
		<path class="st4" d="M53.3,26c0-0.7,0-1.3,0-2c-0.1-0.7-0.1-1.4-0.2-2.1c0-0.3-0.1-0.7-0.1-1s-0.1-0.7-0.2-1
			c-0.1-0.7-0.2-1.4-0.4-2.1c-0.1-0.3-0.2-0.7-0.3-1s-0.2-0.7-0.3-1c-0.1-0.2-0.1-0.3-0.2-0.5c-0.1-0.2-0.1-0.3-0.2-0.5
			c-0.1-0.3-0.3-0.6-0.4-1c-0.1-0.3-0.3-0.6-0.4-0.9c-0.1-0.2-0.1-0.3-0.2-0.5c-0.1-0.2-0.2-0.3-0.2-0.4c-0.2-0.3-0.3-0.6-0.5-0.9
			c-0.2-0.3-0.4-0.6-0.5-0.8C49,10,48.8,9.7,48.6,9.5c-0.1-0.1-0.2-0.3-0.3-0.4C48.2,9,48.1,8.8,48,8.7c-0.2-0.2-0.4-0.5-0.6-0.7
			c-0.2-0.2-0.4-0.4-0.6-0.7c-0.1-0.1-0.2-0.2-0.3-0.3c-0.1-0.1-0.2-0.2-0.3-0.3c-0.2-0.2-0.4-0.4-0.6-0.6c-0.8-0.7-1.6-1.4-2.3-1.9
			s-1.4-0.9-2-1.2s-1.1-0.5-1.4-0.7c-0.1,0-0.2-0.1-0.2-0.1c-0.1,0-0.1-0.1-0.2-0.1c-0.1,0-0.1,0-0.1,0h-0.1
			c-0.9-0.2-1.8,0.3-2.1,1.2s0.3,1.8,1.2,2.1l0,0c0,0,0,0,0.1,0c0,0,0,0,0.1,0c0,0,0.1,0,0.2,0.1C39.1,5.6,39.5,5.7,40,6
			c0.5,0.2,1.1,0.5,1.7,0.9c0.7,0.4,1.4,0.9,2.1,1.5c0.2,0.1,0.4,0.3,0.6,0.5c0.1,0.1,0.2,0.2,0.3,0.2c0.1,0.1,0.2,0.2,0.3,0.3
			c0.2,0.2,0.4,0.4,0.6,0.5c0.2,0.2,0.4,0.4,0.6,0.6c0.1,0.1,0.2,0.2,0.3,0.3s0.2,0.2,0.3,0.3c0.2,0.2,0.4,0.4,0.5,0.7
			c0.2,0.2,0.3,0.5,0.5,0.7s0.3,0.5,0.5,0.7c0.1,0.1,0.2,0.3,0.2,0.4c0.1,0.1,0.2,0.3,0.2,0.4c0.2,0.3,0.3,0.5,0.5,0.8
			c0.1,0.3,0.3,0.6,0.4,0.8c0.1,0.1,0.1,0.3,0.2,0.4c0.1,0.1,0.1,0.3,0.2,0.4c0.1,0.3,0.2,0.6,0.4,0.9c0.1,0.3,0.2,0.6,0.3,0.9
			c0.2,0.6,0.4,1.3,0.6,1.9c0.1,0.3,0.2,0.6,0.2,1c0.1,0.3,0.1,0.6,0.2,1c0.1,0.7,0.2,1.3,0.3,2s0.1,1.3,0.2,1.9c0,0.2,0,0.3,0,0.5
			s0,0.3,0,0.5c0,0.3,0,0.6,0,1c0,0.2,0,0.3,0,0.5s0,0.3,0,0.5c0,0.3,0,0.6,0,0.9s0,0.6,0,0.9s0,0.6-0.1,0.9c0,0.6-0.1,1.1-0.1,1.7
			c-0.1,0.5-0.1,1.1-0.2,1.6c-0.1,1-0.3,1.9-0.4,2.7c-0.1,0.4-0.1,0.8-0.2,1.1c-0.1,0.4-0.1,0.7-0.2,1c-0.2,1.2-0.4,1.8-0.4,1.8
			s0.2-0.7,0.5-1.8c0.1-0.3,0.2-0.6,0.3-0.9c0.1-0.3,0.2-0.7,0.3-1.1c0.2-0.8,0.4-1.7,0.6-2.7c0.1-0.5,0.2-1,0.3-1.6
			c0.1-0.5,0.2-1.1,0.2-1.7c0-0.3,0.1-0.6,0.1-0.9S53,30.3,53,30s0.1-0.6,0.1-0.9c0-0.2,0-0.3,0-0.5s0-0.3,0-0.5c0-0.3,0-0.6,0-1
			c0-0.2,0-0.3,0-0.5C53.3,26.3,53.3,26.1,53.3,26z"/>
		<path class="st2" d="M15.7,43c0.9,0,1.8,0,2.8-0.1c0.9,0,1.8-0.1,2.7-0.2c-0.3-0.4-0.5-0.8-0.7-1.3c-0.2-0.3-0.3-0.6-0.5-0.9
			c-0.2-0.3-0.3-0.6-0.5-1c-0.2-0.3-0.3-0.6-0.5-1c-0.2-0.3-0.3-0.7-0.5-1s-0.3-0.7-0.5-1c-0.1-0.3-0.3-0.7-0.4-1s-0.3-0.7-0.4-1
			l-0.4-1.1c-0.5-1.4-1-2.9-1.3-4.3V29c-0.8,0.1-1.6,0.1-2.4,0.2c-1.1,0.1-2.1,0.1-3,0.1c-0.8,0-1.5,0-2.1,0c0,0-2.3-0.2-3.1-0.2
			c0.8,0.7,2.3,1,3.2,1.1c0.3,4.9,2.1,9.3,5,12.9C13.8,43,14.7,43,15.7,43z"/>
		<path class="st2" d="M25.3,27.2c-0.6,0.1-1.2,0.3-1.8,0.4c-1.2,0.3-2.4,0.5-3.6,0.7c-1,0.2-2,0.3-3,0.4c0.3,1.4,0.6,2.8,1.1,4.2
			l0.3,1.1c0.1,0.3,0.2,0.7,0.4,1c0.1,0.3,0.2,0.7,0.4,1c0.1,0.3,0.3,0.7,0.4,1s0.3,0.7,0.4,1s0.3,0.7,0.4,1s0.3,0.6,0.4,1
			c0.2,0.3,0.3,0.6,0.5,0.9c0.3,0.5,0.5,1.1,0.8,1.6c1-0.1,2-0.3,3.1-0.4c1.1-0.2,2.3-0.4,3.5-0.7c0.6-0.1,1.1-0.3,1.7-0.4
			c0.6-0.2,1.1-0.3,1.7-0.5c0.5-0.2,0.9-0.3,1.4-0.5l-5.3-13.8c-0.4,0.1-0.7,0.2-1.1,0.3C26.5,26.9,25.9,27.1,25.3,27.2z"/>
		<path class="st2" d="M16.6,26.6c1,0,2.1-0.1,3.1-0.2c1.2-0.1,2.3-0.2,3.5-0.4c0.6-0.1,1.2-0.2,1.8-0.3c0.6-0.1,1.2-0.2,1.7-0.3
			c0.3-0.1,0.6-0.1,1-0.2L21.3,8.7c0-0.1,0-0.1,0-0.2c-1.1,0.5-2.2,1.1-3.2,1.7c0,0,0,0,0,0.1c0,0,0,0,0,0.1l0,0c0,0,0,0,0,0.1
			S18,10.7,18,10.8c-0.1,0.3-0.3,0.7-0.5,1.3s-0.4,1.3-0.6,2.2s-0.3,1.8-0.5,2.9c-0.1,1.1-0.2,2.2-0.2,3.5c0,1.2,0,2.6,0.2,3.9
			C16.4,25.3,16.5,25.9,16.6,26.6z"/>
		<path class="st2" d="M13.1,26.6c0.6,0,1.2,0,1.9,0c-0.1-0.6-0.2-1.2-0.3-1.8c-0.2-1.4-0.3-2.8-0.4-4.1c-0.1-1.3,0-2.6,0-3.7
			c0.1-1.1,0.2-2.2,0.3-3.1c0.1-0.4,0.1-0.7,0.2-1c-3.6,3.5-6,8.1-6.6,13.3c0.6,0.1,1.3,0.1,2.1,0.2C11.1,26.5,12.1,26.6,13.1,26.6z
			"/>
		<path class="st2" d="M42.8,47.1C42.9,47.1,42.9,47.1,42.8,47.1L42.8,47.1c0-0.1,0-0.2,0.1-0.3c0-0.1,0.1-0.3,0.2-0.6
			c0.1-0.3,0.2-0.6,0.2-0.9c0.1-0.4,0.2-0.8,0.3-1.2c0.1-0.5,0.2-0.9,0.3-1.5c0.1-0.5,0.2-1.1,0.3-1.6c0.1-0.6,0.2-1.2,0.2-1.8
			c0-0.3,0.1-0.6,0.1-0.9c0-0.3,0.1-0.6,0.1-0.9c0-0.3,0-0.6,0-0.9c0-0.2,0-0.3,0-0.5s0-0.3,0-0.5c0-0.3,0-0.6,0-0.9l-0.1,0.1
			c-0.4,0.3-0.9,0.7-1.5,1.2c-0.3,0.2-0.6,0.4-1,0.7c-0.3,0.2-0.7,0.5-1.1,0.7c-0.4,0.2-0.8,0.5-1.2,0.8s-0.9,0.5-1.3,0.8
			c-0.5,0.3-0.9,0.5-1.4,0.8c-0.2,0.1-0.5,0.3-0.7,0.4c-0.3,0.1-0.5,0.3-0.8,0.4c-0.3,0.1-0.5,0.3-0.8,0.4c-0.1,0-0.2,0.1-0.3,0.1
			l2.8,9.2c2-0.7,3.8-1.6,5.5-2.7C42.8,47.3,42.8,47.2,42.8,47.1z"/>
		<path class="st1" d="M44.8,45.4L44.8,45.4c0.1-0.5,0.1-0.9,0.2-1.4c0.1-0.5,0.1-1,0.2-1.5c0.1-0.5,0.1-1.1,0.1-1.7
			c0-0.6,0-1.2,0.1-1.8c0-0.3,0-0.6,0-0.9c0-0.3,0-0.6,0-0.9c0-0.3,0-0.6,0-0.9c0-0.2,0-0.3,0-0.5s0-0.3,0-0.5c0-0.5-0.1-1-0.1-1.4
			c0.3-0.3,0.5-0.4,0.5-0.4s-0.2,0.1-0.5,0.4c0-0.1,0-0.2,0-0.3c0-0.3-0.1-0.6-0.1-0.9c0-0.1,0-0.1,0-0.2c0-0.1,0-0.1,0-0.2
			c0-0.1-0.1-0.3-0.1-0.4C45,31.6,45,31.4,45,31.1c0-0.1,0-0.2-0.1-0.4c0-0.1-0.1-0.2-0.1-0.3c-0.1-0.5-0.2-0.9-0.3-1.2
			c-0.1-0.4-0.2-0.7-0.3-0.9c-0.2-0.5-0.3-0.8-0.3-0.8s0.1,0.3,0.2,0.8c0.1,0.3,0.1,0.6,0.2,1c0.1,0.4,0.1,0.8,0.2,1.3
			c0,0.1,0,0.2,0.1,0.4c0,0.1,0,0.2,0,0.4c0,0.2,0.1,0.5,0.1,0.8c0,0.1,0,0.3,0,0.4c0,0.1,0,0.1,0,0.2c0,0.1,0,0.1,0,0.2
			c0,0.3,0,0.6,0,0.9c0,0.2,0,0.5,0,0.7c-0.1,0-0.1,0.1-0.2,0.2c-0.4,0.3-1,0.6-1.6,1c-0.3,0.2-0.6,0.4-1,0.6
			c-0.4,0.2-0.7,0.4-1.1,0.6c-0.4,0.2-0.8,0.4-1.2,0.7c-0.4,0.2-0.9,0.4-1.3,0.7c-0.5,0.2-1,0.4-1.4,0.6c-0.2,0.1-0.5,0.2-0.8,0.3
			s-0.5,0.2-0.8,0.3s-0.5,0.2-0.8,0.3c-0.1,0-0.1,0.1-0.2,0.1l-4.2-14.1c0.1,0,0.3-0.1,0.4-0.1c0.3-0.1,0.5-0.2,0.8-0.3
			c0.3-0.1,0.5-0.2,0.8-0.3c0.5-0.2,1-0.4,1.5-0.7c0.5-0.2,0.9-0.5,1.4-0.7c0.4-0.2,0.9-0.5,1.3-0.7c0.4-0.2,0.8-0.4,1.1-0.6
			c0.4-0.2,0.7-0.4,1-0.6c0.6-0.4,1.2-0.7,1.6-1c0.9-0.6,1.4-1,1.4-1s-0.5,0.3-1.4,0.8c-0.5,0.3-1,0.5-1.7,0.9
			c-0.3,0.2-0.7,0.3-1,0.5c-0.4,0.2-0.8,0.4-1.2,0.5c-0.4,0.2-0.8,0.4-1.3,0.5c-0.5,0.2-0.9,0.4-1.4,0.5c-0.5,0.2-1,0.3-1.5,0.5
			c-0.3,0.1-0.5,0.2-0.8,0.2c-0.3,0.1-0.5,0.2-0.8,0.2c-0.1,0-0.2,0.1-0.4,0.1L24.4,7.3V7.2c0,0,0,0,0-0.1c1.9-0.5,3.8-0.8,5.9-0.8
			c1.6,0,3.1,0.2,4.6,0.5c-2.4-0.8-5-1.3-7.8-1.3C13.6,5.5,2.7,16.4,2.7,29.8S13.6,54,27,54c6.2,0,11.9-2.3,16.2-6.2
			c0.5-0.5,1-1,1.5-1.5c1.1-1.2,2.1-2.4,2.9-3.8C46.8,43.6,45.9,44.6,44.8,45.4z M33.2,39.8c-0.5,0.2-0.9,0.3-1.4,0.5
			c-0.6,0.2-1.1,0.3-1.7,0.5c-0.6,0.1-1.1,0.3-1.7,0.4c-1.2,0.3-2.3,0.5-3.5,0.7c-1,0.2-2.1,0.3-3.1,0.4c-0.3-0.5-0.5-1-0.8-1.6
			c-0.2-0.3-0.3-0.6-0.5-0.9c-0.1-0.3-0.3-0.6-0.4-1c-0.1-0.3-0.3-0.7-0.4-1s-0.3-0.7-0.4-1s-0.3-0.7-0.4-1s-0.2-0.7-0.4-1
			c-0.1-0.3-0.2-0.7-0.4-1l-0.3-1.1c-0.4-1.4-0.8-2.8-1.1-4.2c1-0.1,2-0.3,3-0.4c1.2-0.2,2.4-0.5,3.6-0.7c0.6-0.1,1.2-0.3,1.8-0.4
			c0.6-0.2,1.2-0.3,1.7-0.5c0.4-0.1,0.7-0.2,1.1-0.3L33.2,39.8z M16.2,16.9c0.1-1.1,0.3-2,0.5-2.9s0.4-1.6,0.6-2.2
			c0.2-0.6,0.3-1,0.5-1.3c0.1-0.1,0.1-0.3,0.1-0.3c0-0.1,0-0.1,0-0.1l0,0c0,0,0,0,0-0.1c0,0,0,0,0-0.1c1-0.7,2.1-1.2,3.2-1.7
			c0,0.1,0,0.1,0,0.2l6.3,16.5c-0.3,0.1-0.6,0.1-1,0.2c-0.6,0.1-1.2,0.2-1.7,0.3c-0.6,0.1-1.2,0.2-1.8,0.3c-1.2,0.2-2.3,0.3-3.5,0.4
			c-1.1,0.1-2.1,0.1-3.1,0.2c-0.1-0.7-0.2-1.3-0.2-2c0-1.3-0.1-2.7-0.1-3.9C16,19.1,16.1,18,16.2,16.9z M14.6,12.6
			c-0.1,0.3-0.1,0.7-0.2,1c-0.1,0.9-0.3,2-0.3,3.1c-0.1,1.2-0.1,2.4,0,3.7c0.1,1.3,0.2,2.7,0.4,4.1c0.1,0.6,0.2,1.2,0.3,1.8
			c-0.6,0-1.3,0-1.9,0c-1,0-2-0.1-2.8-0.2S8.6,26,8,25.9C8.6,20.7,11.1,16,14.6,12.6z M7.9,29.8c-0.9-0.1-2.4-0.4-3.2-1.1
			c0.8,0.1,3.1,0.2,3.1,0.2c0.7,0,1.4,0,2.1,0c0.9,0,1.9,0,3-0.1c0.8,0,1.5-0.1,2.4-0.2v0.1c0.4,1.4,0.8,2.9,1.3,4.3l0.4,1.1
			c0.1,0.3,0.3,0.7,0.4,1s0.3,0.7,0.4,1c0.2,0.3,0.3,0.7,0.5,1s0.3,0.7,0.5,1s0.3,0.7,0.5,1s0.3,0.6,0.5,1c0.2,0.3,0.3,0.6,0.5,0.9
			c0.2,0.4,0.5,0.9,0.7,1.3c-0.9,0.1-1.9,0.2-2.7,0.2c-1,0.1-2,0.1-2.8,0.1c-1,0-1.9,0-2.7,0C10,39.1,8.1,34.7,7.9,29.8z M16.5,46.2
			c-2.5-0.1-3.3-0.4-3.3-0.4l2.5-0.2l0,0c0.9-0.1,1.9-0.2,3-0.4c1-0.1,2.1-0.3,3.3-0.6c0.2,0,0.3-0.1,0.5-0.1l0,0
			c0.7,1.1,1.4,2.1,2.1,3c0.3,0.5,0.6,0.9,0.9,1.3c0.3,0.4,0.6,0.8,0.9,1.1c0.2,0.2,0.4,0.5,0.5,0.7C23,50.1,19.5,48.6,16.5,46.2z
			 M30.2,50.9c-1,0-2-0.1-3-0.2c-0.2-0.3-0.4-0.6-0.6-0.9c-0.3-0.4-0.5-0.8-0.8-1.2s-0.6-0.9-0.9-1.3c-0.6-0.9-1.2-1.9-1.8-2.9
			c0.8-0.2,1.6-0.4,2.3-0.6c1.2-0.3,2.3-0.7,3.5-1c0.6-0.2,1.2-0.4,1.7-0.6c0.6-0.2,1.1-0.4,1.7-0.7c0.5-0.2,0.9-0.4,1.4-0.6
			l3.4,8.9C34.9,50.6,32.6,50.9,30.2,50.9z M44.6,35.2c0,0.2,0,0.3,0,0.5s0,0.3,0,0.5c0,0.3,0,0.6,0,0.9c0,0.3,0,0.6-0.1,0.9
			c0,0.3-0.1,0.6-0.1,0.9c-0.1,0.6-0.1,1.2-0.2,1.8c-0.1,0.6-0.2,1.1-0.3,1.6s-0.2,1-0.3,1.5s-0.2,0.9-0.3,1.2
			c-0.1,0.4-0.2,0.7-0.2,0.9c-0.1,0.3-0.1,0.5-0.2,0.6c0,0.1-0.1,0.2-0.1,0.2l0,0v0.1c0,0.1,0,0.2,0,0.3c-1.7,1.1-3.5,2.1-5.5,2.7
			l-2.8-9.2c0.1,0,0.2-0.1,0.3-0.1c0.3-0.1,0.5-0.2,0.8-0.4c0.3-0.1,0.5-0.3,0.8-0.4c0.3-0.1,0.5-0.2,0.7-0.4c0.5-0.3,1-0.5,1.4-0.8
			s0.9-0.5,1.3-0.8c0.4-0.3,0.8-0.5,1.2-0.8c0.4-0.2,0.7-0.5,1.1-0.7c0.3-0.2,0.7-0.5,1-0.7c0.6-0.5,1.1-0.8,1.5-1.2l0.1-0.1
			C44.6,34.6,44.6,34.9,44.6,35.2z"/>
	</g>
</g>
</svg>
