<?xml version="1.0" encoding="utf-8"?>
<!-- Generator: Adobe Illustrator 17.0.0, SVG Export Plug-In . SVG Version: 6.00 Build 0)  -->
<!DOCTYPE svg PUBLIC "-//W3C//DTD SVG 1.1//EN" "http://www.w3.org/Graphics/SVG/1.1/DTD/svg11.dtd">
<svg version="1.1" id="Capa_1" xmlns="http://www.w3.org/2000/svg" xmlns:xlink="http://www.w3.org/1999/xlink" x="0px" y="0px"
	 width="100px" height="100px" viewBox="0 0 100 100" enable-background="new 0 0 100 100" xml:space="preserve">
<g>
	<rect x="3.326" y="68.786" fill="none" width="93.407" height="28.938"/>
	<g enable-background="new    ">
		<path fill="#FFFFFF" d="M20.852,73.785c0-1.29-0.254-1.493-1.849-1.493c-1.765,0-2.138,0.237-2.138,1.323
			c0,0.696,0.204,1.019,0.713,1.154c0.237,0.051,0.237,0.051,2.07,0.169c1.816,0.103,2.443,0.238,3.021,0.611
			c0.729,0.475,0.984,1.137,0.984,2.63c0,1.459-0.204,2.223-0.747,2.731c-0.712,0.662-1.612,0.849-3.885,0.849
			c-2.766,0-3.75-0.271-4.31-1.171c-0.356-0.543-0.475-1.137-0.475-2.545h2.494v0.204c0,0.61,0.102,0.95,0.356,1.188
			c0.271,0.221,0.509,0.254,2.053,0.254c1.035,0,1.29-0.051,1.578-0.271c0.238-0.187,0.356-0.543,0.356-1.137
			c0-0.492-0.085-0.797-0.305-0.95c-0.271-0.221-0.271-0.221-2.325-0.356c-1.85-0.118-2.375-0.203-2.952-0.491
			c-0.883-0.441-1.239-1.273-1.239-2.885c0-1.357,0.289-2.189,0.916-2.647c0.73-0.509,1.646-0.679,3.75-0.679
			c2.308,0,3.241,0.221,3.818,0.899c0.424,0.509,0.628,1.188,0.628,2.155c0,0.067,0,0.271-0.017,0.458H20.852z"/>
		<path fill="#FFFFFF" d="M27.253,72.14h-2.256v-1.782h2.256V72.14z M27.253,81.675h-2.256v-7.924h2.256V81.675z"/>
		<path fill="#FFFFFF" d="M33.702,75.974c-0.136-0.729-0.237-0.797-1.391-0.797c-0.73,0-0.95,0.033-1.137,0.152
			c-0.152,0.085-0.254,0.356-0.254,0.645c0,0.407,0.136,0.646,0.424,0.713c0.17,0.051,0.322,0.068,1.595,0.119
			c1.562,0.085,2.07,0.169,2.512,0.492c0.475,0.339,0.729,0.967,0.729,1.832c0,0.899-0.255,1.544-0.764,1.969
			c-0.611,0.491-1.408,0.661-3.122,0.661c-1.985,0-2.885-0.271-3.309-1.035c-0.238-0.373-0.306-0.746-0.306-1.544h2.325
			c-0.017,0.085-0.017,0.17-0.017,0.187c0,0.713,0.255,0.865,1.459,0.865c1.222,0,1.527-0.169,1.527-0.865
			c0-0.679-0.237-0.865-1.12-0.865c-1.493-0.017-2.257-0.085-2.8-0.254c-0.933-0.289-1.324-0.934-1.324-2.172
			c0-1.9,0.781-2.41,3.699-2.41c2.698,0,3.428,0.492,3.428,2.308H33.702z"/>
		<path fill="#FFFFFF" d="M43.208,75.414h-3.02v3.58c0,0.883,0.136,1.086,0.695,1.086c0.662,0,0.832-0.255,0.832-1.289
			c0-0.052,0-0.153-0.017-0.271h1.85v0.355c0,0.984-0.051,1.341-0.204,1.714c-0.356,0.865-1.069,1.171-2.766,1.171
			c-1.34,0-2.019-0.271-2.41-0.967c-0.187-0.322-0.237-0.662-0.237-1.408v-3.971H36.93v-1.663h1.001v-1.714h2.257v1.714h3.02V75.414
			z"/>
		<path fill="#FFFFFF" d="M51.932,79.079V79.3c0,0.61-0.152,1.171-0.424,1.544c-0.475,0.645-1.341,0.916-3.003,0.916
			c-1.748,0-2.647-0.221-3.241-0.78s-0.798-1.459-0.798-3.377c0-1.73,0.204-2.562,0.764-3.122c0.594-0.576,1.477-0.814,3.003-0.814
			c2.884,0,3.699,0.814,3.699,3.75v0.696h-5.209c-0.017,0.136-0.017,0.271-0.017,0.322c0,1.357,0.339,1.714,1.578,1.714
			c1.154,0,1.409-0.204,1.425-1.069H51.932z M49.743,76.806c-0.017-0.119-0.017-0.238-0.017-0.271
			c-0.017-1.035-0.254-1.222-1.51-1.222c-0.882,0-1.188,0.118-1.357,0.525c-0.085,0.204-0.102,0.34-0.119,0.968H49.743z"/>
		<path fill="#FFFFFF" d="M55.686,73.751l-0.051,1.222h0.034c0.355-0.899,1.068-1.307,2.324-1.307c1.477,0,2.273,0.526,2.375,1.527
			h0.034c0.322-1.052,1.069-1.527,2.427-1.527c1.068,0,1.917,0.356,2.308,0.95c0.237,0.374,0.356,0.95,0.356,1.782v5.276h-2.257
			v-4.632c0-1.222-0.255-1.578-1.171-1.578c-0.628,0-1.154,0.221-1.341,0.56c-0.085,0.188-0.152,0.561-0.152,1.002v4.648h-2.257
			v-4.784c0-0.561-0.034-0.832-0.119-1.002c-0.136-0.271-0.491-0.424-1.001-0.424c-1.068,0-1.51,0.458-1.51,1.578v4.632h-2.257
			v-7.924H55.686z"/>
		<path fill="#FFFFFF" d="M67.297,76.076c-0.018-1.935,0.679-2.41,3.428-2.41c2.104,0,3.037,0.34,3.478,1.239
			c0.153,0.288,0.271,1.035,0.271,1.611v5.158h-2.256l0.084-1.188h-0.051c-0.39,0.984-0.95,1.272-2.46,1.272
			c-2.07,0-2.816-0.661-2.816-2.494c0-1.73,0.814-2.427,2.867-2.427c1.527,0,2.002,0.204,2.342,0.95h0.034v-1.425
			c0-0.984-0.323-1.272-1.409-1.272c-0.983,0-1.188,0.17-1.238,0.984H67.297z M69.265,79.198c0,0.848,0.289,1.034,1.527,1.034
			c1.103,0,1.426-0.237,1.426-1.018c0-0.747-0.34-0.95-1.545-0.95C69.587,78.265,69.265,78.485,69.265,79.198z"/>
		<path fill="#FFFFFF" d="M80.807,75.974c-0.136-0.729-0.237-0.797-1.391-0.797c-0.73,0-0.95,0.033-1.138,0.152
			c-0.152,0.085-0.254,0.356-0.254,0.645c0,0.407,0.136,0.646,0.424,0.713c0.17,0.051,0.322,0.068,1.595,0.119
			c1.562,0.085,2.07,0.169,2.512,0.492c0.475,0.339,0.729,0.967,0.729,1.832c0,0.899-0.255,1.544-0.764,1.969
			c-0.61,0.491-1.408,0.661-3.122,0.661c-1.985,0-2.885-0.271-3.309-1.035c-0.237-0.373-0.306-0.746-0.306-1.544h2.325
			c-0.018,0.085-0.018,0.17-0.018,0.187c0,0.713,0.255,0.865,1.46,0.865c1.222,0,1.526-0.169,1.526-0.865
			c0-0.679-0.237-0.865-1.119-0.865c-1.493-0.017-2.257-0.085-2.8-0.254c-0.934-0.289-1.324-0.934-1.324-2.172
			c0-1.9,0.781-2.41,3.699-2.41c2.698,0,3.428,0.492,3.428,2.308H80.807z"/>
	</g>
	<g enable-background="new    ">
		<path fill="#FFFFFF" d="M27.863,96.262h-2.189l0.085-1.392h-0.051c-0.407,1.103-1.001,1.477-2.376,1.477
			c-1.069,0-1.849-0.238-2.324-0.713c-0.594-0.594-0.729-1.256-0.729-3.479c0-1.799,0.136-2.46,0.662-3.088
			c0.458-0.543,1.205-0.814,2.341-0.814c1.29,0,1.917,0.356,2.291,1.272h0.034v-4.581h2.257V96.262z M22.535,92.24
			c0,2.019,0.238,2.393,1.493,2.393c0.577,0,0.984-0.103,1.222-0.322c0.289-0.271,0.356-0.679,0.356-2.054
			c0-1.9-0.238-2.239-1.595-2.239C22.738,90.018,22.535,90.322,22.535,92.24z"/>
		<path fill="#FFFFFF" d="M36.809,93.665v0.221c0,0.611-0.153,1.171-0.424,1.544c-0.475,0.646-1.34,0.917-3.003,0.917
			c-1.748,0-2.647-0.221-3.241-0.781c-0.594-0.56-0.797-1.459-0.797-3.376c0-1.731,0.203-2.562,0.763-3.122
			c0.594-0.577,1.476-0.814,3.003-0.814c2.885,0,3.699,0.814,3.699,3.75v0.695h-5.209c-0.017,0.136-0.017,0.271-0.017,0.322
			c0,1.357,0.34,1.714,1.578,1.714c1.154,0,1.408-0.204,1.425-1.069H36.809z M34.62,91.392c-0.017-0.119-0.017-0.237-0.017-0.271
			c-0.017-1.035-0.254-1.222-1.51-1.222c-0.882,0-1.188,0.119-1.357,0.526c-0.084,0.203-0.102,0.339-0.119,0.967H34.62z"/>
		<path fill="#FFFFFF" d="M42.6,84.944h4.497c1.459,0,1.459,0,1.833,0.017c1.086,0.051,1.968,0.509,2.443,1.256
			c0.407,0.661,0.543,1.391,0.543,2.833c0,1.714-0.289,2.682-0.95,3.225c-0.492,0.407-1.12,0.645-1.799,0.661
			c-0.102,0.018-0.458,0.018-1.798,0.051h-2.155v3.275H42.6V84.944z M47.385,90.729c1.629,0,1.866-0.22,1.866-1.765
			c0-1.153-0.136-1.544-0.628-1.747c-0.271-0.102-0.39-0.119-1.12-0.119h-2.291v3.631H47.385z"/>
		<path fill="#FFFFFF" d="M53.106,90.662c-0.017-1.935,0.679-2.409,3.428-2.409c2.104,0,3.037,0.339,3.479,1.238
			c0.152,0.288,0.271,1.035,0.271,1.612v5.158h-2.257l0.085-1.188h-0.051c-0.391,0.984-0.95,1.273-2.46,1.273
			c-2.07,0-2.817-0.662-2.817-2.495c0-1.73,0.814-2.426,2.868-2.426c1.526,0,2.002,0.203,2.341,0.95h0.034V90.95
			c0-0.983-0.322-1.272-1.408-1.272c-0.984,0-1.188,0.17-1.238,0.984H53.106z M55.075,93.784c0,0.849,0.288,1.035,1.527,1.035
			c1.103,0,1.425-0.237,1.425-1.019c0-0.746-0.339-0.95-1.544-0.95C55.397,92.851,55.075,93.071,55.075,93.784z"/>
		<path fill="#FFFFFF" d="M69.298,96.244c0,2.749-0.882,3.547-3.971,3.547c-1.866,0-2.833-0.374-3.189-1.222
			c-0.136-0.322-0.17-0.628-0.204-1.544h2.172c0,0.916,0.204,1.086,1.341,1.086c1.205,0,1.595-0.323,1.595-1.307v-1.85h-0.033
			c-0.356,0.916-1.069,1.323-2.291,1.323c-1.086,0-2.02-0.356-2.478-0.95c-0.407-0.543-0.577-1.392-0.577-3.003
			c0-1.493,0.119-2.308,0.407-2.885c0.391-0.764,1.357-1.188,2.698-1.188c1.29,0,1.917,0.407,2.342,1.493h0.034l-0.103-1.408h2.257
			V96.244z M63.953,92.206c0,1.985,0.204,2.308,1.477,2.308c0.645,0,1.068-0.136,1.289-0.391c0.237-0.305,0.289-0.594,0.289-1.815
			c0-1.238-0.052-1.578-0.323-1.917c-0.22-0.271-0.56-0.373-1.204-0.373C64.14,90.018,63.953,90.289,63.953,92.206z"/>
		<path fill="#FFFFFF" d="M77.633,88.965c0.56,0.561,0.78,1.375,0.78,3.038c0,3.631-0.645,4.344-3.886,4.344
			c-1.883,0-2.851-0.34-3.342-1.138c-0.391-0.661-0.476-1.255-0.476-3.258c0-1.662,0.221-2.46,0.849-3.02
			c0.577-0.526,1.307-0.679,3.104-0.679C76.344,88.253,77.073,88.422,77.633,88.965z M73.001,92.206
			c0,2.087,0.203,2.427,1.544,2.427c1.374,0,1.578-0.34,1.578-2.546c0-1.781-0.238-2.12-1.544-2.12
			C73.238,89.967,73.001,90.289,73.001,92.206z"/>
	</g>
	<g>
		<g>
			<path fill="#FFFFFF" d="M73.804,58.401c-0.117,0-0.175,0-0.292,0c-1.575-0.117-2.567-1.225-2.859-1.575
				c-1.109-1.109-19.428-19.428-29.113-28.88c-0.058-0.058-0.058-0.058-0.117-0.117c-1.867-2.392-0.758-4.667,0.117-5.484
				C41.715,22.17,56.301,7.876,59.102,4.784c1.167-1.284,2.45-1.867,3.792-1.75c1.75,0.117,2.859,1.4,3.151,1.809l28.88,29.055
				c0.467,0.467,0.467,1.225,0,1.692c-0.467,0.467-1.225,0.467-1.692,0L64.294,6.476c-0.058-0.058-0.117-0.117-0.117-0.175
				c0,0-0.642-0.817-1.459-0.875c-0.583-0.058-1.167,0.292-1.867,0.992c-2.917,3.092-17.095,17.036-17.678,17.62
				c-0.175,0.233-0.817,1.05,0.058,2.275c9.977,9.743,28.938,28.705,29.113,28.88c0.058,0.058,0.058,0.117,0.117,0.117l0,0
				c0,0,0.525,0.642,1.225,0.7c0.525,0,1.05-0.233,1.634-0.875c2.684-2.684,11.435-11.902,11.494-12.019
				c0.467-0.467,1.225-0.525,1.692-0.058c0.467,0.467,0.525,1.225,0.058,1.692c-0.117,0.117-8.868,9.335-11.552,12.019
				C76.021,57.876,74.912,58.401,73.804,58.401z"/>
		</g>
		<g>
			<path fill="#FFFFFF" d="M74.212,51.809c-0.292,0-0.583-0.117-0.817-0.35L46.908,24.971c-0.467-0.467-0.467-1.225,0-1.692
				c0.467-0.467,1.225-0.467,1.692,0l26.488,26.488c0.467,0.467,0.467,1.225,0,1.692C74.854,51.692,74.504,51.809,74.212,51.809z"/>
		</g>
		<g>
			<path fill="#FFFFFF" d="M61.202,30.863c-0.292,0-0.583-0.117-0.817-0.35l-8.518-8.518c-0.233-0.233-0.35-0.525-0.35-0.817
				s0.117-0.642,0.35-0.817l6.709-6.709c0.467-0.467,1.225-0.467,1.692,0l8.518,8.518c0.233,0.233,0.35,0.525,0.35,0.817
				s-0.117,0.642-0.35,0.817l-6.709,6.709C61.902,30.747,61.61,30.863,61.202,30.863z M54.434,21.179l6.768,6.826l5.018-5.018
				l-6.768-6.826L54.434,21.179z"/>
		</g>
		<g>
			<path fill="#FFFFFF" d="M9.102,45.158c-0.35,0-0.642-0.117-0.933-0.408c-0.408-0.525-0.35-1.225,0.117-1.692
				c2.917-2.509,4.609-6.184,4.609-10.035s-1.692-7.526-4.609-10.035c-0.525-0.408-0.583-1.167-0.117-1.692
				c0.408-0.525,1.167-0.583,1.692-0.117c3.442,2.975,5.484,7.293,5.484,11.844S13.361,41.89,9.86,44.866
				C9.685,45.041,9.393,45.158,9.102,45.158z"/>
		</g>
		<g>
			<path fill="#FFFFFF" d="M16.278,51.809c-0.35,0-0.642-0.117-0.933-0.408c-0.408-0.525-0.35-1.225,0.117-1.692
				c5.018-4.317,7.935-10.56,7.935-17.153s-2.859-12.894-7.935-17.153c-0.525-0.408-0.583-1.167-0.117-1.692
				c0.408-0.525,1.167-0.583,1.692-0.117c5.543,4.726,8.751,11.669,8.751,18.961s-3.209,14.236-8.751,18.961
				C16.803,51.692,16.511,51.809,16.278,51.809z"/>
		</g>
		<g>
			<path fill="#FFFFFF" d="M22.929,60.852c-0.35,0-0.642-0.117-0.933-0.408c-0.408-0.525-0.35-1.225,0.117-1.692
				c7.76-6.534,12.135-16.103,12.135-26.196S29.872,12.894,22.17,6.359c-0.525-0.408-0.583-1.167-0.117-1.692
				c0.408-0.525,1.167-0.583,1.692-0.117c8.226,7.001,12.894,17.211,12.894,28.005S31.914,53.559,23.746,60.56
				C23.454,60.735,23.221,60.852,22.929,60.852z"/>
		</g>
	</g>
</g>
</svg>
