<?xml version="1.0" encoding="utf-8"?>
<!-- Generator: Adobe Illustrator 17.0.0, SVG Export Plug-In . SVG Version: 6.00 Build 0)  -->
<!DOCTYPE svg PUBLIC "-//W3C//DTD SVG 1.1//EN" "http://www.w3.org/Graphics/SVG/1.1/DTD/svg11.dtd">
<svg version="1.1" id="Capa_1" xmlns="http://www.w3.org/2000/svg" xmlns:xlink="http://www.w3.org/1999/xlink" x="0px" y="0px"
	 width="100px" height="100px" viewBox="0 0 100 100" enable-background="new 0 0 100 100" xml:space="preserve">
<g>
	<g>
		<path fill="#FFFFFF" d="M11.143,68.426c0-1.29-0.255-1.495-1.85-1.495c-1.765,0-2.138,0.238-2.138,1.324
			c0,0.696,0.203,1.019,0.712,1.155c0.238,0.05,0.238,0.05,2.071,0.169c1.816,0.102,2.444,0.238,3.021,0.611
			c0.73,0.475,0.984,1.138,0.984,2.631c0,1.46-0.203,2.224-0.747,2.733c-0.713,0.661-1.613,0.849-3.887,0.849
			c-2.767,0-3.751-0.271-4.311-1.172c-0.357-0.542-0.475-1.137-0.475-2.546h2.495v0.204c0,0.611,0.102,0.951,0.357,1.188
			c0.272,0.221,0.51,0.254,2.054,0.254c1.035,0,1.29-0.052,1.578-0.271c0.238-0.187,0.357-0.544,0.357-1.138
			c0-0.492-0.085-0.797-0.305-0.951c-0.271-0.221-0.271-0.221-2.325-0.357c-1.85-0.119-2.377-0.203-2.953-0.492
			c-0.883-0.44-1.239-1.272-1.239-2.886c0-1.358,0.289-2.189,0.916-2.648c0.731-0.509,1.647-0.678,3.752-0.678
			c2.308,0,3.241,0.221,3.819,0.899c0.424,0.509,0.628,1.188,0.628,2.156c0,0.069,0,0.271-0.017,0.459H11.143z"/>
		<path fill="#FFFFFF" d="M17.543,66.78h-2.257v-1.783h2.257V66.78z M17.543,76.319h-2.257v-7.926h2.257V76.319z"/>
		<path fill="#FFFFFF" d="M23.994,70.616c-0.136-0.73-0.238-0.798-1.392-0.798c-0.73,0-0.951,0.035-1.137,0.154
			c-0.152,0.084-0.254,0.357-0.254,0.645c0,0.407,0.136,0.645,0.424,0.713c0.17,0.05,0.322,0.067,1.595,0.119
			c1.562,0.085,2.071,0.169,2.512,0.492c0.475,0.34,0.73,0.967,0.73,1.833c0,0.9-0.254,1.545-0.764,1.969
			c-0.611,0.494-1.409,0.663-3.123,0.663c-1.986,0-2.886-0.271-3.31-1.036c-0.238-0.373-0.305-0.747-0.305-1.543h2.325
			c-0.017,0.084-0.017,0.169-0.017,0.186c0,0.713,0.254,0.865,1.46,0.865c1.222,0,1.527-0.169,1.527-0.865
			c0-0.678-0.237-0.865-1.12-0.865c-1.494-0.017-2.257-0.085-2.801-0.254c-0.933-0.289-1.323-0.934-1.323-2.173
			c0-1.901,0.781-2.41,3.7-2.41c2.699,0,3.429,0.492,3.429,2.308H23.994z"/>
		<path fill="#FFFFFF" d="M33.5,70.055h-3.021v3.582c0,0.882,0.136,1.086,0.696,1.086c0.662,0,0.832-0.254,0.832-1.29
			c0-0.05,0-0.152-0.017-0.271h1.85v0.357c0,0.984-0.051,1.341-0.203,1.714c-0.357,0.865-1.07,1.172-2.767,1.172
			c-1.341,0-2.02-0.271-2.41-0.967c-0.187-0.323-0.238-0.663-0.238-1.409v-3.972H27.22v-1.662h1.001v-1.715h2.258v1.715H33.5V70.055
			z"/>
		<path fill="#FFFFFF" d="M42.225,73.722v0.221c0,0.611-0.152,1.17-0.424,1.543c-0.475,0.646-1.341,0.917-3.004,0.917
			c-1.748,0-2.647-0.221-3.241-0.782c-0.594-0.559-0.798-1.46-0.798-3.376c0-1.732,0.203-2.564,0.763-3.123
			c0.594-0.577,1.477-0.815,3.004-0.815c2.886,0,3.7,0.815,3.7,3.751v0.696h-5.211c-0.017,0.136-0.017,0.271-0.017,0.322
			c0,1.359,0.339,1.715,1.578,1.715c1.154,0,1.409-0.204,1.425-1.07H42.225z M40.035,71.448c-0.017-0.119-0.017-0.238-0.017-0.271
			c-0.017-1.036-0.254-1.222-1.511-1.222c-0.883,0-1.188,0.119-1.358,0.526c-0.085,0.204-0.101,0.34-0.119,0.967H40.035z"/>
		<path fill="#FFFFFF" d="M45.977,68.393l-0.051,1.222h0.034c0.357-0.9,1.07-1.307,2.326-1.307c1.476,0,2.274,0.526,2.376,1.528
			h0.034c0.323-1.053,1.07-1.528,2.428-1.528c1.069,0,1.917,0.357,2.308,0.951c0.238,0.373,0.357,0.951,0.357,1.783v5.278H53.53
			v-4.633c0-1.222-0.254-1.578-1.171-1.578c-0.628,0-1.154,0.221-1.341,0.559c-0.085,0.187-0.153,0.561-0.153,1.002v4.65h-2.257
			v-4.786c0-0.561-0.034-0.832-0.119-1.002c-0.136-0.271-0.492-0.424-1.002-0.424c-1.069,0-1.511,0.459-1.511,1.578v4.633h-2.257
			v-7.926H45.977z"/>
		<path fill="#FFFFFF" d="M57.588,70.718c-0.017-1.935,0.679-2.41,3.429-2.41c2.105,0,3.039,0.34,3.48,1.239
			c0.152,0.289,0.271,1.036,0.271,1.613v5.159h-2.257l0.085-1.188h-0.05c-0.391,0.986-0.951,1.274-2.461,1.274
			c-2.071,0-2.818-0.663-2.818-2.496c0-1.731,0.815-2.427,2.869-2.427c1.527,0,2.003,0.204,2.342,0.951h0.034v-1.426
			c0-0.984-0.322-1.272-1.409-1.272c-0.985,0-1.188,0.169-1.239,0.984H57.588z M59.558,73.841c0,0.849,0.289,1.035,1.527,1.035
			c1.104,0,1.426-0.238,1.426-1.018c0-0.747-0.34-0.951-1.545-0.951C59.88,72.907,59.558,73.128,59.558,73.841z"/>
		<path fill="#FFFFFF" d="M71.101,70.616c-0.136-0.73-0.238-0.798-1.392-0.798c-0.73,0-0.951,0.035-1.137,0.154
			c-0.152,0.084-0.254,0.357-0.254,0.645c0,0.407,0.136,0.645,0.424,0.713c0.17,0.05,0.322,0.067,1.595,0.119
			c1.562,0.085,2.071,0.169,2.512,0.492c0.475,0.34,0.73,0.967,0.73,1.833c0,0.9-0.254,1.545-0.764,1.969
			c-0.611,0.494-1.409,0.663-3.123,0.663c-1.986,0-2.886-0.271-3.31-1.036c-0.238-0.373-0.305-0.747-0.305-1.543h2.325
			c-0.017,0.084-0.017,0.169-0.017,0.186c0,0.713,0.254,0.865,1.46,0.865c1.222,0,1.527-0.169,1.527-0.865
			c0-0.678-0.237-0.865-1.12-0.865c-1.494-0.017-2.257-0.085-2.801-0.254c-0.933-0.289-1.323-0.934-1.323-2.173
			c0-1.901,0.781-2.41,3.7-2.41c2.699,0,3.429,0.492,3.429,2.308H71.101z"/>
		<path fill="#FFFFFF" d="M86.532,76.319h-2.189l0.084-1.391h-0.05c-0.407,1.103-1.001,1.476-2.377,1.476
			c-1.07,0-1.85-0.238-2.325-0.713c-0.594-0.594-0.73-1.255-0.73-3.48c0-1.799,0.136-2.461,0.663-3.088
			c0.457-0.544,1.204-0.815,2.342-0.815c1.29,0,1.918,0.357,2.291,1.272h0.034v-4.583h2.258V76.319z M81.203,72.296
			c0,2.02,0.238,2.394,1.493,2.394c0.577,0,0.984-0.102,1.222-0.323c0.289-0.271,0.357-0.679,0.357-2.054
			c0-1.901-0.238-2.24-1.595-2.24C81.406,70.073,81.203,70.378,81.203,72.296z"/>
		<path fill="#FFFFFF" d="M95.477,73.722v0.221c0,0.611-0.152,1.17-0.424,1.543c-0.475,0.646-1.341,0.917-3.004,0.917
			c-1.748,0-2.648-0.221-3.242-0.782c-0.594-0.559-0.797-1.46-0.797-3.376c0-1.732,0.203-2.564,0.763-3.123
			c0.594-0.577,1.476-0.815,3.004-0.815c2.886,0,3.699,0.815,3.699,3.751v0.696h-5.211c-0.017,0.136-0.017,0.271-0.017,0.322
			c0,1.359,0.34,1.715,1.578,1.715c1.155,0,1.409-0.204,1.426-1.07H95.477z M93.288,71.448c-0.017-0.119-0.017-0.238-0.017-0.271
			c-0.017-1.036-0.254-1.222-1.51-1.222c-0.884,0-1.188,0.119-1.359,0.526c-0.084,0.204-0.101,0.34-0.119,0.967H93.288z"/>
	</g>
	<g>
		<path fill="#FFFFFF" d="M27.779,79.313h4.498c1.46,0,1.46,0,1.833,0.018c1.086,0.05,1.969,0.509,2.444,1.255
			c0.408,0.661,0.544,1.392,0.544,2.834c0,1.715-0.289,2.683-0.951,3.225c-0.492,0.408-1.12,0.646-1.799,0.663
			c-0.102,0.017-0.459,0.017-1.799,0.05h-2.156v3.276h-2.613V79.313z M32.564,85.101c1.63,0,1.868-0.22,1.868-1.764
			c0-1.155-0.136-1.545-0.628-1.749c-0.273-0.102-0.391-0.119-1.121-0.119h-2.291v3.632H32.564z"/>
		<path fill="#FFFFFF" d="M38.287,85.034c-0.017-1.935,0.679-2.41,3.428-2.41c2.106,0,3.039,0.34,3.48,1.239
			c0.152,0.289,0.271,1.036,0.271,1.613v5.159h-2.257l0.084-1.188h-0.05c-0.39,0.986-0.951,1.274-2.461,1.274
			c-2.072,0-2.819-0.663-2.819-2.496c0-1.731,0.815-2.427,2.869-2.427c1.528,0,2.003,0.204,2.342,0.951h0.035v-1.426
			c0-0.984-0.323-1.272-1.409-1.272c-0.984,0-1.188,0.169-1.239,0.984H38.287z M40.255,88.158c0,0.849,0.289,1.035,1.528,1.035
			c1.103,0,1.426-0.238,1.426-1.018c0-0.747-0.34-0.951-1.545-0.951C40.578,87.224,40.255,87.445,40.255,88.158z"/>
		<path fill="#FFFFFF" d="M54.481,90.618c0,2.75-0.882,3.548-3.972,3.548c-1.866,0-2.834-0.375-3.19-1.223
			c-0.137-0.322-0.171-0.628-0.204-1.543h2.173c0,0.916,0.204,1.086,1.341,1.086c1.205,0,1.595-0.323,1.595-1.307v-1.851h-0.034
			c-0.357,0.917-1.07,1.324-2.291,1.324c-1.086,0-2.02-0.357-2.479-0.949c-0.407-0.544-0.576-1.392-0.576-3.004
			c0-1.495,0.119-2.308,0.407-2.886c0.39-0.765,1.358-1.188,2.698-1.188c1.29,0,1.918,0.407,2.343,1.493h0.034l-0.102-1.408h2.258
			V90.618z M49.135,86.579c0,1.985,0.203,2.308,1.476,2.308c0.645,0,1.07-0.136,1.29-0.39c0.238-0.306,0.288-0.594,0.288-1.818
			c0-1.239-0.05-1.578-0.323-1.917c-0.221-0.273-0.559-0.373-1.205-0.373C49.321,84.39,49.135,84.661,49.135,86.579z"/>
		<path fill="#FFFFFF" d="M62.816,83.337c0.561,0.559,0.78,1.374,0.78,3.038c0,3.632-0.645,4.345-3.887,4.345
			c-1.883,0-2.851-0.34-3.344-1.137c-0.39-0.663-0.474-1.257-0.474-3.259c0-1.664,0.219-2.462,0.849-3.021
			c0.576-0.527,1.306-0.679,3.105-0.679C61.526,82.624,62.256,82.793,62.816,83.337z M58.183,86.579
			c0,2.087,0.203,2.427,1.543,2.427c1.376,0,1.578-0.34,1.578-2.546c0-1.783-0.238-2.122-1.543-2.122
			C58.419,84.338,58.183,84.661,58.183,86.579z"/>
		<path fill="#FFFFFF" d="M69.742,84.932c-0.136-0.73-0.238-0.798-1.391-0.798c-0.73,0-0.951,0.035-1.138,0.154
			c-0.152,0.084-0.254,0.357-0.254,0.645c0,0.407,0.136,0.645,0.425,0.713c0.169,0.05,0.322,0.067,1.595,0.119
			c1.562,0.085,2.071,0.169,2.512,0.492c0.475,0.34,0.73,0.967,0.73,1.833c0,0.9-0.254,1.545-0.765,1.969
			c-0.611,0.494-1.408,0.663-3.122,0.663c-1.987,0-2.886-0.271-3.311-1.036c-0.238-0.373-0.305-0.747-0.305-1.543h2.325
			c-0.017,0.084-0.017,0.169-0.017,0.186c0,0.713,0.254,0.865,1.46,0.865c1.222,0,1.527-0.169,1.527-0.865
			c0-0.678-0.236-0.865-1.12-0.865c-1.493-0.017-2.258-0.085-2.8-0.254c-0.934-0.289-1.324-0.934-1.324-2.173
			c0-1.901,0.78-2.41,3.701-2.41c2.698,0,3.428,0.492,3.428,2.308H69.742z"/>
	</g>
</g>
<g>
	<g>
		<path fill="#FFFFFF" d="M69.019,53.176c-0.094,0-0.183-0.003-0.268-0.01c-1.516-0.114-2.501-1.143-2.814-1.52
			c-1.096-1.096-16.345-16.335-24.409-24.197c-0.054-0.053-0.104-0.109-0.15-0.169c-1.823-2.36-0.709-4.58,0.136-5.424
			c0.135-0.133,12.384-12.133,14.788-14.704c1.392-1.487,2.744-1.724,3.637-1.668c1.658,0.113,2.737,1.287,3.071,1.705
			l24.202,24.371c0.626,0.63,0.622,1.648-0.008,2.274c-0.629,0.626-1.648,0.621-2.273-0.008L60.657,9.385
			c-0.062-0.063-0.119-0.13-0.171-0.203c-0.107-0.14-0.457-0.473-0.771-0.489C59.402,8.67,59.053,8.92,58.65,9.35
			c-2.452,2.621-14.369,14.296-14.875,14.792c-0.352,0.403-0.081,0.862,0.084,1.09c8.365,8.157,24.252,24.043,24.413,24.203
			c0.058,0.058,0.11,0.118,0.158,0.184c0.073,0.09,0.338,0.329,0.573,0.342c0.228,0.01,0.547-0.181,0.893-0.526
			c2.203-2.204,9.554-9.972,9.627-10.05c0.611-0.646,1.629-0.672,2.273-0.063c0.645,0.61,0.673,1.628,0.063,2.273
			c-0.304,0.32-7.454,7.877-9.69,10.114C70.984,52.893,69.841,53.176,69.019,53.176z"/>
	</g>
	<g>
		<path fill="#FFFFFF" d="M69.422,47.688c-0.411,0-0.823-0.157-1.137-0.471l-22.24-22.239c-0.628-0.627-0.628-1.645,0-2.273
			c0.628-0.628,1.645-0.628,2.273,0l22.24,22.239c0.628,0.628,0.628,1.645,0,2.273C70.245,47.531,69.834,47.688,69.422,47.688z"/>
	</g>
	<g>
		<path fill="#FFFFFF" d="M58.794,30.153c-0.411,0-0.823-0.157-1.137-0.471l-7.159-7.159c-0.301-0.301-0.471-0.71-0.471-1.137
			c0-0.427,0.17-0.835,0.471-1.137l5.632-5.631c0.628-0.628,1.645-0.628,2.273,0l7.159,7.159c0.301,0.301,0.471,0.71,0.471,1.137
			c0,0.427-0.17,0.835-0.471,1.137l-5.632,5.631C59.616,29.996,59.205,30.153,58.794,30.153z M53.908,21.387l4.886,4.886
			l3.359-3.358l-4.886-4.886L53.908,21.387z"/>
	</g>
	<g>
		<g>
			<path fill="#FFFFFF" d="M13.93,42.097c-0.453,0-0.903-0.19-1.221-0.561c-0.578-0.674-0.5-1.689,0.174-2.267
				c2.329-1.996,3.664-4.895,3.664-7.951c-0.001-3.057-1.336-5.955-3.664-7.951c-0.674-0.578-0.753-1.592-0.174-2.266
				c0.578-0.675,1.593-0.752,2.266-0.174c3.042,2.607,4.787,6.395,4.787,10.391c0,3.997-1.745,7.785-4.787,10.392
				C14.672,41.969,14.3,42.097,13.93,42.097z"/>
		</g>
	</g>
	<g>
		<g>
			<path fill="#FFFFFF" d="M19.944,47.688c-0.454,0-0.905-0.192-1.222-0.563c-0.577-0.675-0.498-1.69,0.177-2.267
				c4.084-3.489,6.427-8.571,6.427-13.943c0-5.371-2.342-10.453-6.427-13.944c-0.675-0.577-0.755-1.591-0.177-2.266
				c0.577-0.676,1.592-0.753,2.266-0.177c4.8,4.102,7.553,10.075,7.553,16.388c0,6.312-2.753,12.285-7.553,16.387
				C20.686,47.561,20.314,47.688,19.944,47.688z"/>
		</g>
	</g>
	<g>
		<g>
			<path fill="#FFFFFF" d="M25.494,55.271c-0.454,0-0.905-0.192-1.222-0.563c-0.577-0.675-0.498-1.69,0.177-2.267
				c6.305-5.388,9.922-13.234,9.922-21.526s-3.617-16.137-9.922-21.525c-0.675-0.577-0.755-1.591-0.177-2.266
				c0.576-0.676,1.591-0.756,2.266-0.177c7.021,5.999,11.048,14.736,11.048,23.969s-4.027,17.971-11.048,23.971
				C26.235,55.144,25.864,55.271,25.494,55.271z"/>
		</g>
	</g>
</g>
</svg>
