<?xml version="1.0" encoding="utf-8"?>
<!-- Generator: Adobe Illustrator 17.0.0, SVG Export Plug-In . SVG Version: 6.00 Build 0)  -->
<!DOCTYPE svg PUBLIC "-//W3C//DTD SVG 1.1//EN" "http://www.w3.org/Graphics/SVG/1.1/DTD/svg11.dtd">
<svg version="1.1" id="Capa_1" xmlns="http://www.w3.org/2000/svg" xmlns:xlink="http://www.w3.org/1999/xlink" x="0px" y="0px"
	 width="100px" height="100px" viewBox="0 0 100 100" enable-background="new 0 0 100 100" xml:space="preserve">
<g>
	<g enable-background="new    ">
		<path fill="#FFFFFF" d="M15.783,69.062h5.302c2.815,0,3.988,1.205,3.988,4.113c0,2.987-0.078,3.863-0.407,4.583
			c-0.579,1.22-1.642,1.736-3.628,1.736h-5.255V69.062z M20.725,77.431c0.829,0,1.251-0.172,1.533-0.61
			c0.281-0.438,0.359-1.017,0.359-2.628c0-1.501-0.078-2.096-0.344-2.486c-0.25-0.391-0.673-0.548-1.486-0.548h-2.596v6.272H20.725z
			"/>
		<path fill="#FFFFFF" d="M33.02,77.102v0.204c0,0.562-0.141,1.079-0.391,1.423c-0.438,0.595-1.235,0.845-2.768,0.845
			c-1.611,0-2.44-0.203-2.987-0.72c-0.548-0.516-0.735-1.345-0.735-3.112c0-1.596,0.188-2.361,0.704-2.878
			c0.548-0.531,1.361-0.751,2.769-0.751c2.659,0,3.41,0.751,3.41,3.457v0.641h-4.802c-0.016,0.126-0.016,0.251-0.016,0.298
			c0,1.251,0.313,1.579,1.455,1.579c1.063,0,1.298-0.188,1.314-0.985H33.02z M31.002,75.006c-0.016-0.109-0.016-0.219-0.016-0.25
			c-0.016-0.954-0.235-1.126-1.392-1.126c-0.813,0-1.095,0.109-1.251,0.484c-0.078,0.188-0.094,0.313-0.109,0.892H31.002z"/>
		<path fill="#FFFFFF" d="M38.682,74.239c-0.125-0.672-0.219-0.734-1.282-0.734c-0.673,0-0.876,0.031-1.048,0.141
			c-0.141,0.078-0.235,0.328-0.235,0.594c0,0.376,0.125,0.595,0.391,0.657c0.156,0.047,0.297,0.062,1.47,0.109
			c1.439,0.078,1.908,0.156,2.314,0.454c0.438,0.312,0.673,0.892,0.673,1.688c0,0.829-0.235,1.424-0.704,1.814
			c-0.563,0.454-1.298,0.61-2.877,0.61c-1.83,0-2.659-0.25-3.05-0.954c-0.219-0.344-0.282-0.688-0.282-1.424h2.143
			c-0.016,0.079-0.016,0.157-0.016,0.173c0,0.656,0.235,0.797,1.345,0.797c1.126,0,1.408-0.156,1.408-0.797
			c0-0.626-0.219-0.798-1.032-0.798c-1.376-0.016-2.08-0.078-2.581-0.234c-0.86-0.267-1.22-0.86-1.22-2.002
			c0-1.752,0.72-2.222,3.41-2.222c2.487,0,3.159,0.454,3.159,2.127H38.682z"/>
		<path fill="#FFFFFF" d="M42.327,74.334c-0.016-1.783,0.625-2.222,3.159-2.222c1.939,0,2.8,0.313,3.206,1.143
			c0.141,0.266,0.25,0.953,0.25,1.485v4.755h-2.08l0.078-1.095h-0.047c-0.36,0.907-0.876,1.173-2.268,1.173
			c-1.908,0-2.596-0.61-2.596-2.299c0-1.596,0.751-2.237,2.643-2.237c1.408,0,1.846,0.188,2.159,0.876h0.031V74.6
			c0-0.907-0.297-1.173-1.298-1.173c-0.907,0-1.095,0.156-1.142,0.907H42.327z M44.141,77.211c0,0.782,0.266,0.954,1.408,0.954
			c1.017,0,1.314-0.219,1.314-0.938c0-0.688-0.313-0.875-1.423-0.875C44.438,76.352,44.141,76.555,44.141,77.211z"/>
		<path fill="#FFFFFF" d="M52.651,72.19l-0.109,1.111h0.031c0.469-0.907,0.954-1.205,1.923-1.205c0.954,0,1.533,0.376,1.768,1.158
			c0.109,0.375,0.125,0.609,0.125,1.954H54.48v-0.188v-0.109c0-0.954-0.156-1.204-0.766-1.204c-0.47,0-0.813,0.219-0.97,0.626
			c-0.078,0.219-0.094,0.344-0.094,0.906v4.255h-2.08V72.19H52.651z"/>
		<path fill="#FFFFFF" d="M59.471,72.19l-0.109,1.111h0.031c0.47-0.907,0.954-1.205,1.924-1.205c0.954,0,1.533,0.376,1.768,1.158
			c0.109,0.375,0.125,0.609,0.125,1.954h-1.908v-0.188v-0.109c0-0.954-0.156-1.204-0.767-1.204c-0.469,0-0.813,0.219-0.97,0.626
			c-0.078,0.219-0.094,0.344-0.094,0.906v4.255h-2.08V72.19H59.471z"/>
		<path fill="#FFFFFF" d="M70.436,72.77c0.517,0.517,0.72,1.267,0.72,2.8c0,3.347-0.595,4.004-3.582,4.004
			c-1.735,0-2.627-0.312-3.081-1.048c-0.359-0.61-0.438-1.157-0.438-3.003c0-1.533,0.203-2.268,0.782-2.784
			c0.531-0.484,1.204-0.626,2.861-0.626C69.247,72.112,69.92,72.27,70.436,72.77z M66.166,75.757c0,1.924,0.188,2.236,1.423,2.236
			c1.268,0,1.455-0.312,1.455-2.346c0-1.643-0.219-1.955-1.424-1.955C66.385,73.692,66.166,73.989,66.166,75.757z"/>
		<path fill="#FFFFFF" d="M74.612,79.495h-2.08V69.062h2.08V79.495z"/>
		<path fill="#FFFFFF" d="M78.351,79.495h-2.08V69.062h2.08V79.495z"/>
		<path fill="#FFFFFF" d="M86.094,72.77c0.516,0.517,0.719,1.267,0.719,2.8c0,3.347-0.594,4.004-3.581,4.004
			c-1.736,0-2.628-0.312-3.081-1.048c-0.36-0.61-0.438-1.157-0.438-3.003c0-1.533,0.203-2.268,0.782-2.784
			c0.532-0.484,1.204-0.626,2.862-0.626C84.904,72.112,85.577,72.27,86.094,72.77z M81.823,75.757c0,1.924,0.188,2.236,1.424,2.236
			c1.267,0,1.454-0.312,1.454-2.346c0-1.643-0.219-1.955-1.423-1.955C82.043,73.692,81.823,73.989,81.823,75.757z"/>
	</g>
	<g enable-background="new    ">
		<path fill="#FFFFFF" d="M11.511,92.936H9.494l0.078-1.283H9.525c-0.375,1.017-0.923,1.361-2.189,1.361
			c-0.985,0-1.705-0.219-2.143-0.657C4.645,91.81,4.52,91.199,4.52,89.15c0-1.658,0.125-2.268,0.61-2.847
			c0.422-0.5,1.11-0.751,2.159-0.751c1.188,0,1.767,0.329,2.111,1.174h0.031v-4.224h2.08V92.936z M6.6,89.229
			c0,1.861,0.219,2.205,1.376,2.205c0.532,0,0.907-0.094,1.126-0.297c0.266-0.25,0.329-0.626,0.329-1.893
			c0-1.752-0.219-2.064-1.47-2.064C6.788,87.18,6.6,87.461,6.6,89.229z"/>
		<path fill="#FFFFFF" d="M19.755,90.542v0.204c0,0.562-0.141,1.079-0.391,1.423c-0.438,0.595-1.235,0.845-2.768,0.845
			c-1.611,0-2.44-0.203-2.987-0.72c-0.548-0.516-0.735-1.345-0.735-3.112c0-1.596,0.188-2.361,0.704-2.878
			c0.548-0.531,1.361-0.751,2.769-0.751c2.659,0,3.41,0.751,3.41,3.457v0.641h-4.802c-0.016,0.126-0.016,0.251-0.016,0.298
			c0,1.251,0.313,1.579,1.455,1.579c1.063,0,1.298-0.188,1.314-0.985H19.755z M17.737,88.446c-0.016-0.109-0.016-0.219-0.016-0.25
			c-0.016-0.954-0.235-1.126-1.392-1.126c-0.813,0-1.095,0.109-1.251,0.484c-0.078,0.188-0.094,0.313-0.109,0.892H17.737z"/>
		<path fill="#FFFFFF" d="M29.531,92.936h-2.409v-8.353h-2.815v-2.08h8.18v2.08h-2.956V92.936z"/>
		<path fill="#FFFFFF" d="M38.838,90.542v0.204c0,0.562-0.141,1.079-0.391,1.423c-0.438,0.595-1.235,0.845-2.769,0.845
			c-1.611,0-2.439-0.203-2.987-0.72c-0.548-0.516-0.735-1.345-0.735-3.112c0-1.596,0.188-2.361,0.704-2.878
			c0.548-0.531,1.361-0.751,2.769-0.751c2.659,0,3.41,0.751,3.41,3.457v0.641h-4.802c-0.016,0.126-0.016,0.251-0.016,0.298
			c0,1.251,0.313,1.579,1.455,1.579c1.063,0,1.298-0.188,1.314-0.985H38.838z M36.821,88.446c-0.016-0.109-0.016-0.219-0.016-0.25
			c-0.016-0.954-0.235-1.126-1.392-1.126c-0.813,0-1.095,0.109-1.251,0.484c-0.078,0.188-0.094,0.313-0.109,0.892H36.821z"/>
		<path fill="#FFFFFF" d="M46.737,90.073c0,1.126-0.078,1.579-0.36,2.018c-0.438,0.704-1.095,0.923-2.769,0.923
			c-1.548,0-2.314-0.172-2.877-0.673c-0.61-0.531-0.813-1.298-0.813-3.065c0-1.548,0.156-2.283,0.594-2.831
			c0.485-0.609,1.361-0.892,2.784-0.892c2.643,0,3.347,0.579,3.347,2.737h-2.018c-0.016-0.923-0.234-1.142-1.188-1.142
			c-1.267,0-1.408,0.219-1.408,2.143c0,1.861,0.172,2.127,1.408,2.127c1.079,0,1.251-0.188,1.251-1.345H46.737z"/>
		<path fill="#FFFFFF" d="M50.007,85.631l-0.078,1.33h0.047c0.359-1.001,1.001-1.408,2.206-1.408c1.142,0,1.924,0.329,2.283,0.954
			c0.188,0.345,0.25,0.673,0.25,1.361v5.067h-2.08v-4.286c0-1.204-0.188-1.454-1.095-1.454c-1.032,0-1.517,0.453-1.517,1.438v4.302
			h-2.096v-7.305H50.007z"/>
		<path fill="#FFFFFF" d="M62.427,86.21c0.517,0.517,0.72,1.267,0.72,2.8c0,3.347-0.595,4.004-3.582,4.004
			c-1.735,0-2.627-0.312-3.081-1.048c-0.359-0.61-0.438-1.157-0.438-3.003c0-1.533,0.203-2.268,0.782-2.784
			c0.531-0.484,1.204-0.626,2.861-0.626C61.238,85.553,61.911,85.71,62.427,86.21z M58.157,89.197c0,1.924,0.188,2.236,1.423,2.236
			c1.268,0,1.455-0.312,1.455-2.346c0-1.643-0.219-1.955-1.424-1.955C58.376,87.133,58.157,87.43,58.157,89.197z"/>
		<path fill="#FFFFFF" d="M66.604,92.936h-2.08V82.503h2.08V92.936z"/>
		<path fill="#FFFFFF" d="M74.347,86.21c0.516,0.517,0.719,1.267,0.719,2.8c0,3.347-0.594,4.004-3.581,4.004
			c-1.736,0-2.628-0.312-3.081-1.048c-0.36-0.61-0.438-1.157-0.438-3.003c0-1.533,0.203-2.268,0.782-2.784
			c0.532-0.484,1.204-0.626,2.862-0.626C73.157,85.553,73.83,85.71,74.347,86.21z M70.076,89.197c0,1.924,0.188,2.236,1.424,2.236
			c1.267,0,1.454-0.312,1.454-2.346c0-1.643-0.219-1.955-1.423-1.955C70.296,87.133,70.076,87.43,70.076,89.197z"/>
		<path fill="#FFFFFF" d="M83.184,92.92c0,2.533-0.812,3.269-3.659,3.269c-1.721,0-2.612-0.344-2.94-1.126
			c-0.125-0.297-0.156-0.579-0.188-1.424h2.002c0,0.845,0.188,1.001,1.235,1.001c1.11,0,1.47-0.297,1.47-1.204v-1.704h-0.031
			c-0.328,0.844-0.985,1.22-2.111,1.22c-1.001,0-1.861-0.329-2.283-0.876c-0.376-0.501-0.532-1.282-0.532-2.769
			c0-1.376,0.109-2.127,0.376-2.659c0.359-0.703,1.251-1.095,2.486-1.095c1.188,0,1.768,0.376,2.158,1.377h0.031l-0.094-1.299h2.08
			V92.92z M78.257,89.197c0,1.83,0.188,2.127,1.361,2.127c0.594,0,0.985-0.125,1.188-0.359c0.219-0.282,0.266-0.548,0.266-1.674
			c0-1.142-0.047-1.454-0.297-1.768c-0.203-0.25-0.517-0.344-1.11-0.344C78.43,87.18,78.257,87.43,78.257,89.197z"/>
		<path fill="#FFFFFF" d="M88.236,83.817l-3.237,1.188l-0.422-0.876l2.925-1.814L88.236,83.817z M86.907,92.936h-2.08v-7.305h2.08
			V92.936z"/>
		<path fill="#FFFFFF" d="M88.597,87.774c-0.016-1.783,0.626-2.222,3.159-2.222c1.939,0,2.8,0.313,3.206,1.143
			c0.142,0.266,0.251,0.953,0.251,1.485v4.755h-2.08l0.078-1.095h-0.047c-0.36,0.907-0.876,1.173-2.269,1.173
			c-1.908,0-2.596-0.61-2.596-2.299c0-1.596,0.751-2.237,2.643-2.237c1.408,0,1.846,0.188,2.159,0.876h0.031V88.04
			c0-0.907-0.298-1.173-1.299-1.173c-0.907,0-1.095,0.156-1.142,0.907H88.597z M90.411,90.651c0,0.782,0.266,0.954,1.407,0.954
			c1.017,0,1.314-0.219,1.314-0.938c0-0.688-0.313-0.875-1.424-0.875C90.708,89.792,90.411,89.995,90.411,90.651z"/>
	</g>
	<g id="gear_2_4_">
		<path fill="#FFFFFF" d="M63.011,39.731c1.022-0.43,2.097-0.538,3.118-0.323l1.882,0.753l0,0l0,0l0,0l0,0l2.688-6.667l0,0l0,0
			c-0.054,0-0.054,0-0.108,0l-1.72-0.699c-2.151-1.344-3.118-4.086-2.151-6.559c0.43-1.022,1.129-1.882,1.989-2.419l1.882-0.806l0,0
			l0,0l0,0l-2.742-6.559l0,0l0,0l0,0l0,0c-0.054,0-0.054,0.054-0.108,0.054l-1.72,0.699c-2.473,0.591-5.108-0.699-6.129-3.118
			c-0.43-1.022-0.538-2.097-0.323-3.118l0.753-1.882l0,0l0,0l0,0l0,0l-6.667-2.688l0,0l0,0c0,0.054,0,0.054,0,0.108l-0.699,1.72
			c-1.344,2.151-4.086,3.118-6.559,2.151c-1.022-0.43-1.882-1.129-2.419-1.989l-0.806-1.935l0,0l0,0l0,0l-6.613,2.796l0,0l0,0l0,0
			l0,0c0,0.054,0.054,0.054,0.054,0.108l0.699,1.72c0.591,2.473-0.699,5.108-3.118,6.129c-1.022,0.43-2.097,0.538-3.118,0.323
			l-1.882-0.753l0,0l0,0l0,0l0,0l-2.688,6.613l0,0l0,0c0.054,0,0.054,0,0.108,0l1.72,0.699c2.151,1.344,3.118,4.086,2.151,6.559
			c-0.43,1.022-1.129,1.882-1.989,2.419l-1.882,0.806l0,0l0,0l0,0l2.796,6.613l0,0l0,0l0,0l0,0c0.054,0,0.054-0.054,0.108-0.054
			l1.72-0.699c2.473-0.591,5.108,0.699,6.129,3.118c0.43,1.022,0.538,2.097,0.323,3.118l-0.753,1.882l0,0l0,0l0,0l0,0l6.667,2.688
			l0,0l0,0c0-0.054,0-0.054,0-0.108l0.699-1.72c1.344-2.151,4.086-3.118,6.559-2.151c1.022,0.43,1.882,1.129,2.419,1.989
			l0.806,1.882l0,0l0,0l0,0l6.613-2.796l0,0l0,0l0,0l0,0c0-0.054-0.054-0.054-0.054-0.108l-0.699-1.72
			C59.301,43.387,60.591,40.806,63.011,39.731z M51.989,36.452c-4.409,1.882-9.462-0.161-11.344-4.57
			c-1.882-4.409,0.161-9.462,4.57-11.344s9.462,0.161,11.344,4.57C58.441,29.516,56.398,34.57,51.989,36.452z"/>
		<path fill="#FFFFFF" d="M84.677,55.86v-4.462h-2.527c-0.215-0.806-0.538-1.613-0.968-2.312l1.774-1.774l-3.172-3.172l-1.774,1.774
			c-0.699-0.43-1.505-0.753-2.366-0.968v-2.527h-4.462v2.527c-0.806,0.215-1.613,0.538-2.312,0.968l-1.774-1.774l-3.172,3.172
			l1.774,1.774c-0.43,0.699-0.753,1.505-0.968,2.312h-2.473v4.462h2.527c0.215,0.806,0.538,1.613,0.968,2.312l-1.774,1.774
			l3.172,3.172l1.774-1.774c0.699,0.43,1.452,0.753,2.258,0.968v2.527h4.462v-2.527c0.806-0.215,1.613-0.538,2.312-0.968
			l1.774,1.774l3.172-3.172l-1.774-1.774c0.43-0.699,0.753-1.452,0.968-2.312H84.677z M73.441,56.935
			c-1.828,0-3.333-1.505-3.333-3.333c0-1.828,1.505-3.333,3.333-3.333c1.828,0,3.333,1.505,3.333,3.333S75.269,56.935,73.441,56.935
			z"/>
	</g>
</g>
</svg>
