<?xml version="1.0" encoding="utf-8"?>
<!-- Generator: Adobe Illustrator 20.1.0, SVG Export Plug-In . SVG Version: 6.00 Build 0)  -->
<svg version="1.1" id="Capa_1" xmlns="http://www.w3.org/2000/svg" xmlns:xlink="http://www.w3.org/1999/xlink" x="0px" y="0px"
	 viewBox="0 0 500 500" style="enable-background:new 0 0 500 500;" xml:space="preserve">
<style type="text/css">
	.st0{fill:#6EB99B;}
	.st1{fill:#95CBEE;}
	.st2{fill:#D7EAF9;}
	.st3{fill:none;stroke:#FFFFFF;stroke-width:2;stroke-miterlimit:10;stroke-dasharray:11.9512,11.9512;}
	.st4{fill:#EAD486;}
	.st5{fill-rule:evenodd;clip-rule:evenodd;fill:#EAD486;}
	.st6{opacity:0.2;}
	.st7{fill:#FFFFFF;}
</style>
<g>
	<g>
		<path class="st0" d="M250,356.9c59,0,106.9-48,106.9-106.9c0-59-48-106.9-106.9-106.9"/>
		<path class="st0" d="M250,143.1c-59,0-106.9,48-106.9,106.9c0,59,48,106.9,106.9,106.9"/>
		<g>
			<g>
				<path class="st1" d="M352.3,279.1c-1.4,0-3.2,0.7-3.3,1.2c0,0.5-2,1.4-2.6,1.6c-0.6,0.3-1.9,2.2-2.2,2.9
					c-0.3,0.7-1.9,0.5-2.4,0.7c-0.6,0.3-1.8,1.2-1.8,1.8c0,0.6-0.3,0.5-0.7-0.2c0,0,0,0-0.8,0.8c-0.9,1-0.9,1-0.9,1
					c-0.5,1.6-2.3,3.7-2.9,3.9c-0.6,0.2-0.7,3.1-0.7,4.2c0,1.2,0.5,2.6,1,3.2c0,0,0,0,0.1,0.9c0.2,1.8,0.2,1.8,0.2,1.8
					c-0.3,1.4,0.8,2.7,1.1,2.9c0.3,0.2,3-0.5,4-0.7c0.4-0.1,0.9-0.3,1.4-0.6c4.7-7.9,8.4-16.5,11-25.5
					C352.7,279.1,352.5,279.1,352.3,279.1z"/>
				<path class="st1" d="M175.7,281.8c-0.1,0.3,1.8,2.3,2.5,2.9c0.7,0.7,2.3,3.9,2.6,4.9c0.3,1.1,0.1,2.8,0,3.2
					c-0.1,0.4,0.4,1.3,0.4,1.7c0.1,0.4-0.7,3.5-0.4,4.8c0.3,1.3-1.5,5.2-1.4,7.2c0,2,0.9,4.5,1.3,4.3c0.4-0.2,0.5,1.8-0.1,2
					c-0.6,0.2-1.3,1.8-1,1.9c0.3,0.1,0,1.6,0.1,2.2c0.1,0.6,0.6,4.7,0.7,5.7c0.1,1,1.6,3.5,1.9,4.3c0.3,0.8,0.6,2.4,0.7,2.7
					c0.1,0.2,0.3,0.5,0.3,0.5c0,0,1.2,0.4,1.5,0.7c0.4,0.3,2.6,0.1,3.4-0.1c0.7-0.2,0.1-0.8-0.3-1.2c-0.3-0.4-0.6-2.2-1-2.4
					c-0.4-0.2-0.5-2.5-0.2-3c0.3-0.5,1.7-1.3,1.9-1.8c0.1-0.4,0.2-2.4-0.2-2.7c-0.4-0.3,0.1-2.7-0.2-3.9c-0.3-1.2,2.1-2.3,2.2-3.3
					c0.1-1,2.7-2,3.3-2.5c0.6-0.5,1.1-3.2,0.8-3.8c-0.3-0.6,0.9-1.1,1.5-1.1c0.5,0,1.2-0.4,1.4-0.4c0.2,0,0.9-1.2,1.2-1.5
					c0.3-0.3,1.1-3.2,1.7-3.7c0.6-0.5,1.2-2.2,1.2-2.7s1-2,1.3-2.5c0.3-0.5,2.7-1.6,3.2-1.7c0.4-0.2,1.1-4,1.2-5.4
					c0.2-1.4,0.9-3.2,0.9-3.7c0-0.5,0.8-0.8,1-1c0.1-0.1,0.7-1.9,1.1-2.3c0.4-0.4,1.7-2.1,1.7-2.5c0-0.4,0.2-1.3,0.5-2.1
					c0,0,0,0,0-0.9c0-1.5,0-1.5,0-1.5c-0.4-1.2-1.7-2.6-2-2.3c-0.3,0.3-1.8-1-2.6-1.3c-0.8-0.3-2.7-0.5-3.1-0.5
					c-0.5,0-2.1-1.4-2.9-1.6c-0.7-0.2-2.6-0.6-3-0.8c-0.3-0.2-0.8-3-2.3-3.9c-1.5-0.9-4.2-3.1-4.5-3.9c-0.3-0.8-3.2-2.4-4.1-2.9
					c-0.9-0.5-2.3-0.6-2.4-0.4c-0.2,0.2-1.3-1.5-1.9-2c-0.6-0.5-2.3-0.9-2.4-0.4c-0.1,0.4-1.2,0.2-1.5-0.2c-0.3-0.4-1.2,0.2-1.6,0.3
					c-0.4,0.1-1.9,2.4-2.5,2.9c-0.7,0.5-1.5-0.5-1.9-0.7c-0.4-0.2-2.1,0.3-2.6,0.7c-0.5,0.3-1.5-2.4-1.3-3.6
					c0.2-1.2-1.1-3.7-2.1-3.7c-1-0.1-1.4-2.6-1.2-3.6c0.2-0.9-1.9-1.5-2.4-1.6c-0.5-0.1-1.8,1.3-2.1,1.9c-0.2,0.6-5-0.9-4.4-3.7
					c0.6-2.8,2.8-5.8,3.4-6.1c0.6-0.3,3.6-0.5,4.3-0.1c0.7,0.4,1.3,0,1.4-0.2c0.1-0.2,2.6,0,3.3,0.3c0.7,0.3,1.8,3.2,2.6,3.5
					c0.8,0.4,1.1-1.8,1.2-2.4c0.1-0.5-0.4-1.9-0.6-2.3c-0.2-0.4,1.2-3.9,2.4-4.4c1.1-0.6,2.4-2.5,2.3-2.9c-0.1-0.3,0.9-0.6,1.2-0.8
					c0.3-0.1,0-3,0.4-3.6c0.5-0.6,2.6-1.9,3.3-2.2c0.7-0.3,1.2-2.1,1-2.4c-0.3-0.3,1.8-2,2.8-2.4c1.1-0.3,2,0.6,1.7,0.8
					c0.2-0.1,1.7-0.9,2.3-1.3c0.7-0.5,0-1.8-0.5-2.2c-0.5-0.4-0.2-1.9,0.4-2c0.6-0.1,1.1-1.5,0.9-1.7c-0.1-0.3,2.3,0.2,3.3-0.5
					c0.9-0.7,0.3,1.7-0.4,2.6c-0.7,1,0.5,1.9,0.9,1.7c0.4-0.2,0.9,0.5,1,0.8c0.1,0.3,1-0.3,1.7,0c0.6,0.3,1-0.9,1-1.4
					c0-0.5-1.5-1.6-1.7-2.2c-0.2-0.6-0.3-4.2-0.4-5c0-0.7-1-1.9-1.4-1.7c-0.3,0.2-1-1.9-1.5-2.4c-0.5-0.5-0.6-1.5-0.6-1.8
					c0-0.3-1.8-2.2-2.2-3.1c-0.4-0.9-1-0.7-1.1-0.3c0,0.4-1.3,0.4-1.8,0.4c-0.5,0-0.9-2-0.9-2.7c0-0.7-2.3-0.9-2.7-1.5
					c-0.4-0.6-1.9-0.3-2.1-0.7c-0.2-0.4-1.6-0.8-1.8-0.6c-0.3,0.2-0.1,5.5-0.4,6.9c-0.3,1.4-1.5,2.7-1.9,2.7c-0.4,0-0.2,1,0.1,0.9
					c0.3-0.1-0.9,1.6-1,2.7c-0.2,1.1-1.3,0-1.4-1c-0.2-1-1.3-2.3-1.5-2c-0.2,0.3-1-0.4-1.3-0.2c-0.3,0.2-2.4-1.2-3.2-1.6
					c-0.8-0.4-1.3-3-1.8-3.2c-0.5-0.2-0.1-0.5-0.1-0.9c0-0.4,1.6-1.9,2.1-2.4c0.5-0.6,2.3-2.9,3-3.4c0.7-0.5,1.3-1.8,1.1-2.1
					c-0.1-0.2,3-1.2,3.8-1.5c0.8-0.3,1.6-2.6,1.7-3.3c0.1-0.7-0.5-2-0.9-2.1c-0.4-0.2,1.2-0.2,1.7,0c0.5,0.3,2.1-0.5,2.8-0.1
					c0.6,0.3,1.9,1.1,2.9,1.7c0,0,0,0-0.2,1.7c-0.4,2.9-0.4,2.9-0.4,2.9c-2.5,1-3.2,2.8-2.3,2.7c0.9,0,4.8,1.7,5.9,2.5
					c1.1,0.8,1.5-1.1,1.8-1.8c0.3-0.6,0.2-2.5,0-2.9c-0.3-0.4,1.3-0.2,1.7,0.2c0.4,0.4,1-0.4,1.3-0.6c0.3-0.2,0.5-1.8,0.7-2.1
					c0.2-0.3-0.7-0.7-0.8-1.1c0-0.4-1.8-1.2-2.4-1.4c-0.6-0.3-0.7-1.5-0.4-1.7c0.3-0.2-0.2-1.8-0.5-2.3c-0.3-0.5-2.1-0.9-2.7-0.9
					c-0.6,0-1.2-1.4-1.6-1.6c-0.4-0.2-2.7-0.5-3.3-0.3c-0.6,0.2-1.7-1.7-2.7-1.1c-1,0.6-2-0.7-2.5-0.9c-0.5-0.2-2.8,2.2-2.7,4
					c0,1.8,0.9,3.4,1.3,3.5c0.4,0.1-0.1,1.6-0.5,2.1c-0.4,0.4-1.4-0.5-1-0.9c0.4-0.4-1-2.2-1.5-3c-0.3-0.5-1.5-1-2.4-1.3
					c-0.5,0.5-0.9,1-1.4,1.6c0.2,0.6,0.4,1.5,0.2,2.1c-0.3,1.1-1.2,1.2-1.3,0.8c0-0.2-0.5-0.4-1-0.4c-13,15.5-21.6,34.8-24,55.9
					c0.5,0.6,1.1,1.3,1.3,1.8c0.3,0.9,1.9,1.6,2.2,1.7c0.3,0.2,0.4-1.8,0.2-2.3c-0.2-0.5,0.4-0.8,0.4-0.4c0,0.4,1.5,2.1,2,2.8
					c0.5,0.6,1,4.7,1.5,5.6c0.5,0.9,5.2,2.7,6.7,3c1.5,0.3,3.4,2,3.7,2.5c0.3,0.5,2.3,0.7,2.7,0.9c0.4,0.2,1.5,1.6,1.9,1.9
					c0.4,0.3,0.8,1.1,0.8,1.3c0,0.2,2.7,1.2,3.3,1.9c0.6,0.7,1.7,0.5,1.9,0.2c0.2-0.3,0.7,1.4,1,2c0.3,0.6,0.3,2.1,0.1,2.3
					c-0.2,0.2-0.6,2.9-1,3.4c-0.5,0.5-1.4,4.4-1.2,5.2c0.2,0.8,1.5,2.4,2,2.6c0.5,0.2,0.3,1.1-0.1,1.1c-0.4,0.1-0.2,3.8,0.8,4.3
					C175,279.9,175.9,281.5,175.7,281.8z"/>
				<path class="st1" d="M188.3,216.7L188.3,216.7C188.3,216.7,188.3,216.7,188.3,216.7z"/>
				<path class="st1" d="M181,171.6c1.3-0.2,3.4-0.6,3.6-0.9c0.1-0.3,0.1-1.2-0.1-1.5c0.2,0,0.4,0,0.6,0c0.5,0,1.3-2.7,1.8-3.3
					c0.5-0.6,3.4-1.5,4.1-2c0.7-0.4,2.2-1.9,2.8-2.1c0.6-0.2,1.4-1.5,1.3-1.8c-0.1-0.3,2-1.6,2.8-1.9c0.8-0.3,1.2-1.3,0.9-1.3
					c-0.2,0-4.7,2.3-8.8,4.6c-4.7,3.2-9.1,6.7-13.2,10.6C178.2,172,180.2,171.7,181,171.6z"/>
				<path class="st1" d="M258.3,304.7c1.4-0.8,3.7-4.2,4.5-5c0.8-0.7,1.3-3.3,1.5-3.9c0.2-0.6,1.3-1.5,1.7-1.6
					c0.4-0.1,1.8-5.9,3-7.1c1.2-1.3,2.6-7.4,2.5-9.6c-0.2-2.2,0.8-6.4,1.1-7.4c0.3-1,1.8-2.8,2.3-3.2c0.5-0.4,3.4-4.7,4.4-6.3
					c0.9-1.6,1.9-5,1.7-5.8c-0.2-0.8-2.2-1.4-2.6-1c-0.4,0.4-2.3,0.7-2.9,0.7c-0.6,0-2-3.3-2.9-4c-0.9-0.7-1.7-4.5-2.2-5.2
					c-0.5-0.7-1.9-2.5-2.4-2.9c-0.4-0.4-0.5-2.4-0.6-3c-0.1-0.5,0.9,0.4,1,1.2c0.2,0.8,2.4,4,3.1,5.1c0.7,1.1,2.5,4.5,3,5.6
					c0.5,1.1,4.6,0.5,5.9-0.1c1.3-0.6,3-1.7,3.1-2.1c0.1-0.4,2.2-1.3,2.8-1.8c0.6-0.5,1.1-2.9,1.5-3.3c0.4-0.4-0.3-2.8-0.8-3.5
					c-0.4-0.7-2.6-1.3-3-1c-0.4,0.3-1.4-1.6-1.7-2.3c-0.3-0.7-2-1.5-2.1-2c-0.2-0.5,0.4-1.2,0.7-1.4c0.3-0.2,3.3,1.9,4.1,3
					c0.9,1,1.8,3,2,3.3c0.2,0.3,2.5,0.5,3.1,0.1c0.5-0.4,1.1-0.3,1.3,0.2c0,0,0,0,0.7-0.1c2.6-0.4,2.6-0.4,2.6-0.4
					c1.2,1.3,1.6,2.5,1.6,2.8c0,0.3,0.8,1.3,1.3,1.5c0.5,0.1,0.9,1.8,1,2.2c0.1,0.4,1.6,3,1.9,4c0.3,1.1,1.6,3.2,1.9,3.7
					c0.3,0.6,0.5,2.2,0.5,2.6c0,0.4,0.9,1.3,1.5,1.3c0.6,0,1.8-3.8,2.1-5.2c0.3-1.4,1.2-2.5,1.5-2.5c0.3,0,0.5-0.8,0.5-1.1
					c0-0.3,1.5-0.3,1.6-0.6c0.1-0.4,0.6-2.8,1.1-3.2c0.5-0.4,2.4-1.6,3.1-1.9c0.7-0.2,2.4,1.2,2.8,1.9c0.4,0.7,0.7,2.4,0.6,2.7
					c-0.1,0.3,0.9,1.8,1.8,1.8c0.9,0,1.2,1.2,1.2,1.6c0,0.4,1.2,1.7,1.5,2.2c0.2,0.5,0.2,2,0,2.4c-0.2,0.3-0.1,2.3,0.1,2.8
					c0.2,0.5,3,3.4,4,4.3c1.1,0.9,1.6-1.8,1-2.6c-0.5-0.8-2.4-2.7-2.8-3.3c-0.4-0.6-0.5-2.8-0.3-3.5c0.2-0.6,1.6,0.4,2.2,0.8
					c0.6,0.5,1.4,1.5,1.4,1.8c0,0.3,3.8-1.8,3.9-4.1c0.1-2.3,1.4-4.9,1.5-5.5c0.1-0.6-0.4-1.4-0.7-1.5c-0.3,0,0.6-1.7,1.6-1.7
					c1.1,0,3.6-2.8,4.2-3.9c0.6-1.1,1.8-2,1.9-2.2c0.1-0.1,1-2.8,1.1-3.9c0.1-1.1-0.6-2.8-0.7-3.4c-0.1-0.6-1-1.9-1.2-2.3
					c-0.2-0.4-0.5-1.9-0.3-2.2c0.1-0.3,1.1-0.6,1.2-0.8c0.1-0.3,1.2-1.4,1.1-1.9c-0.1-0.5,0.7,0.7,1.2,1.1c0.5,0.4,1,3.1,1.7,3.4
					c0.6,0.3,3.1-2.9,2.8-4.9c-0.3-2.1,0.7-4.7,1.3-4.9c0.5-0.2,1.6-1.8,2.4-3c-5.5-15.9-14.6-30-26.3-41.5c-0.1,0-0.3,0-0.4,0
					c-0.9-0.2-0.9-0.2-0.9-0.2c-1.5-0.3-2.4-2-2.2-2.3c0.1-0.1,0.1-0.4,0-0.7c-0.9-0.8-1.7-1.5-2.6-2.3c-0.7,0-1.5,0-1.9,0
					c-0.9,0-2.9-0.7-3.3-1c-0.4-0.4-1.6,0.3-1.6,1c-0.1,0.7-2.2,1-2.4,1.5c-0.2,0.5-1.3,0.5-1.5,0.3c-0.2-0.3-2.2,0.7-3.1,0.8
					c-1,0.1-2.8,0.9-3.2,1.1c-0.4,0.2-1.5,1.2-1.6,1.6c-0.2,0.4-1.4,1.1-1.8,1.3c-0.4,0.2-0.3,2,0.2,2.2c0.5,0.2-1-0.2-1.6-0.6
					c-0.7-0.3-1.4,0.8-1.6,1.2c-0.2,0.4-0.8-0.2-0.8-0.8c0-0.5-1.6-1-1.8-0.5c-0.2,0.4-1.3-0.1-1.8-0.4c-0.5-0.2-2.5,1.9-3.2,2.6
					c-0.7,0.7-4.3,1.3-5,1.1c-0.7-0.3-1.3,1.6-0.8,1.7c0.6,0.1-1.5-0.1-2.6,0c-1.1,0.1-4.3,1.4-5.1,2c-0.8,0.6-1.4-0.1-1.4-0.6
					c0-0.4-1.2-0.8-1.6-1c-0.4-0.1-1.1,2.4-1.7,2.9c-0.6,0.5-1.4-2-2.9-2.4c-1.5-0.4-3.9-1.9-4.5-2c-0.7-0.2-2-1.6-2.4-2
					c-0.4-0.4-2.3-0.7-2.9-0.7c-0.6,0-2.6,1.1-3.1,1.6c-0.5,0.5-1.3,0.4-1.6,0.5c-0.3,0.2-2.5,2.4-3.4,3.1c-0.9,0.7-2.4,3.7-2.9,4.4
					c-0.5,0.7-1.2,0.8-1.5,0.9c-0.3,0-0.5,0.8-0.5,1.1c0,0.3-2.6,1.6-2.9,2.8c-0.3,1.2,0.3,3.9,0.3,4.8c0,1,1,2.8,1.7,2.9
					c0.7,0,0.3,1.6,0.2,2.1c-0.2,0.5,0.5,0.9,0.4,1.3c0,0.4-1.8,0.9-2.4,1.1c-0.6,0.2-1.5,1.5-1.6,1.9c-0.1,0.4-1.8,0.7-2.4,1.2
					c0.1-0.4,0.3-0.9,0.5-1.2c0.3-0.6-0.1-1.7-0.4-1.9c-0.3-0.2-0.4-3.3-0.8-4c-0.4-0.7-1.5-1.8-1.8-2c-0.3-0.2,0.2-1,0.3-1.4
					c0.2-0.3-1.4-0.5-1.9-0.3c-0.4,0.3-0.7,3.3-0.9,4.2c-0.2,0.8,0.8,2.1,1.1,2.2c0.3,0.1,0.2,1.6-0.4,1.6c-0.6,0.1-1.1,2.3-0.8,2.8
					c0.3,0.5-0.4,1.5-0.7,1.7c-0.3,0.2,2.2,0.1,3.3,0.1c1.1,0,2,0.5,1.9,0.6c-0.1,0.1-2.2,0.4-2.6,0.9c-0.4,0.5-1.8,1.4-2,1.8
					c-0.3,0.4,0.5,1.2,1.1,1.2c0.6,0,1.3,2.1,1.7,2.4c0.5,0.4,0.3,1.5,0.1,1.8c-0.2,0.3-3-0.2-4.1,0.1c-1.1,0.3-2.4,2.5-2.5,3.3
					c-0.1,0.8,0.2,3.3,0.3,3.9c0.1,0.7,2.4,1.1,2.8,1.4c0.5,0.3,2.6,0,3,0.2c0.4,0.2,1.9-2.2,2.2-3.2c0.3-1.1,2.5-3.1,3-3.9
					c0.5-0.7,2.9-0.7,3.5-1c0.6-0.4,0.3,1.8,0.6,3.1c0.3,1.2,2.6,1.1,2.3-0.1c-0.3-1.1,0.2-1.7,0.3-1.2c0.1,0.4,2.3,1.3,2.8,2
					c0.4,0.7,0.3,2-0.2,2c-0.5,0-0.5,1.5,0,1.7c0.5,0.2,1.2-1.7,1.8-2c0.6-0.3,1-1.5,0.8-1.5c-0.3-0.1,0.5-1.1,0.8-0.8
					c0.3,0.3-1.2-2.3-2.2-3.3c-1-1-0.3-0.5,1.5,0.9c0,0,0,0,1.2,1.7c0.2,0.3,0.6,1.3,0.8,1.6c0.3,0.5,0.3,0.5,0.3,0.5
					c0.2,0.6,0.5,2.3,0.5,2.7c0,0.4,1,1.3,1.5,1.3c0.6,0,1,0.3,0.9,0.3c-0.1,0,0.4,1.2,1,1.2c0.6,0,0.8-1.5,0.2-1.5
					c-0.6,0-0.5-2.2-0.6-3.1c-0.1-0.9,0.4-1.7,0.6-1.7c0.2,0,0,1.9,0,2.4c0,0.4,0.3,1.3,0.5,2c0,0,0,0,0.6,0.5c1.3,1,1.3,1,1.3,1
					c1.9-0.6,4.5-0.1,4.4,0.3c-0.1,0.4,1.4,0.5,1.5-0.1c0.1-0.6,0.2,0,0.2,0.5c0,0.4-1.3,2.2-1.5,3c-0.2,0.8-4.7,0.3-6.6,0.1
					c-1.9-0.1-4.8,0.5-5,1.1c-0.2,0.6-3.2-1.3-4.6-1.9c-1.4-0.6-2.5-2.7-2.7-3c-0.3-0.3,0.2-1,0.1-1.4c-0.1-0.4-3.3-0.5-4.2-0.2
					c-0.9,0.3-5.6,0.8-6.7,1.3c-1.1,0.5-2.8,0-3.3-0.1c-0.5-0.1-1.8,1.4-2.4,1.7c-0.6,0.3-1.4,2.5-1.8,4.9c0,0,0,0-0.9,1.7
					c-0.6,1.1-0.6,1.1-0.6,1.1c-1.6,1.2-3.3,5.1-3.8,5.9c-0.5,0.8-0.9,6.5-0.9,8.4c0,1.9,1.7,6,2.1,7.1c0.5,1.1,3.4,3.6,4.3,4.2
					c1,0.6,4.1,0.7,5.1,0.7c1,0,2.2-1,2.6-2.2c0,0,0,0,1.5,0.2c0.7,0.1,0.7,0.1,0.7,0.1c0,0.8,2.3,1.5,2.8,1.8
					c0.5,0.3,2,0.1,2.4-0.1c0.4-0.1,0.9,3.8,0.6,4.9c-0.3,1.1,0.8,5.1,1.1,6.3c0.3,1.2,1.7,4.5,1.8,5.7c0.1,1.2-0.8,5.1-1,6.5
					c-0.2,1.4,1.7,5.2,2.2,6.5c0.5,1.3,0.9,4.1,0.9,4.8c0,0.7,2,4.6,2.5,6.3C251.9,305.1,257,305.5,258.3,304.7z"/>
				<path class="st1" d="M346.5,256.1c0.1,0.3,1.4-0.7,2.2-0.8c0.8-0.1,1.3-2.2,0.7-2.3c-0.6-0.2-1.4-1.8-1.8-1.9
					c-0.4-0.2-1.3,0.7-1.2,1.3c0,0.6-1.4,0.9-1.7,1.4c-0.3,0.5-0.3,0.9,0,0.8C344.9,254.5,346.4,255.8,346.5,256.1z"/>
				<path class="st1" d="M344.9,267.4c0.4-0.1,0-2.2-0.8-2.4c-0.8-0.2-3,2.7-2.6,4.3c0.4,1.6,0.9,1.5,1.1,1.2
					c0.2-0.3,1.5,0.2,1.9,0.4c0.4,0.1,0.4-0.3,0-0.9C344.1,269.4,344.5,267.5,344.9,267.4z"/>
				<path class="st1" d="M340.5,265.4c0.1-0.7,0.2-3,0.4-3.5c0.1-0.5-1.2-1.8-1.9-2c-0.7-0.2-2.8,4.4-4.4,5.3
					c-1.6,0.8-2.1,3.7-1.7,4.3c0.4,0.7,3.6,1,4.2,1.5c0.6,0.5,1.2-0.1,1.5-0.2c0.3-0.1,0.2-0.3,0.1-0.4c-0.1-0.1,1.1-1.4,1.3-2.2
					C340.2,267.4,340.5,266.1,340.5,265.4z"/>
				<path class="st1" d="M331.8,273.1c-1.2-0.5-2.6,0.3-2.7,0.7c-0.1,0.5,4.7,1.2,6.2,1.7c1.6,0.4,2.6,0.6,2.2,0.3
					C337.1,275.6,333,273.6,331.8,273.1z"/>
				<path class="st1" d="M341.5,242c0.4-0.5-0.5-3-1-2.5c-0.5,0.6-0.1,2,0,2.5C340.6,242.6,341.1,242.6,341.5,242z"/>
				<path class="st1" d="M344.4,247.4c0.3-0.6-0.3-1.4-1.4-1.6c-1-0.2-0.9,2.9-0.4,3.3C343,249.5,344.1,248.1,344.4,247.4z"/>
				<path class="st1" d="M349.7,266.7c1.2,0.9,4,0.5,4.1-1.2C352.6,264.7,349.6,264.8,349.7,266.7z"/>
				<path class="st1" d="M349.1,228.5c-0.5,0.4-0.8,1.3-0.6,1.6c-0.1,0-0.1,0-0.2,0c-0.4,0-0.5,1.6,0,1.9c0.4,0.3,1.5-1.3,2-1.6
					c0.5-0.4,1.6-0.6,1.8-0.5c0.2,0.1,1.1-0.2,2.1-0.6c0.2-0.1,0.4-0.4,0.6-0.7c-0.2-1.2-0.5-2.4-0.8-3.5c-0.5,0.4-1.1,0.8-1.4,1
					C352,226.6,349.7,228.1,349.1,228.5z"/>
				<path class="st1" d="M320.8,261.4C320.8,261.4,320.8,261.4,320.8,261.4C320.6,261.2,320.6,261.2,320.8,261.4z"/>
				<path class="st1" d="M328.5,268.5c-0.4-1-1.9-2.7-3.3-3.8c0,0,0,0-0.5-0.8c-0.6-0.9-0.6-0.9-0.6-0.9c-0.5-1-2-1.8-2.2-2.1
					c-0.1-0.3-0.6,0.9-1.1,0.6c0.3,0.2,0.8,0.6,1.7,1.2c1.4,1,4.2,8,4.8,8.5C327.9,271.5,329,269.5,328.5,268.5z"/>
				<path class="st1" d="M306.4,257.3c-0.4,0.8,2,2.5,2.2,2.1c0.2-0.4-0.3-2.3-0.7-2.7C307.5,256.2,306.8,256.5,306.4,257.3z"/>
				<path class="st1" d="M274.1,294.5c0.1,0.8,1.8,1.5,2.3,1.3c0.5-0.1,1.9-2.6,2-3.4c0.2-0.7,0.3-2.3,0.3-2.6
					c0-0.4,0.2-1.2,0.4-1.3c0.2-0.1,0.5-1,0.7-1.9c0.2-1-1-5.3-1-6.1c0-0.8-0.9,0.4-1.1,1.2c-0.2,0.8-2.4,2.4-2.9,3
					c-0.5,0.7-1,2.9-0.8,3.3c0.2,0.4-0.2,1.9-0.4,2.3C273.3,290.8,274,293.6,274.1,294.5z"/>
				<path class="st1" d="M195.3,324.9c0.5,0,1,0,1.5,0C197,323.3,195.2,323.5,195.3,324.9z"/>
				<path class="st1" d="M234.5,159.4c-0.6,0.1-2.2-0.2-2.5-0.5c-0.3-0.3-2.7-0.5-3.4-0.3c-0.7,0.3-0.2-1.7,0.7-1.9
					c1-0.2,0.1-1.6-0.9-1.6c-1,0-3.5-0.4-4.1-0.2c-0.6,0.1-1.7-0.4-2.2-0.5c-0.4-0.1-3.5,0.9-4.9,0.8c-1.4-0.1-5,0.1-5.7,0.3
					c-0.8,0.2-1.3,1.7-1.2,2.2c0.1,0.5-3.4,0.5-4.5,0.5c-1.1,0-7,1.3-8.5,2.1c-1.5,0.8-2.7,3-2.2,3.1c0.5,0-0.9,1.3-1.7,1.6
					c-0.8,0.3-2.8,0.4-3.3,0.9c-0.5,0.5,0.5,0.8,0.7,1.1c0.2,0.3,0.7-0.3,1.3,0c0.5,0.3,2.2,0.4,2.7,0.6c0.5,0.2-1.5,0.5-2.4,0.6
					c-0.9,0.1-0.7,1.8,0,2.1c0.7,0.2,2.6,0.5,2.8,0.2c0.2-0.3,2.2,0.3,3.2,0.4c0.9,0.1,1.6,2.4,1.9,2.9c0.3,0.5,0.3,2.3,0.3,2.8
					c-0.1,0.5,1.6,1.4,1.9,1.1c0.3-0.3,0.2,0.8-0.5,0.7c-0.7-0.1-0.2,1.9,0.6,2.2c0.8,0.3,0.3,1.5-0.2,1.9c-0.5,0.4-0.2,1.5-0.7,1.9
					c-0.5,0.4,1.8,4.3,1.7,6.3c0,2,1.2,3.6,1.7,3.6c0.5,0,2.1,0.4,2.3,0.8c0.2,0.4,1-0.3,1.3-0.6c0.3-0.3,1-1.3,1.5-2.1
					c0.5-0.9,1.6-4.9,1.8-5.3c0.2-0.4,2-0.2,2.5-0.4c0.4-0.2,1.7-1.2,2-1.5c0.3-0.3,3-1.4,3.8-2c0.7-0.5,2-2.8,2.5-3.3
					c0.6-0.5-0.3-0.3-1-0.8c-0.7-0.5-0.4-1-0.2-1.3c0.2-0.2,2.4,0.4,3.1,0.6c0.8,0.3,2.2-0.7,1.6-1.1c-0.6-0.4-0.3-0.4,0-0.2
					c0.3,0.2,0.5-1.3,0.3-1.6c-0.3-0.3,2.2-2.1,1.8-3.8c-0.4-1.7,0.7-3.5,1.3-3.5c0.7,0,0.5-1.9-0.3-2.1c-0.8-0.2,0-0.4,0.3-0.6
					c0.3-0.3,0.7-2,0.5-2.3c-0.2-0.3,1.2-0.7,1.5-1.1c0.3-0.4,1.9-1.2,2.4-1.3C234.8,160.9,235.1,159.4,234.5,159.4z"/>
				<path class="st1" d="M248.4,160.8c-0.8-0.3-2.3,0.6-2.1,1.1c0.2,0.5-1.3-0.6-2.3-0.1c-1,0.5-1.3,2.3-0.8,2.5
					c0.5,0.2,0.8,1.7,0.8,1.9c0,0.3,2,0.1,2.5-0.3c0.5-0.4,0.4,1.4-0.1,1.9c-0.5,0.5,0.2,1.5,0.7,1.6c0.5,0.1,1.3,1.4,1.9,1.4
					c0.6,0,1.5-2.2,1.7-3c0.2-0.8,2.1-0.2,2.9,0.1c0.9,0.3,1.2-3,0.2-3.5c-0.9-0.5-2.1-0.2-2.5-0.6c-0.4-0.4-1-0.7-1.5-0.8
					C249.6,163,249.2,161.1,248.4,160.8z"/>
				<path class="st1" d="M255.9,162.4c1.5,0.2,3.2-1,3.6-1.4c0.4-0.3-4.2-1.3-5.9-1.3c-1.7-0.1-3.1,0.2-3.1,0.5
					C250.5,160.5,254.4,162.2,255.9,162.4z"/>
				<path class="st1" d="M228.4,203.2c-0.4-0.2-0.6,1.3-0.5,1.9c0.1,0.6,1.5,0.5,2.1,0.4c0.6-0.1,1.1-0.6,1-1.1
					c0-0.5-0.9-2.7-1.2-2.7C229.4,201.7,228.8,203.3,228.4,203.2z"/>
				<path class="st1" d="M232.8,185.8c-0.3-0.6-2.7-0.5-3.3-0.5c-0.6,0-2.3-0.6-2.7-1c-0.3-0.4-0.6,1.5-1.1,1.7
					c-0.5,0.2,0.3,0.6,0.5,0.4c0.2-0.2,0,0.9-0.3,1.3c-0.2,0.4,1.6,0.7,1.8,1.3c0.2,0.6,1,1,1.7,0.9c0.7-0.1,2.1-0.9,2.6-0.9
					C232.6,188.9,233.1,186.4,232.8,185.8z"/>
				<path class="st1" d="M282.5,172.3c0.8-0.8,4.2-1.9,4.5-2.8c0.4-0.8-0.2-1.5-0.6-1.5c-0.3,0-0.8,0.4-0.8,0.6
					c-0.1,0.1-3.9,1-5.1,1.6c-1.2,0.6-2.5,1.4-3,1.9c-0.5,0.5-1.3,4.3-1.6,4.7c-0.3,0.4,1.3,2,2,2.4c0.7,0.4,1.6,0.2,1.9,0.1
					c0.3-0.1-0.4-2.7-0.7-3.7C278.7,174.8,281.7,173.1,282.5,172.3z"/>
				<path class="st1" d="M278.4,162.4c1.3,1.3,2-0.6,3.3-0.4C281.7,159.4,278.3,160.3,278.4,162.4z"/>
				<path class="st1" d="M303,162.8c0,0.5,3.5,0.8,4.5,0.7c1-0.2-0.2-1.8-1.7-1.7C304.3,161.9,303,162.4,303,162.8z"/>
				<path class="st1" d="M175,189c-0.4,0.3-0.1,2.1,0.7,2.1c0.7,0.1,1.8-2.6,2.7-2.1c0.9,0.5,1.4,0.7,1.3,0.5
					c-0.1-0.3-2.6-1.4-2.9-1.6C176.5,187.8,175.4,188.7,175,189z"/>
				<path class="st1" d="M184.1,247.7c0,0.3,1.5,0.2,1.8-0.2c0.2-0.5,0.1-0.9-0.3-0.9C185.2,246.6,184.1,247.4,184.1,247.7z"/>
				<path class="st1" d="M177.2,245.2c0.7-0.1,0.4,1.1,0.6,1.5c0.2,0.4,1.9,0.8,2.3,1.1c0.4,0.3,1.3-0.5,2-0.5
					c0.7,0.1-0.2-2.4-1.4-2.4c-1.2,0.1-2.1-1.1-2.4-1.2c-0.3-0.1-1.7-1-2.1-1.3c-0.4-0.3-3.4-0.6-4.4-0.6c-1,0-2.2,1.1-2.3,1.4
					c-0.2,0.4,1.6,0.6,2.1,0.3c0.5-0.3,2.9,0.3,3.4,0.9C175.5,245,176.5,245.3,177.2,245.2z"/>
				<path class="st1" d="M174,247.7c0,0.3,1.6,0.1,1.9,0.1c0.4,0,0.4-0.2,0-0.6C175.5,246.9,174,247.4,174,247.7z"/>
				<path class="st1" d="M175.1,239.7c-0.4-0.2-0.7,0.5-0.7,0.8c0,0.3,0.2,0.5,0.5,0.5C175.1,241,175.5,239.9,175.1,239.7z"/>
				<path class="st1" d="M178.4,240c-0.1-0.3-0.8-0.5-1-0.5c-0.2,0-0.3,0.5-0.3,1.1C177.1,241.2,178.5,240.2,178.4,240z"/>
				<path class="st1" d="M180.7,243.6c0.6-0.3,0.7-1.1,0.3-1c-0.4,0-1.1-1.1-1.5-1.2c-0.4-0.2-0.7,0.7-0.7,1s0.2,0.6,0.5,0.5
					C179.6,242.8,180.1,243.9,180.7,243.6z"/>
				<path class="st1" d="M354.4,268c-0.3,0.2-1.9,0.4-2.1,0c-0.2-0.3-0.5,0.6-0.9,0.8c-0.3,0.2-0.2,1,0.4,0.7c0.3-0.2,1.8,0.6,3,1.4
					c0.2-1.2,0.5-2.4,0.7-3.6C355.1,267.6,354.6,267.9,354.4,268z"/>
			</g>
		</g>
		<path class="st2" d="M184.6,169.4c-0.1-0.1-0.6,0.2-0.4,0.4C184.3,170,184.8,169.6,184.6,169.4z"/>
		<path class="st2" d="M196.4,204.7c-0.1-0.1-0.5,0.2-0.4,0.4C196.2,205.2,196.6,204.9,196.4,204.7z"/>
	</g>
	<g>
		<circle class="st3" cx="250" cy="250" r="163.6"/>
	</g>
	<g>
		<g>
			<g>
				<g>
					<g>
						<g>
							<path class="st4" d="M250,396.4c-18.2,0-32.4-64.3-32.4-146.4c0-82.1,14.2-146.4,32.4-146.4c8.6,0,16.7,14.8,22.8,41.6
								l-1.3,0.3c-5.8-25.8-13.6-40.6-21.5-40.6c-8,0-16,15.4-21.8,42.2c-6,27.5-9.3,64-9.3,102.9c0,38.9,3.3,75.4,9.3,102.9
								C234,379.7,242,395,250,395c7.7,0,15.1-13.6,20.9-38.3l1.3,0.3C266.3,382.4,258.4,396.4,250,396.4z"/>
						</g>
					</g>
					<g>
						<g>
							<path class="st4" d="M353.2,273.1l-0.3-1.3C379.7,266,395,258,395,250c0-8-15.4-16-42.2-21.8c-27.5-6-64-9.3-102.9-9.3
								s-75.4,3.3-102.9,9.3C120.3,234,105,242,105,250c0,7.6,14.2,15.3,38.9,21.1l-0.3,1.3c-25.7-6-39.9-13.9-39.9-22.4
								c0-18.2,64.3-32.4,146.4-32.4s146.4,14.2,146.4,32.4C396.4,258.8,381,267,353.2,273.1z"/>
						</g>
					</g>
					<g>
						<g>
							<path class="st4" d="M154.2,356.1c-3.3,0-5.9-0.9-7.7-2.6c-7.1-7.1,1.3-25.4,9.7-39.5l1.1,0.7c-11.4,19.4-14.9,32.9-9.9,37.9
								c5.7,5.7,22.2,0.4,45.2-14.4c23.7-15.2,51.8-38.7,79.3-66.2c27.5-27.5,51-55.7,66.2-79.3c14.8-23.1,20.1-39.6,14.4-45.2
								c-5.5-5.5-21.4-0.6-43.7,13.4l-0.7-1.1c23.1-14.6,39.2-19.3,45.3-13.2c12.9,12.9-22.5,68.4-80.6,126.4
								C222.9,322.9,174.8,356.1,154.2,356.1z"/>
						</g>
					</g>
					<g>
						<g>
							<path class="st4" d="M345.8,356.1c-20.6,0-68.7-33.2-118.8-83.2c-58-58-93.4-113.6-80.6-126.4c6-6,21.9-1.5,44.7,12.9
								l-0.7,1.1c-21.9-13.8-37.6-18.5-43.1-13c-5.7,5.7-0.4,22.2,14.4,45.2c15.2,23.7,38.7,51.8,66.2,79.3
								c27.5,27.5,55.7,51,79.3,66.2c23.1,14.8,39.6,20.1,45.2,14.4c5.4-5.4,1.2-20-11.9-41.2l1.1-0.7c9.5,15.4,19.2,35.4,11.7,42.9
								C351.7,355.3,349.1,356.1,345.8,356.1z"/>
						</g>
					</g>
				</g>
				<g>
					<path class="st5" d="M296,247l-3.4,3.9l-2.9-0.3l0.9-0.9c0.3-0.3,0.2-0.7,0-0.9l-0.1-0.1c-0.3-0.3-0.7-0.2-0.9,0l-1.4,1.4
						c-0.1,0.1-0.1,0.2-0.2,0.3l-9.6-0.9l-0.9,0.9l9.1,3l1.6,1.5c0,0-2,1.8-2.5,2.6c-0.5,0.7-1,1.5-1,1.5l-6-0.9l-1.2,1.2l5,2.7
						c-0.2,0.3-0.7,1.1-0.6,1.5c0,0,0,0,0,0c0,0,0,0,0,0c0,0,0,0,0,0c0,0,0,0,0,0c0.3,0.1,1.1-0.4,1.5-0.6l2.9,4.9l1.2-1.2l-1-5.9
						c0,0,0.7-0.5,1.4-1c0.7-0.5,2.5-2.5,2.5-2.5l1.6,1.5l3.3,9l0.9-0.9l-1.2-9.6c0.1,0,0.2-0.1,0.3-0.2l1.4-1.4
						c0.3-0.3,0.2-0.7,0-0.9l-0.1-0.1c-0.3-0.3-0.7-0.3-0.9,0l-0.9,0.9l-0.3-2.8l3.8-3.5c0.5-0.5,1.8-3.3,1.4-3.7l0,0l0,0l0,0l0,0
						C299.2,245.1,296.5,246.4,296,247z"/>
				</g>
				<g>
					<path class="st5" d="M171.3,204.1l-3.2-4.1l0.8-2.8l0.8,1.1c0.2,0.3,0.6,0.4,0.9,0.2l0.1,0c0.3-0.2,0.4-0.6,0.2-0.9l-1.2-1.6
						c-0.1-0.1-0.2-0.2-0.3-0.2l2.6-9.3l-0.7-1l-4.6,8.4l-1.8,1.3c0,0-1.5-2.3-2.1-2.9c-0.6-0.6-1.3-1.2-1.3-1.2l1.9-5.7l-1-1.4
						l-3.6,4.4c-0.3-0.3-1-0.9-1.4-0.9c0,0,0,0,0,0c0,0,0,0,0,0c0,0,0,0,0,0c0,0,0,0,0,0c-0.1,0.3,0.2,1.2,0.4,1.6l-5.4,1.9l1,1.4
						l6,0c0,0,0.3,0.8,0.7,1.6c0.4,0.8,2,2.9,2,2.9l-1.8,1.3l-9.5,1.6l0.7,1.1l9.7,0.6c0,0.1,0,0.2,0.1,0.4l1.2,1.6
						c0.2,0.3,0.6,0.4,0.9,0.2l0.1,0c0.3-0.2,0.4-0.6,0.2-0.9l-0.8-1.1l2.9,0.2l2.8,4.3c0.4,0.6,2.9,2.4,3.4,2l0,0l0,0l0,0l0,0
						C172.6,207.6,171.7,204.7,171.3,204.1z"/>
				</g>
				<g>
					<path class="st5" d="M218.5,226.5l-0.4,5.1l-2.4,1.5l0.2-1.3c0-0.4-0.2-0.7-0.6-0.7l-0.1,0c-0.4,0-0.7,0.2-0.7,0.6l-0.3,2
						c0,0.1,0,0.3,0.1,0.4L206,239l-0.2,1.3l9.1-3.1l2.2,0.3c0,0-0.5,2.7-0.4,3.5c0.1,0.9,0.1,1.7,0.1,1.7l-5.3,2.9l-0.2,1.6
						l5.6-0.8c0,0.4,0.2,1.3,0.4,1.6c0,0,0,0,0,0c0,0,0,0,0,0c0,0,0,0,0,0c0,0,0,0,0,0c0.3-0.2,0.7-1,0.8-1.4l5.2,2.2l0.2-1.7
						l-4.4-4.1c0,0,0.3-0.8,0.5-1.7c0.3-0.8,0.5-3.5,0.5-3.5l2.2,0.3l8,5.3l0.2-1.3l-6.7-7c0.1-0.1,0.1-0.2,0.2-0.3l0.3-2
						c0-0.4-0.2-0.7-0.6-0.7l-0.1,0c-0.4,0-0.7,0.2-0.7,0.6l-0.2,1.3l-2-2.1l0.9-5.1c0.1-0.7-0.5-3.7-1.1-3.8l0,0l0,0l0,0l0,0
						C219.9,223,218.6,225.7,218.5,226.5z"/>
				</g>
			</g>
			<g>
				<g>
					<path class="st5" d="M333.2,226.5l5.1,0.6l1.4,2.5l-1.3-0.2c-0.4-0.1-0.7,0.2-0.8,0.6l0,0.1c-0.1,0.4,0.2,0.7,0.6,0.8l2,0.3
						c0.1,0,0.3,0,0.4,0l4.8,8.4l1.3,0.2l-2.8-9.2l0.3-2.2c0,0,2.6,0.5,3.5,0.5c0.9,0,1.7-0.1,1.7-0.1l2.7,5.4l1.6,0.3l-0.7-5.6
						c0.4,0,1.3-0.1,1.6-0.4c0,0,0,0,0,0c0,0,0,0,0,0c0,0,0,0,0,0c0,0,0,0,0,0c-0.2-0.3-1-0.7-1.4-0.8l2.4-5.2l-1.6-0.3l-4.2,4.3
						c0,0-0.8-0.3-1.6-0.6c-0.8-0.3-3.5-0.6-3.5-0.6l0.3-2.2l5.5-7.9l-1.3-0.2l-7.2,6.5c-0.1-0.1-0.2-0.1-0.3-0.2l-2-0.3
						c-0.4-0.1-0.7,0.2-0.8,0.6l0,0.1c-0.1,0.4,0.2,0.7,0.6,0.8l1.3,0.2l-2.1,1.9l-5.1-1c-0.7-0.2-3.7,0.4-3.8,1l0,0l0,0l0,0l0,0
						C329.8,225,332.5,226.4,333.2,226.5z"/>
				</g>
			</g>
		</g>
	</g>
	<g>
		<g class="st6">
			<path class="st7" d="M271.2,28.8c-0.3-0.5-0.9-0.7-1.4-0.6c0,0,0,0-0.1,0l-22-3.2c-0.2,0-0.5,0-0.7,0.1l-17.6,6.5c0,0,0,0,0,0
				c0,0,0,0-0.1,0c-0.1,0-0.2,0.1-0.3,0.2c0,0-0.1,0-0.1,0.1c-0.1,0.1-0.2,0.2-0.2,0.2c0,0,0,0,0,0l-7.4,10.2
				c-0.3,0.4-0.4,0.9-0.2,1.4c0.2,0.5,0.5,0.8,1,0.9l6.5,1.7v16c0,0.6,0.4,1.2,1,1.4l23.6,7.2c0,0,0,0,0,0c0.1,0,0.3,0.1,0.4,0.1
				c0,0,0,0,0,0h0l0,0c0.1,0,0.3,0,0.4-0.1c0,0,0.1,0,0.1-0.1c0.1,0,0.1,0,0.2-0.1l17-9.4c0.5-0.3,0.7-0.7,0.7-1.3V44l5.7-2.8
				c0.4-0.2,0.7-0.5,0.8-0.9c0.1-0.4,0-0.9-0.2-1.2L271.2,28.8z M247.7,28l17.2,2.5l-11.4,5.3l-18-3.3L247.7,28z M230.6,34.5
				l20.7,3.8l-6.1,9.1L225,42.2L230.6,34.5z M231.5,61V46.9l13.9,3.6c0.1,0,0.2,0,0.4,0c0.5,0,0.9-0.2,1.2-0.6l5.2-7.8v25.3
				L231.5,61z M269.2,59.1l-14,7.8v-23l2.6,5.4c0.2,0.4,0.5,0.6,0.8,0.8c0.2,0.1,0.3,0.1,0.5,0.1c0.2,0,0.4,0,0.6-0.1l9.5-4.6V59.1
				L269.2,59.1z M259.7,46.7l-4.1-8.7l13.9-6.5l5.5,7.8L259.7,46.7z"/>
		</g>
		<g class="st6">
			<path class="st7" d="M485.5,241c-0.3-0.5-0.9-0.7-1.4-0.6c0,0,0,0-0.1,0l-22-3.2c-0.2,0-0.5,0-0.7,0.1l-17.6,6.5c0,0,0,0,0,0
				c0,0,0,0-0.1,0c-0.1,0-0.2,0.1-0.3,0.2c0,0-0.1,0-0.1,0.1c-0.1,0.1-0.2,0.2-0.2,0.2c0,0,0,0,0,0l-7.4,10.2
				c-0.3,0.4-0.4,0.9-0.2,1.4c0.2,0.5,0.5,0.8,1,0.9l6.5,1.7v16c0,0.6,0.4,1.2,1,1.4l23.6,7.2c0,0,0,0,0,0c0.1,0,0.3,0.1,0.4,0.1
				c0,0,0,0,0,0l0,0l0,0c0.1,0,0.3,0,0.4-0.1c0,0,0.1,0,0.1-0.1c0.1,0,0.1,0,0.2-0.1l17-9.4c0.5-0.3,0.7-0.7,0.7-1.3v-15.9l5.7-2.8
				c0.4-0.2,0.7-0.5,0.8-0.9c0.1-0.4,0-0.9-0.2-1.2L485.5,241z M462,240.1l17.2,2.5l-11.4,5.3l-18-3.3L462,240.1z M444.8,246.7
				l20.7,3.8l-6.1,9.1l-20.2-5.2L444.8,246.7z M445.8,273.2v-14.1l13.9,3.6c0.1,0,0.2,0,0.4,0c0.5,0,0.9-0.2,1.2-0.6l5.2-7.8v25.3
				L445.8,273.2z M483.4,271.3l-14,7.8v-23l2.6,5.4c0.2,0.4,0.5,0.6,0.8,0.8c0.2,0.1,0.3,0.1,0.5,0.1c0.2,0,0.4,0,0.6-0.1l9.5-4.6
				V271.3L483.4,271.3z M474,258.9l-4.1-8.7l13.9-6.5l5.5,7.8L474,258.9z"/>
		</g>
		<g class="st6">
			<path class="st7" d="M57.3,241c-0.3-0.5-0.9-0.7-1.4-0.6c0,0,0,0-0.1,0l-22-3.2c-0.2,0-0.5,0-0.7,0.1l-17.6,6.5c0,0,0,0,0,0
				c0,0,0,0-0.1,0c-0.1,0-0.2,0.1-0.3,0.2c0,0-0.1,0-0.1,0.1c-0.1,0.1-0.2,0.2-0.2,0.2c0,0,0,0,0,0l-7.4,10.2
				c-0.3,0.4-0.4,0.9-0.2,1.4c0.2,0.5,0.5,0.8,1,0.9l6.5,1.7v16c0,0.6,0.4,1.2,1,1.4l23.6,7.2c0,0,0,0,0,0c0.1,0,0.3,0.1,0.4,0.1
				c0,0,0,0,0,0l0,0l0,0c0.1,0,0.3,0,0.4-0.1c0,0,0.1,0,0.1-0.1c0.1,0,0.1,0,0.2-0.1l17-9.4c0.5-0.3,0.7-0.7,0.7-1.3v-15.9l5.7-2.8
				c0.4-0.2,0.7-0.5,0.8-0.9c0.1-0.4,0-0.9-0.2-1.2L57.3,241z M33.8,240.1l17.2,2.5L39.5,248l-18-3.3L33.8,240.1z M16.6,246.7
				l20.7,3.8l-6.1,9.1L11,254.4L16.6,246.7z M17.6,273.2v-14.1l13.9,3.6c0.1,0,0.2,0,0.4,0c0.5,0,0.9-0.2,1.2-0.6l5.2-7.8v25.3
				L17.6,273.2z M55.2,271.3l-14,7.8v-23l2.6,5.4c0.2,0.4,0.5,0.6,0.8,0.8c0.2,0.1,0.3,0.1,0.5,0.1c0.2,0,0.4,0,0.6-0.1l9.5-4.6
				V271.3L55.2,271.3z M45.8,258.9l-4.1-8.7l13.9-6.5l5.5,7.8L45.8,258.9z"/>
		</g>
		<g class="st6">
			<path class="st7" d="M105.6,95.9c-0.3-0.5-0.9-0.7-1.4-0.6c0,0,0,0-0.1,0l-22-3.2c-0.2,0-0.5,0-0.7,0.1l-17.6,6.5c0,0,0,0,0,0
				c0,0,0,0-0.1,0c-0.1,0-0.2,0.1-0.3,0.1c0,0,0,0-0.1,0.1c-0.1,0.1-0.2,0.2-0.2,0.2c0,0,0,0,0,0l-7.4,10.2
				c-0.3,0.4-0.4,0.9-0.2,1.4c0.2,0.5,0.5,0.8,1,0.9l6.5,1.7v16c0,0.6,0.4,1.2,1,1.4l23.6,7.2c0,0,0,0,0,0c0.1,0,0.3,0.1,0.4,0.1
				c0,0,0,0,0,0l0,0l0,0c0.1,0,0.3,0,0.4-0.1c0,0,0.1,0,0.1-0.1c0.1,0,0.1,0,0.2-0.1l17-9.4c0.5-0.3,0.7-0.7,0.7-1.3V111l5.7-2.8
				c0.4-0.2,0.7-0.5,0.8-0.9c0.1-0.4,0-0.9-0.2-1.2L105.6,95.9z M82.1,95l17.2,2.5l-11.4,5.3l-18-3.3L82.1,95z M65,101.5l20.7,3.8
				l-6.1,9.1l-20.2-5.2L65,101.5z M65.9,128.1v-14.1l13.9,3.6c0.1,0,0.2,0,0.4,0c0.5,0,0.9-0.2,1.2-0.6l5.2-7.8v25.3L65.9,128.1z
				 M103.6,126.1l-14,7.8v-23l2.6,5.4c0.2,0.4,0.5,0.6,0.8,0.8c0.2,0.1,0.3,0.1,0.5,0.1c0.2,0,0.4,0,0.6-0.1l9.5-4.6V126.1
				L103.6,126.1z M94.1,113.7L90,105l13.9-6.5l5.5,7.8L94.1,113.7z"/>
		</g>
		<g class="st6">
			<path class="st7" d="M429.9,95.9c-0.3-0.5-0.9-0.7-1.4-0.6c0,0,0,0-0.1,0l-22-3.2c-0.2,0-0.5,0-0.7,0.1l-17.6,6.5c0,0,0,0,0,0
				c0,0,0,0-0.1,0c-0.1,0-0.2,0.1-0.3,0.1c0,0-0.1,0-0.1,0.1c-0.1,0.1-0.2,0.2-0.2,0.2c0,0,0,0,0,0l-7.4,10.2
				c-0.3,0.4-0.4,0.9-0.2,1.4c0.2,0.5,0.5,0.8,1,0.9l6.5,1.7v16c0,0.6,0.4,1.2,1,1.4l23.6,7.2c0,0,0,0,0,0c0.1,0,0.3,0.1,0.4,0.1
				c0,0,0,0,0,0h0l0,0c0.1,0,0.3,0,0.4-0.1c0,0,0.1,0,0.1-0.1c0.1,0,0.1,0,0.2-0.1l17-9.4c0.5-0.3,0.7-0.7,0.7-1.3V111l5.7-2.8
				c0.4-0.2,0.7-0.5,0.8-0.9c0.1-0.4,0-0.9-0.2-1.2L429.9,95.9z M406.4,95l17.2,2.5l-11.4,5.3l-18-3.3L406.4,95z M389.2,101.5
				l20.7,3.8l-6.1,9.1l-20.2-5.2L389.2,101.5z M390.2,128.1v-14.1l13.9,3.6c0.1,0,0.2,0,0.4,0c0.5,0,0.9-0.2,1.2-0.6l5.2-7.8v25.3
				L390.2,128.1z M427.8,126.1l-14,7.8v-23l2.6,5.4c0.2,0.4,0.5,0.6,0.8,0.8c0.2,0.1,0.3,0.1,0.5,0.1c0.2,0,0.4,0,0.6-0.1l9.5-4.6
				V126.1L427.8,126.1z M418.4,113.7l-4.1-8.7l13.9-6.5l5.5,7.8L418.4,113.7z"/>
		</g>
		<g class="st6">
			<path class="st7" d="M105.6,363.2c-0.3-0.5-0.9-0.7-1.4-0.6c0,0,0,0-0.1,0l-22-3.2c-0.2,0-0.5,0-0.7,0.1l-17.6,6.5c0,0,0,0,0,0
				c0,0,0,0-0.1,0c-0.1,0-0.2,0.1-0.3,0.2c0,0,0,0-0.1,0.1c-0.1,0.1-0.2,0.2-0.2,0.2c0,0,0,0,0,0l-7.4,10.2
				c-0.3,0.4-0.4,0.9-0.2,1.4c0.2,0.5,0.5,0.8,1,0.9l6.5,1.7v16c0,0.6,0.4,1.2,1,1.4l23.6,7.2c0,0,0,0,0,0c0.1,0,0.3,0.1,0.4,0.1
				c0,0,0,0,0,0l0,0l0,0c0.1,0,0.3,0,0.4-0.1c0,0,0.1,0,0.1-0.1c0.1,0,0.1,0,0.2-0.1l17-9.4c0.5-0.3,0.7-0.7,0.7-1.3v-15.9l5.7-2.8
				c0.4-0.2,0.7-0.5,0.8-0.9c0.1-0.4,0-0.9-0.2-1.2L105.6,363.2z M82.1,362.3l17.2,2.5l-11.4,5.3l-18-3.3L82.1,362.3z M65,368.9
				l20.7,3.8l-6.1,9.1l-20.2-5.2L65,368.9z M65.9,395.4v-14.1l13.9,3.6c0.1,0,0.2,0,0.4,0c0.5,0,0.9-0.2,1.2-0.6l5.2-7.8v25.3
				L65.9,395.4z M103.6,393.4l-14,7.8v-23l2.6,5.4c0.2,0.4,0.5,0.6,0.8,0.8c0.2,0.1,0.3,0.1,0.5,0.1c0.2,0,0.4,0,0.6-0.1l9.5-4.6
				V393.4L103.6,393.4z M94.1,381.1l-4.1-8.7l13.9-6.5l5.5,7.8L94.1,381.1z"/>
		</g>
		<g class="st6">
			<path class="st7" d="M429.9,363.2c-0.3-0.5-0.9-0.7-1.4-0.6c0,0,0,0-0.1,0l-22-3.2c-0.2,0-0.5,0-0.7,0.1l-17.6,6.5c0,0,0,0,0,0
				c0,0,0,0-0.1,0c-0.1,0-0.2,0.1-0.3,0.2c0,0-0.1,0-0.1,0.1c-0.1,0.1-0.2,0.2-0.2,0.2c0,0,0,0,0,0l-7.4,10.2
				c-0.3,0.4-0.4,0.9-0.2,1.4c0.2,0.5,0.5,0.8,1,0.9l6.5,1.7v16c0,0.6,0.4,1.2,1,1.4l23.6,7.2c0,0,0,0,0,0c0.1,0,0.3,0.1,0.4,0.1
				c0,0,0,0,0,0h0l0,0c0.1,0,0.3,0,0.4-0.1c0,0,0.1,0,0.1-0.1c0.1,0,0.1,0,0.2-0.1l17-9.4c0.5-0.3,0.7-0.7,0.7-1.3v-15.9l5.7-2.8
				c0.4-0.2,0.7-0.5,0.8-0.9c0.1-0.4,0-0.9-0.2-1.2L429.9,363.2z M406.4,362.3l17.2,2.5l-11.4,5.3l-18-3.3L406.4,362.3z
				 M389.2,368.9l20.7,3.8l-6.1,9.1l-20.2-5.2L389.2,368.9z M390.2,395.4v-14.1l13.9,3.6c0.1,0,0.2,0,0.4,0c0.5,0,0.9-0.2,1.2-0.6
				l5.2-7.8v25.3L390.2,395.4z M427.8,393.4l-14,7.8v-23l2.6,5.4c0.2,0.4,0.5,0.6,0.8,0.8c0.2,0.1,0.3,0.1,0.5,0.1
				c0.2,0,0.4,0,0.6-0.1l9.5-4.6V393.4L427.8,393.4z M418.4,381.1l-4.1-8.7l13.9-6.5l5.5,7.8L418.4,381.1z"/>
		</g>
		<g class="st6">
			<path class="st7" d="M271.2,433.1c-0.3-0.5-0.9-0.7-1.4-0.6c0,0,0,0-0.1,0l-22-3.2c-0.2,0-0.5,0-0.7,0.1l-17.6,6.5c0,0,0,0,0,0
				c0,0,0,0-0.1,0c-0.1,0-0.2,0.1-0.3,0.2c0,0-0.1,0-0.1,0.1c-0.1,0.1-0.2,0.2-0.2,0.2c0,0,0,0,0,0l-7.4,10.2
				c-0.3,0.4-0.4,0.9-0.2,1.4c0.2,0.5,0.5,0.8,1,0.9l6.5,1.7v16c0,0.6,0.4,1.2,1,1.4l23.6,7.2c0,0,0,0,0,0c0.1,0,0.3,0.1,0.4,0.1
				c0,0,0,0,0,0h0l0,0c0.1,0,0.3,0,0.4-0.1c0,0,0.1,0,0.1-0.1c0.1,0,0.1,0,0.2-0.1l17-9.4c0.5-0.3,0.7-0.7,0.7-1.3v-15.9l5.7-2.8
				c0.4-0.2,0.7-0.5,0.8-0.9c0.1-0.4,0-0.9-0.2-1.2L271.2,433.1z M247.7,432.2l17.2,2.5l-11.4,5.3l-18-3.3L247.7,432.2z
				 M230.6,438.7l20.7,3.8l-6.1,9.1l-20.2-5.2L230.6,438.7z M231.5,465.2v-14.1l13.9,3.6c0.1,0,0.2,0,0.4,0c0.5,0,0.9-0.2,1.2-0.6
				l5.2-7.8v25.3L231.5,465.2z M269.2,463.3l-14,7.8v-23l2.6,5.4c0.2,0.4,0.5,0.6,0.8,0.8c0.2,0.1,0.3,0.1,0.5,0.1
				c0.2,0,0.4,0,0.6-0.1l9.5-4.6V463.3L269.2,463.3z M259.7,450.9l-4.1-8.7l13.9-6.5l5.5,7.8L259.7,450.9z"/>
		</g>
	</g>
</g>
</svg>
