<?xml version="1.0" encoding="utf-8"?>
<!-- Generator: Adobe Illustrator 21.0.0, SVG Export Plug-In . SVG Version: 6.00 Build 0)  -->
<svg version="1.1" id="Capa_1" xmlns="http://www.w3.org/2000/svg" xmlns:xlink="http://www.w3.org/1999/xlink" x="0px" y="0px"
	 viewBox="0 0 326 53" style="enable-background:new 0 0 326 53;" xml:space="preserve">
<style type="text/css">
	.st0{fill:#008AD3;}
	.st1{fill:#43494E;}
	.st2{fill:none;}
	.st3{font-family:'ProximaNova-Bold';}
	.st4{font-size:36px;}
</style>
<g>
	<g>
		<path class="st0" d="M26.4,28.9c1.9,0,3.5-1.6,3.5-3.5V12.8c0-1.9-1.6-3.5-3.5-3.5c-1.9,0-3.5,1.6-3.5,3.5v12.6
			C22.9,27.3,24.5,28.9,26.4,28.9z"/>
		<path class="st0" d="M37,13.2L37,13.2c-1.2-1-3.1-0.8-4.1,0.5c-1,1.3-0.8,3.1,0.5,4.1c2.7,2.2,4.3,5.4,4.3,8.9
			c0,6.2-5.1,11.3-11.3,11.3c-6.2,0-11.3-5.1-11.3-11.3c0-3.5,1.6-6.7,4.3-8.9c1.2-1,1.5-2.8,0.5-4.1c-1-1.2-2.8-1.5-4.1-0.5
			c-4.1,3.3-6.5,8.2-6.5,13.4c0,9.4,7.7,17.1,17.1,17.1c9.4,0,17.1-7.7,17.1-17.1C43.5,21.3,41.1,16.4,37,13.2z"/>
	</g>
	<rect x="43.4" y="15.6" class="st2" width="273.3" height="25.7"/>
	<text transform="matrix(0.99 0 0 1 43.3499 39.6248)"><tspan x="0" y="0" class="st0 st3 st4">NLINE</tspan><tspan x="101.8" y="0" class="st1 st3 st4">ASESORÍA</tspan></text>
</g>
</svg>
