<?xml version="1.0" encoding="utf-8"?>
<!-- Generator: Adobe Illustrator 21.0.0, SVG Export Plug-In . SVG Version: 6.00 Build 0)  -->
<svg version="1.1" id="Capa_1" xmlns="http://www.w3.org/2000/svg" xmlns:xlink="http://www.w3.org/1999/xlink" x="0px" y="0px"
	 viewBox="0 0 48 48" style="enable-background:new 0 0 48 48;" xml:space="preserve">
<style type="text/css">
	.st0{fill:#008AD3;}
	.st1{fill:#43494E;}
	.st2{fill:#C7C7C7;}
	.st3{fill:#FFFFFF;}
</style>
<g>
	<path id="email_1_1_" class="st3" d="M40,14.7c0-0.8-0.7-1.5-1.5-1.5h-29c-0.8,0-1.5,0.7-1.5,1.5v18.5c0,0.8,0.7,1.5,1.5,1.5h29
		c0.8,0,1.5-0.7,1.5-1.5V14.7z M38,14.4L24,26L10,14.4H38z M38.9,33.6H9.1V15.2l10.2,8.5c2.5,2.1,4.3,3.5,4.3,3.6
		c0.2,0.2,0.5,0.2,0.7,0l14.5-12.1V33.6z"/>
</g>
</svg>
