<?xml version="1.0" encoding="utf-8"?>
<!-- Generator: Adobe Illustrator 21.0.0, SVG Export Plug-In . SVG Version: 6.00 Build 0)  -->
<svg version="1.1" id="Capa_1" xmlns="http://www.w3.org/2000/svg" xmlns:xlink="http://www.w3.org/1999/xlink" x="0px" y="0px"
	 viewBox="0 0 53 53" style="enable-background:new 0 0 53 53;" xml:space="preserve">
<style type="text/css">
	.st0{fill:#008AD3;}
	.st1{fill:#43494E;}
	.st2{fill:#C7C7C7;}
	.st3{fill:#FFFFFF;}
</style>
<g>
	<g>
		<path class="st0" d="M-38.3-167.6c1.9,0,3.5-1.6,3.5-3.5v-12.6c0-1.9-1.6-3.5-3.5-3.5c-1.9,0-3.5,1.6-3.5,3.5v12.6
			C-41.8-169.2-40.2-167.6-38.3-167.6z"/>
		<path class="st0" d="M-27.7-183.3L-27.7-183.3c-1.2-1-3.1-0.8-4.1,0.5c-1,1.3-0.8,3.1,0.5,4.1c2.7,2.2,4.3,5.4,4.3,8.9
			c0,6.2-5.1,11.3-11.3,11.3c-6.2,0-11.3-5.1-11.3-11.3c0-3.5,1.6-6.7,4.3-8.9c1.2-1,1.5-2.8,0.5-4.1c-1-1.2-2.8-1.5-4.1-0.5
			c-4.1,3.3-6.5,8.2-6.5,13.4c0,9.4,7.7,17.1,17.1,17.1c9.4,0,17.1-7.7,17.1-17.1C-21.2-175.2-23.5-180.1-27.7-183.3z"/>
	</g>
	<rect x="-21.3" y="-180.9" style="fill:none;" width="273.3" height="25.7"/>
	<text transform="matrix(0.99 0 0 1 -21.3335 -156.8752)"><tspan x="0" y="0" class="st0" style="font-family:'ProximaNova-Bold'; font-size:36px;">NLINE</tspan><tspan x="101.8" y="0" class="st1" style="font-family:'ProximaNova-Bold'; font-size:36px;">ASESORÍA</tspan></text>
</g>
<rect x="-178" y="-193" class="st0" width="19" height="19"/>
<rect x="-151.3" y="-193" style="fill:none;" width="71.3" height="7"/>
<text transform="matrix(0.99 0 0 1 -151.3335 -186.3301)" class="st0" style="font-family:'ProximaNova-Bold'; font-size:10px;">SKYBLUE BASE</text>
<rect x="-151.3" y="-181" style="fill:none;" width="44.3" height="7"/>
<text transform="matrix(0.99 0 0 1 -151.3335 -174.3301)" class="st0" style="font-family:'ProximaNova-Bold'; font-size:10px;">#008AD3</text>
<rect x="-178" y="-166" class="st1" width="19" height="19"/>
<rect x="-151.3" y="-166" style="fill:none;" width="54.3" height="7"/>
<text transform="matrix(0.99 0 0 1 -151.3335 -159.3301)" class="st1" style="font-family:'ProximaNova-Bold'; font-size:10px;">GRAY BASE</text>
<rect x="-151.3" y="-154" style="fill:none;" width="42.3" height="7"/>
<text transform="matrix(0.99 0 0 1 -151.3335 -147.3301)" class="st1" style="font-family:'ProximaNova-Bold'; font-size:10px;">#43494E</text>
<g>
	<g>
		<path class="st0" d="M-167.6-61.1c1.9,0,3.5-1.6,3.5-3.5v-12.6c0-1.9-1.6-3.5-3.5-3.5c-1.9,0-3.5,1.6-3.5,3.5v12.6
			C-171.1-62.7-169.5-61.1-167.6-61.1z"/>
		<path class="st0" d="M-157-76.8L-157-76.8c-1.2-1-3.1-0.8-4.1,0.5c-1,1.3-0.8,3.1,0.5,4.1c2.7,2.2,4.3,5.4,4.3,8.9
			c0,6.2-5.1,11.3-11.3,11.3c-6.2,0-11.3-5.1-11.3-11.3c0-3.5,1.6-6.7,4.3-8.9c1.2-1,1.5-2.8,0.5-4.1c-1-1.2-2.8-1.5-4.1-0.5
			c-4.1,3.3-6.5,8.2-6.5,13.4c0,9.4,7.7,17.1,17.1,17.1c9.4,0,17.1-7.7,17.1-17.1C-150.5-68.7-152.9-73.6-157-76.8z"/>
	</g>
	<rect x="-150.6" y="-74.4" style="fill:none;" width="273.3" height="25.7"/>
	<text transform="matrix(0.99 0 0 1 -150.6501 -50.3752)"><tspan x="0" y="0" class="st0" style="font-family:'ProximaNova-Bold'; font-size:36px;">NLINE</tspan><tspan x="101.8" y="0" class="st1" style="font-family:'ProximaNova-Bold'; font-size:36px;">ASESORÍA</tspan></text>
</g>
<g id="lock_1_2_">
	<path class="st2" d="M-110.9,20.4l0-3.8c0-1.3,0.5-2.5,1.4-3.5c0.9-0.9,2.2-1.4,3.5-1.4c1.3,0,2.5,0.5,3.5,1.4
		c0.9,0.9,1.4,2.2,1.4,3.5v3.8h3.6v-3.8c0-4.7-3.8-8.5-8.5-8.5c-4.7,0-8.5,3.8-8.5,8.5v3.8H-110.9z"/>
	<path class="st2" d="M-118.3,22.8V40h24.5V22.8H-118.3z M-104.8,32.4v3.2h-2.5v-3.2c-0.8-0.4-1.4-1.3-1.4-2.3
		c0-1.4,1.2-2.6,2.6-2.6c1.4,0,2.6,1.2,2.6,2.6C-103.4,31.1-103.9,32-104.8,32.4z"/>
</g>
<g>
	<path class="st2" d="M-154.8,44.5h-30.3c-2.9,0-5.3-2.4-5.3-5.3V8.8c0-2.9,2.4-5.3,5.3-5.3h30.3c2.9,0,5.3,2.4,5.3,5.3v30.3
		C-149.5,42.1-151.9,44.5-154.8,44.5z"/>
	<path class="st3" d="M-173.9,20.4l-4.9-4.9c0.6-0.6,1.3-1.3,1.9-1.9c0.3-0.3,0.8-0.3,1.1,0l3.8,3.8c0.3,0.3,0.3,0.8,0,1.1l-1.6,1.6
		C-173.8,20.2-173.9,20.3-173.9,20.4L-173.9,20.4z M-169.9,28.4c-0.8-0.7-1.6-1.4-2.3-2.2c-0.7-0.8-1.5-1.5-2.2-2.3
		c-0.6-0.7-0.7-1.6-0.4-2.4l-5-5c-1.2,1.2-1,4.2,0.3,6.8c0.6,1.1,1.3,2.2,2,3.1c0.7,1,1.5,1.9,2.4,2.7c0.9,0.9,1.8,1.7,2.7,2.4
		c1,0.7,2,1.4,3.1,2c2.6,1.3,5.6,1.4,6.8,0.3l-5-5C-168.3,29.1-169.3,29-169.9,28.4L-169.9,28.4z M-159.6,29.9l-3.8-3.8
		c-0.3-0.3-0.8-0.3-1.1,0l-0.8,0.8l-0.8,0.8c-0.1,0.1-0.2,0.2-0.3,0.3l4.9,4.9c0.6-0.6,1.3-1.3,1.9-1.9
		C-159.3,30.7-159.3,30.2-159.6,29.9L-159.6,29.9z M-159.6,29.9"/>
</g>
<g>
	<path id="email_1_1_" class="st3" d="M-24,14.7c0-0.8-0.7-1.5-1.5-1.5h-29c-0.8,0-1.5,0.7-1.5,1.5v18.5c0,0.8,0.7,1.5,1.5,1.5h29
		c0.8,0,1.5-0.7,1.5-1.5V14.7z M-26,14.4L-40,26l-14-11.7H-26z M-25.1,33.6h-29.7V15.2l10.2,8.5c2.5,2.1,4.3,3.5,4.3,3.6
		c0.2,0.2,0.5,0.2,0.7,0l14.5-12.1V33.6z"/>
</g>
<g>
	<path class="st0" d="M26.5,28.9c1.9,0,3.5-1.6,3.5-3.5V12.8c0-1.9-1.6-3.5-3.5-3.5c-1.9,0-3.5,1.6-3.5,3.5v12.6
		C23,27.3,24.6,28.9,26.5,28.9z"/>
	<path class="st0" d="M37.1,13.2L37.1,13.2c-1.2-1-3.1-0.8-4.1,0.5c-1,1.3-0.8,3.1,0.5,4.1c2.7,2.2,4.3,5.4,4.3,8.9
		c0,6.2-5.1,11.3-11.3,11.3c-6.2,0-11.3-5.1-11.3-11.3c0-3.5,1.6-6.7,4.3-8.9c1.2-1,1.5-2.8,0.5-4.1c-1-1.2-2.8-1.5-4.1-0.5
		c-4.1,3.3-6.5,8.2-6.5,13.4c0,9.4,7.7,17.1,17.1,17.1c9.4,0,17.1-7.7,17.1-17.1C43.6,21.3,41.2,16.4,37.1,13.2z"/>
</g>
</svg>
