<?xml version="1.0" encoding="utf-8"?>
<!-- Generator: Adobe Illustrator 21.0.0, SVG Export Plug-In . SVG Version: 6.00 Build 0)  -->
<svg version="1.1" id="Capa_1" xmlns="http://www.w3.org/2000/svg" xmlns:xlink="http://www.w3.org/1999/xlink" x="0px" y="0px"
	 viewBox="0 0 48 48" style="enable-background:new 0 0 48 48;" xml:space="preserve">
<style type="text/css">
	.st0{fill:#008AD3;}
	.st1{fill:#43494E;}
	.st2{fill:#C7C7C7;}
	.st3{fill:#FFFFFF;}
</style>
<g>
	<path class="st2" d="M39.2,44.5H8.8c-2.9,0-5.3-2.4-5.3-5.3V8.8c0-2.9,2.4-5.3,5.3-5.3h30.3c2.9,0,5.3,2.4,5.3,5.3v30.3
		C44.5,42.1,42.1,44.5,39.2,44.5z"/>
	<path class="st3" d="M20.1,20.4l-4.9-4.9c0.6-0.6,1.3-1.3,1.9-1.9c0.3-0.3,0.8-0.3,1.1,0l3.8,3.8c0.3,0.3,0.3,0.8,0,1.1l-1.6,1.6
		C20.2,20.2,20.1,20.3,20.1,20.4L20.1,20.4z M24.1,28.4c-0.8-0.7-1.6-1.4-2.3-2.2c-0.7-0.8-1.5-1.5-2.2-2.3
		c-0.6-0.7-0.7-1.6-0.4-2.4l-5-5c-1.2,1.2-1,4.2,0.3,6.8c0.6,1.1,1.3,2.2,2,3.1c0.7,1,1.5,1.9,2.4,2.7c0.9,0.9,1.8,1.7,2.7,2.4
		c1,0.7,2,1.4,3.1,2c2.6,1.3,5.6,1.4,6.8,0.3l-5-5C25.7,29.1,24.7,29,24.1,28.4L24.1,28.4z M34.4,29.9l-3.8-3.8
		c-0.3-0.3-0.8-0.3-1.1,0l-0.8,0.8l-0.8,0.8c-0.1,0.1-0.2,0.2-0.3,0.3l4.9,4.9c0.6-0.6,1.3-1.3,1.9-1.9
		C34.7,30.7,34.7,30.2,34.4,29.9L34.4,29.9z M34.4,29.9"/>
</g>
</svg>
