<?xml version="1.0" encoding="utf-8"?>
<!-- Generator: Adobe Illustrator 20.1.0, SVG Export Plug-In . SVG Version: 6.00 Build 0)  -->
<svg version="1.1" id="Capa_1" xmlns="http://www.w3.org/2000/svg" xmlns:xlink="http://www.w3.org/1999/xlink" x="0px" y="0px"
	 viewBox="0 0 121 121" style="enable-background:new 0 0 121 121;" xml:space="preserve">
<style type="text/css">
	.st0{clip-path:url(#SVGID_2_);fill:#8D8D8D;}
</style>
<g>
	<g>
		<defs>
			<rect id="SVGID_1_" x="10.5" y="10.5" width="100" height="100"/>
		</defs>
		<clipPath id="SVGID_2_">
			<use xlink:href="#SVGID_1_"  style="overflow:visible;"/>
		</clipPath>
		<path class="st0" d="M90.5,10.5h-60c-11,0-20,9-20,20v60c0,11,9,20,20,20h60c11,0,20-9,20-20v-60C110.5,19.5,101.5,10.5,90.5,10.5
			L90.5,10.5z M88.5,44.5h-6c-4.3,0-6,1-6,4v6h12l-2,12h-10v40h-14v-40h-6v-12h6v-6c0-9.4,3.2-16,14-16c5.8,0,12,2,12,2L88.5,44.5z"
			/>
	</g>
</g>
</svg>
