<?xml version="1.0" encoding="utf-8"?>
<!-- Generator: Adobe Illustrator 20.1.0, SVG Export Plug-In . SVG Version: 6.00 Build 0)  -->
<svg version="1.1" id="Capa_1" xmlns="http://www.w3.org/2000/svg" xmlns:xlink="http://www.w3.org/1999/xlink" x="0px" y="0px"
	 viewBox="0 0 282.8 97.2" style="enable-background:new 0 0 282.8 97.2;" xml:space="preserve">
<style type="text/css">
	.st0{display:none;}
	.st1{fill:#93C731;}
	.st2{fill:#4F4F51;}
</style>
<g>
	<g>
		<g>
			<path class="st1" d="M100.4,46.5h-3.6l3-17.1h8c0.9,0,1.7,0.1,2.4,0.4c0.7,0.3,1.2,0.7,1.6,1.2s0.6,1.1,0.8,1.7
				c0.1,0.7,0.1,1.4,0,2.1c-0.1,0.8-0.4,1.5-0.8,2.1c-0.4,0.7-0.8,1.2-1.4,1.7c-0.6,0.5-1.2,0.9-2,1.2c-0.8,0.3-1.6,0.4-2.5,0.4
				h-4.4L100.4,46.5z M105.9,37.2c0.7,0,1.4-0.2,1.9-0.6c0.6-0.4,0.9-1,1-1.7c0.1-0.7,0-1.3-0.4-1.7c-0.4-0.4-1-0.6-1.7-0.6h-3.8
				l-0.8,4.6H105.9z"/>
			<path class="st1" d="M123.5,46.5h-10.9l3-17.1h3.7l-2.4,13.9h7.2L123.5,46.5z"/>
			<path class="st1" d="M141.9,46.5h-4.1l-0.6-2.9h-7.3l-1.6,2.9h-4.1l9.6-17.1h4.6L141.9,46.5z M136.8,40.4l-1.4-7.4l-4,7.4H136.8z
				"/>
			<path class="st1" d="M158.7,46.5h-3.5l-6.2-11.1l-2,11.1h-3.6l3-17.1h3.7l6,10.7l1.9-10.7h3.6L158.7,46.5z"/>
			<path class="st1" d="M174.2,46.5h-12.1l3-17.1h12.1l-0.6,3.2h-8.5l-0.6,3.6h8.3l-0.6,3.2H167l-0.7,3.9h8.5L174.2,46.5z"/>
			<path class="st1" d="M183.1,46.8c-3,0-5.3-0.9-6.8-2.7l2.5-2.8c0.5,0.7,1.2,1.3,2.1,1.7s1.8,0.7,2.9,0.7c1,0,1.7-0.2,2.3-0.5
				c0.6-0.4,0.9-0.8,1-1.4c0.1-0.4,0-0.7-0.3-0.9c-0.2-0.3-0.6-0.5-1-0.6c-0.4-0.1-0.9-0.3-1.5-0.4c-0.6-0.2-1.1-0.3-1.7-0.4
				c-0.6-0.1-1.2-0.3-1.7-0.6c-0.5-0.3-1-0.6-1.4-0.9c-0.4-0.3-0.7-0.8-0.9-1.4c-0.2-0.6-0.2-1.3-0.1-2c0.3-1.5,1.1-2.7,2.4-3.7
				c1.4-1,3-1.5,5-1.5c2.7,0,4.8,0.8,6.2,2.4l-2.5,2.7c-0.6-0.6-1.3-1.1-2.1-1.4c-0.8-0.3-1.7-0.5-2.6-0.5c-0.8,0-1.4,0.2-1.9,0.5
				c-0.5,0.3-0.8,0.7-0.9,1.2c-0.1,0.3,0,0.6,0.3,0.8c0.2,0.2,0.6,0.4,1,0.5c0.4,0.1,0.9,0.3,1.5,0.4c0.6,0.2,1.1,0.3,1.7,0.4
				c0.6,0.1,1.1,0.3,1.7,0.6c0.5,0.3,1,0.6,1.4,0.9s0.7,0.8,0.9,1.4c0.2,0.6,0.2,1.3,0.1,2c-0.3,1.6-1.1,3-2.5,4
				C187.1,46.3,185.3,46.8,183.1,46.8z"/>
		</g>
		<g>
			<path class="st2" d="M101.7,67.9h-5.8l3-17.1h5.8c1.7,0,3.2,0.4,4.4,1.1c1.2,0.8,2.1,1.8,2.5,3.1c0.5,1.3,0.6,2.7,0.3,4.4
				c-0.2,1.2-0.6,2.3-1.2,3.4c-0.6,1-1.3,1.9-2.2,2.7c-0.9,0.8-1.9,1.4-3.1,1.8C104.3,67.7,103,67.9,101.7,67.9z M102,66
				c1.3,0,2.6-0.3,3.7-0.9c1.1-0.6,2-1.4,2.7-2.4c0.7-1,1.1-2.1,1.3-3.3c0.2-1.2,0.2-2.4-0.2-3.4c-0.3-1-0.9-1.8-1.8-2.4
				c-0.9-0.6-2-0.9-3.4-0.9h-3.7L98.3,66H102z"/>
			<path class="st2" d="M125,67.9h-11.2l3-17.1H128l-0.3,1.9h-9.1l-1,5.5h8.9l-0.3,1.9h-8.9l-1,5.9h9.1L125,67.9z"/>
			<path class="st2" d="M149.1,67.9h-2.1l-7.5-13.6l-2.4,13.6H135l3-17.1h2.2l7.5,13.3l2.4-13.3h2.1L149.1,67.9z"/>
			<path class="st2" d="M164.3,67.9h-11.2l3-17.1h11.2l-0.3,1.9h-9.1l-1,5.5h8.9l-0.3,1.9h-8.9l-1,5.9h9.1L164.3,67.9z"/>
			<path class="st2" d="M175.7,68.2c-1.2,0-2.3-0.2-3.3-0.6c-1-0.4-1.8-1-2.5-1.8c-0.7-0.8-1.1-1.7-1.4-2.8
				c-0.3-1.1-0.3-2.3-0.1-3.6c0.2-1.3,0.7-2.5,1.3-3.6c0.7-1.1,1.4-2,2.4-2.8c0.9-0.8,2-1.4,3.1-1.8s2.3-0.6,3.5-0.6
				c2.7,0,4.7,1.1,6.1,3.2l-1.9,1.1c-0.4-0.7-1-1.3-1.8-1.7c-0.8-0.4-1.7-0.6-2.7-0.6c-1.9,0-3.6,0.6-5,1.9c-1.5,1.3-2.4,3-2.8,5
				c-0.2,1.3-0.2,2.5,0.2,3.6c0.4,1.1,1,1.9,1.9,2.5c0.9,0.6,2,0.9,3.2,0.9c0.9,0,1.9-0.2,2.7-0.5c0.9-0.4,1.6-0.8,2.2-1.3l0.6-3.5
				h-5.9l0.3-1.9h8l-1.1,6.1c-1,0.9-2.1,1.7-3.3,2.2C178.3,68,177,68.2,175.7,68.2z"/>
			<path class="st2" d="M198.3,67.1c-1.4,0.8-3,1.2-4.6,1.2c-1.7,0-3.1-0.4-4.2-1.2c-1.2-0.8-2-1.8-2.4-3.2
				c-0.5-1.3-0.6-2.8-0.3-4.5c0.3-1.7,0.9-3.2,1.9-4.5c0.9-1.3,2.1-2.4,3.6-3.2c1.4-0.8,3-1.2,4.6-1.2c1.6,0,3.1,0.4,4.2,1.2
				c1.2,0.8,2,1.8,2.5,3.2c0.5,1.3,0.6,2.8,0.3,4.5c-0.3,1.7-0.9,3.2-1.9,4.5C200.9,65.2,199.7,66.3,198.3,67.1z M190.8,65.4
				c0.9,0.6,1.9,0.9,3.2,0.9c1.2,0,2.4-0.3,3.5-0.9c1.1-0.6,2-1.4,2.7-2.5c0.7-1,1.2-2.2,1.4-3.6c0.4-2,0.1-3.7-0.9-5
				c-0.9-1.3-2.3-2-4.2-2c-1.9,0-3.5,0.7-4.9,2s-2.2,3-2.6,5c-0.2,1.3-0.2,2.5,0.1,3.6C189.4,64,190,64.8,190.8,65.4z"/>
			<path class="st2" d="M213.5,68.2c-1.2,0-2.3-0.2-3.3-0.7s-1.8-1-2.5-1.8c-0.6-0.8-1.1-1.7-1.4-2.8c-0.3-1.1-0.3-2.3-0.1-3.6
				c0.2-1.3,0.7-2.5,1.3-3.6c0.7-1.1,1.4-2,2.4-2.8c0.9-0.8,2-1.4,3.1-1.8c1.2-0.4,2.3-0.7,3.6-0.7c2.7,0,4.7,1.1,5.9,3.4l-1.9,1
				c-0.4-0.8-0.9-1.4-1.7-1.8c-0.8-0.5-1.6-0.7-2.6-0.7c-1.9,0-3.6,0.6-5,1.9c-1.5,1.3-2.4,3-2.8,5c-0.2,1.3-0.2,2.5,0.2,3.6
				c0.4,1.1,1,1.9,1.9,2.5c0.9,0.6,2,0.9,3.2,0.9c1,0,1.9-0.2,2.8-0.7c0.9-0.5,1.7-1.1,2.3-1.8l1.6,1
				C218.6,67.1,216.2,68.2,213.5,68.2z"/>
			<path class="st2" d="M224.9,67.9h-2.1l3-17.1h2.1L224.9,67.9z"/>
			<path class="st2" d="M241.3,67.1c-1.4,0.8-3,1.2-4.6,1.2c-1.7,0-3.1-0.4-4.2-1.2c-1.2-0.8-2-1.8-2.4-3.2
				c-0.5-1.3-0.6-2.8-0.3-4.5c0.3-1.7,0.9-3.2,1.9-4.5c0.9-1.3,2.1-2.4,3.6-3.2c1.4-0.8,3-1.2,4.6-1.2c1.6,0,3.1,0.4,4.2,1.2
				c1.2,0.8,2,1.8,2.5,3.2c0.5,1.3,0.6,2.8,0.3,4.5c-0.3,1.7-0.9,3.2-1.9,4.5C243.9,65.2,242.7,66.3,241.3,67.1z M233.8,65.4
				c0.9,0.6,1.9,0.9,3.2,0.9c1.2,0,2.4-0.3,3.5-0.9c1.1-0.6,2-1.4,2.7-2.5c0.7-1,1.2-2.2,1.4-3.6c0.4-2,0.1-3.7-0.9-5
				c-0.9-1.3-2.3-2-4.2-2c-1.9,0-3.5,0.7-4.9,2s-2.2,3-2.6,5c-0.2,1.3-0.2,2.5,0.1,3.6C232.4,64,233,64.8,233.8,65.4z"/>
			<path class="st2" d="M254,68.2c-1.4,0-2.6-0.2-3.6-0.7c-1-0.5-1.8-1.2-2.4-2l1.6-1.6c0.5,0.7,1.2,1.3,2,1.8
				c0.8,0.5,1.8,0.7,2.9,0.7c0.7,0,1.4-0.1,2-0.3s1-0.4,1.4-0.7c0.3-0.3,0.6-0.6,0.8-0.9c0.2-0.3,0.3-0.7,0.4-1
				c0.1-0.5,0-0.9-0.1-1.2c-0.2-0.4-0.4-0.6-0.8-0.9c-0.4-0.2-0.8-0.4-1.2-0.6c-0.5-0.2-1-0.3-1.5-0.5c-0.5-0.2-1.1-0.3-1.6-0.5
				c-0.5-0.2-1-0.4-1.5-0.6c-0.5-0.2-0.9-0.5-1.2-0.8c-0.3-0.3-0.6-0.7-0.7-1.2c-0.1-0.5-0.2-1.1,0-1.7c0.2-1.4,1-2.5,2.3-3.4
				c1.3-0.9,2.8-1.3,4.5-1.3c2.5,0,4.4,0.8,5.6,2.4l-1.6,1.6c-1-1.4-2.5-2.1-4.6-2.1c-1,0-1.9,0.3-2.7,0.8c-0.8,0.5-1.2,1.2-1.3,2
				c-0.1,0.4,0,0.8,0.2,1.1c0.2,0.3,0.4,0.6,0.8,0.8c0.4,0.2,0.8,0.4,1.2,0.5c0.5,0.2,1,0.3,1.5,0.5s1.1,0.3,1.6,0.5
				c0.5,0.2,1,0.4,1.5,0.7c0.5,0.3,0.9,0.6,1.2,0.9c0.3,0.3,0.6,0.8,0.7,1.3c0.1,0.5,0.1,1.1,0,1.8c-0.1,0.7-0.3,1.3-0.7,1.8
				c-0.3,0.6-0.8,1.1-1.3,1.6c-0.6,0.5-1.3,0.9-2.2,1.2C256.1,68.1,255.1,68.2,254,68.2z"/>
		</g>
	</g>
	<path class="st2" d="M87.7,68.5c-0.4-0.4-0.7-0.9-1.1-1.3c-1.1-1.4-2.3-2.7-3.4-4.1c-1.7-2-3.5-4-5.2-6.1c-0.1-0.2-0.1-1.1-0.1-1.3
		c0-1.2,0-2.3,0-3.5c0-3.6,0-7.1,0-10.7c0-3.6,0-7.1,0-10.7c0-1.2,0-2.3,0-3.5c0-0.5,0.1-1.6,0-2.1c-0.3-1.5-2.7-1.6-3.9-1.6
		c-2.6,0-5.3,0-7.9,0c-7.5,0-14.9,0-22.4,0c-5,0-10,0-14.9,0c-0.9,0-1.9,1.4-1.9,2.5c0,0.5,0,1,0,1.4c0,2.9,0,5.8,0,8.7
		c0,2.5,0,4.9,0,7.4c0,4.1,0,8.2,0,12.3v1.3c-1,0.6-1.1,1.3-1.7,1.9c-2.3,2.7-4.6,5.4-6.9,8.2c-0.3,0.4-0.7,0.8-1,1.2
		c-0.1,0.2-0.5,0-0.4,0.2c0.1,0.4,0.1,0.9,0.2,0.9h0l0.1,1.4c0,0.1,0,0.5,0,0.6l0,0.2c0,0,0,0.1,0,0.1c0,0,0,0,0,0.1
		c0,0.2,0.2,0.2,0.4,0.5c0.3,0.4,1,0.2,1.4,0.2c0.5,0,0.9,0,1.4,0c2,0,4,0,6,0c6.7,0,13.4,0,20.1,0c7.6,0,15.1,0,22.7,0
		c5.1,0,10.2,0,15.2,0c0,0,2.5,0.7,3-0.7c0,0,0,0.2,0,0.2c0.2,0,0.5-2.8,0.5-3.1C88.2,68.9,87.9,68.7,87.7,68.5z M57.5,71.2
		c-3.3-0.1-6.7-0.2-10-0.1c-1.7,0-2.1-0.4-1.7-2.4c4.6,0,9.1,0,13.5,0C59.6,70.7,59,71.2,57.5,71.2z M76,54.7h-3.3
		c-1.4,0-2.9,0-4.3,0c-1.4,0-2.8,0-4.2,0c-7.5,0-15,0-22.5,0c-3.5,0-6.9,0-10.4,0c-0.5,0-1.1,0-1.6,0H29v-29h0.3c0.7,0,1.3,0,2,0
		c4.1,0,8.2,0,12.3,0c7.5,0,15,0,22.4,0c2.7,0,5.3,0,8,0c0.7,0,1,0,2,0V54.7z"/>
</g>
</svg>
