<?xml version="1.0" encoding="utf-8"?>
<!-- Generator: Adobe Illustrator 20.1.0, SVG Export Plug-In . SVG Version: 6.00 Build 0)  -->
<svg version="1.1" id="Capa_1" xmlns="http://www.w3.org/2000/svg" xmlns:xlink="http://www.w3.org/1999/xlink" x="0px" y="0px"
	 viewBox="0 0 282.8 97.2" style="enable-background:new 0 0 282.8 97.2;" xml:space="preserve">
<style type="text/css">
	.st0{display:none;}
	.st1{fill:#93C731;}
	.st2{fill:#4F4F51;}
</style>
<g>
	<path class="st1" d="M49.8,33.6H37.2c-0.5,0-0.9-0.4-0.9-0.9V27c0-0.4-0.5-0.6-0.8-0.3L26.6,33c-0.3,0.2-0.9,0.6-1.3,0.9l-8.1,5.9
		c-0.6,0.5-0.6,1.2,0,1.7l8.1,5.9c0.3,0.2,0.9,0.6,1.2,0.9l8.9,6.3c0.3,0.2,0.8,0.1,0.8-0.3v-6.1c0-0.3,0.3-0.6,0.6-0.6h12.9
		c0.3,0,0.5-0.2,0.5-0.5v-13C50.3,33.8,50.1,33.6,49.8,33.6z"/>
	<g>
		<path class="st2" d="M41.8,49.6h12.6c0.5,0,0.9-0.4,0.9-0.9V43c0-0.4,0.5-0.6,0.8-0.3L65,49c0.3,0.2,0.9,0.6,1.3,0.9l8.1,5.9
			c0.6,0.5,0.6,1.2,0,1.7l-8.1,5.9c-0.3,0.2-0.9,0.6-1.2,0.9l-8.9,6.3c-0.3,0.2-0.8,0.1-0.8-0.3v-6.1c0-0.3-0.3-0.6-0.6-0.6H41.8
			c-0.3,0-0.5-0.2-0.5-0.5v-13C41.3,49.8,41.5,49.6,41.8,49.6z"/>
		<g>
			<path class="st1" d="M90.1,47.2H86l-0.6-2.9h-7.3l-1.6,2.9h-4.1L82,30.1h4.6L90.1,47.2z M85,41.1l-1.4-7.4l-4,7.4H85z"/>
			<path class="st1" d="M97.6,47.2H94l2.4-13.9h-5l0.6-3.2h13.6l-0.6,3.2h-5L97.6,47.2z"/>
			<path class="st1" d="M117,47.2h-12.1l3-17.1H120l-0.6,3.2H111l-0.6,3.6h8.3l-0.6,3.2h-8.3l-0.7,3.9h8.5L117,47.2z"/>
			<path class="st1" d="M135.1,47.2h-3.5l-6.2-11.1l-2,11.1h-3.6l3-17.1h3.7l6,10.7l1.9-10.7h3.6L135.1,47.2z"/>
			<path class="st1" d="M146.8,47.5c-1.3,0-2.4-0.2-3.5-0.7c-1-0.4-1.9-1-2.6-1.8c-0.7-0.8-1.2-1.7-1.4-2.8s-0.3-2.3-0.1-3.6
				c0.3-1.7,1-3.3,2-4.6c1-1.4,2.3-2.4,3.8-3.1c1.5-0.7,3.1-1.1,4.8-1.1c0.9,0,1.7,0.1,2.4,0.3c0.7,0.2,1.3,0.5,1.8,1
				c0.5,0.4,0.9,0.8,1.3,1.3c0.3,0.5,0.6,1,0.8,1.6l-3.4,1.5c-0.2-0.7-0.7-1.3-1.3-1.8c-0.6-0.5-1.4-0.7-2.2-0.7
				c-1.6,0-2.9,0.5-4.1,1.6c-1.2,1.1-1.9,2.4-2.2,4c-0.3,1.6,0,3,0.8,4c0.8,1.1,2,1.6,3.6,1.6c0.8,0,1.7-0.2,2.5-0.7
				c0.8-0.5,1.5-1.1,2-1.8l2.9,1.5c-0.4,0.6-0.9,1.1-1.4,1.6c-0.5,0.5-1.1,0.9-1.7,1.3c-0.6,0.4-1.4,0.7-2.2,1
				S147.7,47.5,146.8,47.5z"/>
			<path class="st1" d="M159.7,47.2h-3.6l3-17.1h3.6L159.7,47.2z"/>
			<path class="st1" d="M171.2,47.5c-1.3,0-2.4-0.2-3.5-0.7c-1-0.4-1.9-1-2.5-1.8c-0.6-0.8-1.1-1.7-1.3-2.8c-0.3-1.1-0.3-2.3,0-3.6
				s0.7-2.5,1.3-3.6c0.6-1.1,1.4-2,2.3-2.8c0.9-0.8,2-1.4,3.2-1.8s2.4-0.7,3.7-0.7c1.7,0,3.2,0.4,4.4,1.1c1.2,0.8,2.1,1.8,2.6,3.2
				c0.5,1.4,0.6,2.9,0.3,4.6c-0.3,1.7-0.9,3.2-2,4.6c-1,1.4-2.3,2.4-3.7,3.2C174.4,47.1,172.9,47.5,171.2,47.5z M171.7,44.3
				c1.6,0,2.9-0.5,4-1.6c1.1-1.1,1.8-2.4,2.1-4c0.3-1.6,0-3-0.7-4c-0.8-1.1-1.9-1.6-3.5-1.6c-1.6,0-2.9,0.5-4,1.6
				c-1.1,1.1-1.8,2.4-2.1,4c-0.3,1.6,0,3,0.7,4C169,43.8,170.2,44.3,171.7,44.3z M179.5,24.9l-4.8,3.7h-2.3l4.1-3.7H179.5z"/>
			<path class="st1" d="M198,47.2h-3.5l-6.2-11.1l-2,11.1h-3.6l3-17.1h3.7l6,10.7l1.9-10.7h3.6L198,47.2z"/>
		</g>
		<g>
			<path class="st2" d="M87.4,66.9h-1.8l2.6-14.8h5.9c1.4,0,2.5,0.4,3.2,1.3s0.9,1.9,0.7,3.2c-0.2,1.3-0.8,2.3-1.8,3.2
				c-1,0.9-2.2,1.3-3.6,1.3h-4.1L87.4,66.9z M92.6,59.4c0.9,0,1.6-0.3,2.3-0.8s1-1.2,1.2-2s0-1.5-0.5-2c-0.5-0.5-1.1-0.8-2-0.8h-3.9
				l-1,5.6H92.6z"/>
			<path class="st2" d="M108.2,66.9h-9.7l2.6-14.8h9.7l-0.3,1.6h-7.8l-0.8,4.8h7.7l-0.3,1.6h-7.7l-0.9,5.1h7.8L108.2,66.9z"/>
			<path class="st2" d="M121.9,66.9h-2.2L117,61h-3l-1,5.9h-1.8l2.6-14.8h5.9c1.4,0,2.4,0.4,3.1,1.2s1,1.9,0.7,3.2
				c-0.1,0.6-0.3,1.2-0.6,1.8c-0.3,0.5-0.7,1-1.1,1.3c-0.4,0.4-0.9,0.6-1.4,0.8c-0.5,0.2-1,0.3-1.5,0.4L121.9,66.9z M118.2,59.4
				c0.9,0,1.6-0.3,2.3-0.8c0.6-0.5,1-1.2,1.2-2s0-1.5-0.5-2c-0.5-0.5-1.1-0.8-2-0.8h-3.9l-1,5.6H118.2z"/>
			<path class="st2" d="M129.4,67.2c-1.2,0-2.3-0.2-3.2-0.6c-0.9-0.4-1.6-1-2.1-1.7l1.4-1.4c0.4,0.6,1,1.1,1.7,1.5s1.6,0.6,2.5,0.6
				c0.6,0,1.2-0.1,1.7-0.2c0.5-0.2,0.9-0.4,1.2-0.6c0.3-0.3,0.5-0.5,0.7-0.8c0.2-0.3,0.3-0.6,0.3-0.9c0.1-0.4,0-0.8-0.1-1.1
				c-0.1-0.3-0.4-0.6-0.7-0.7c-0.3-0.2-0.7-0.4-1.1-0.5c-0.4-0.1-0.8-0.3-1.3-0.4c-0.5-0.1-0.9-0.3-1.4-0.4
				c-0.5-0.1-0.9-0.3-1.3-0.5c-0.4-0.2-0.7-0.5-1-0.7c-0.3-0.3-0.5-0.6-0.6-1.1c-0.1-0.4-0.1-0.9,0-1.5c0.2-1.2,0.9-2.2,2-3
				s2.4-1.2,3.9-1.2c2.2,0,3.8,0.7,4.9,2.1l-1.3,1.4c-0.8-1.2-2.2-1.8-4-1.8c-0.9,0-1.6,0.2-2.3,0.7c-0.7,0.4-1,1-1.2,1.7
				c-0.1,0.4,0,0.7,0.1,0.9c0.2,0.3,0.4,0.5,0.7,0.7c0.3,0.2,0.7,0.3,1.1,0.5c0.4,0.1,0.8,0.3,1.3,0.4c0.5,0.1,0.9,0.3,1.4,0.4
				c0.5,0.1,0.9,0.3,1.3,0.6c0.4,0.2,0.7,0.5,1,0.8c0.3,0.3,0.5,0.7,0.6,1.1c0.1,0.5,0.1,1,0,1.6c-0.1,0.6-0.3,1.1-0.6,1.6
				c-0.3,0.5-0.7,1-1.2,1.4c-0.5,0.4-1.1,0.8-1.9,1C131.2,67.1,130.3,67.2,129.4,67.2z"/>
			<path class="st2" d="M148.3,66.2c-1.2,0.7-2.6,1-4,1c-1.4,0-2.6-0.3-3.6-1c-1-0.7-1.7-1.6-2.1-2.7c-0.4-1.2-0.5-2.5-0.2-3.9
				c0.3-1.4,0.8-2.7,1.6-3.9c0.8-1.2,1.8-2.1,3.1-2.7c1.2-0.7,2.6-1,4-1c1.4,0,2.6,0.3,3.7,1c1,0.7,1.7,1.6,2.1,2.7
				c0.4,1.2,0.5,2.5,0.2,3.9c-0.3,1.4-0.8,2.7-1.6,3.9C150.6,64.6,149.6,65.5,148.3,66.2z M141.9,64.7c0.7,0.5,1.6,0.8,2.7,0.8
				s2.1-0.3,3-0.8c0.9-0.5,1.7-1.2,2.3-2.1c0.6-0.9,1-1.9,1.2-3.1c0.3-1.7,0.1-3.2-0.7-4.3s-2-1.7-3.7-1.7c-1.6,0-3,0.6-4.2,1.7
				c-1.2,1.1-1.9,2.6-2.2,4.3c-0.2,1.1-0.2,2.2,0.1,3.1C140.6,63.5,141.1,64.2,141.9,64.7z"/>
			<path class="st2" d="M166.8,66.9H165l-6.5-11.8l-2.1,11.8h-1.8l2.6-14.8h1.9l6.5,11.5l2-11.5h1.8L166.8,66.9z"/>
			<path class="st2" d="M182.9,66.9h-2.1l-0.7-3.3h-7.4l-1.9,3.3h-2.1l8.6-14.8h2.3L182.9,66.9z M179.8,62l-1.7-8l-4.5,8H179.8z"/>
			<path class="st2" d="M193.3,66.9h-8.7l2.6-14.8h1.8l-2.3,13.1h6.9L193.3,66.9z"/>
			<path class="st2" d="M197.6,66.9h-1.8l2.6-14.8h1.8L197.6,66.9z"/>
			<path class="st2" d="M211.2,66.9h-10.8l0.3-1.5L211,53.8h-8.3l0.3-1.6h10.7l-0.3,1.5L203,65.3h8.5L211.2,66.9z"/>
			<path class="st2" d="M226.7,66.9h-2.1l-0.7-3.3h-7.4l-1.9,3.3h-2.1l8.6-14.8h2.3L226.7,66.9z M223.6,62l-1.7-8l-4.5,8H223.6z"/>
			<path class="st2" d="M233.6,66.9h-5.1l2.6-14.8h5.1c1.5,0,2.8,0.3,3.8,1c1,0.7,1.8,1.5,2.2,2.7c0.4,1.1,0.5,2.4,0.3,3.8
				c-0.2,1-0.5,2-1.1,2.9c-0.5,0.9-1.2,1.7-1.9,2.3c-0.8,0.7-1.7,1.2-2.7,1.5S234.8,66.9,233.6,66.9z M233.9,65.3
				c1.2,0,2.2-0.3,3.2-0.8c1-0.5,1.7-1.2,2.3-2.1s1-1.8,1.2-2.9c0.2-1.1,0.1-2.1-0.1-2.9c-0.3-0.9-0.8-1.5-1.6-2.1s-1.8-0.8-2.9-0.8
				h-3.2l-2,11.5H233.9z"/>
			<path class="st2" d="M255.9,66.9h-2.1l-0.7-3.3h-7.4l-1.9,3.3h-2.1l8.6-14.8h2.3L255.9,66.9z M252.8,62l-1.7-8l-4.5,8H252.8z"/>
		</g>
	</g>
</g>
</svg>
