<?xml version="1.0" encoding="utf-8"?>
<!-- Generator: Adobe Illustrator 20.1.0, SVG Export Plug-In . SVG Version: 6.00 Build 0)  -->
<svg version="1.1" id="Capa_1" xmlns="http://www.w3.org/2000/svg" xmlns:xlink="http://www.w3.org/1999/xlink" x="0px" y="0px"
	 viewBox="0 0 282.8 97.2" style="enable-background:new 0 0 282.8 97.2;" xml:space="preserve">
<style type="text/css">
	.st0{display:none;}
	.st1{fill:#93C731;}
	.st2{fill:#4F4F51;}
</style>
<g>
	<g>
		<path class="st2" d="M39.7,72.3H29.5c-0.6,0-1-0.4-1-1V57.8c0-0.6,0.4-1,1-1h10.2c0.6,0,1,0.4,1,1v13.5
			C40.7,71.9,40.3,72.3,39.7,72.3z"/>
		<path class="st2" d="M56.8,72.3H46.6c-0.6,0-1-0.4-1-1V44.6c0-0.6,0.4-1,1-1h10.2c0.6,0,1,0.4,1,1v26.7
			C57.8,71.9,57.4,72.3,56.8,72.3z"/>
		<path class="st1" d="M81,39c0.4,0,0.5-0.3,0.3-0.7l-5.8-8.1c-0.2-0.3-0.6-0.8-0.8-1.2l-5.8-7.9c-0.2-0.3-0.6-0.3-0.8,0l-5.8,8
			c-0.2,0.3-0.6,0.8-0.8,1.1l-5.8,8.1C55.5,38.7,55.6,39,56,39h6c0.4,0,1,0.1,1,0.5v32.6c0,0.4,0,0.9,0.4,0.9H74c0.4,0,1-0.5,1-0.9
			V39.5c0-0.4,0-0.5,0.4-0.5H81z"/>
	</g>
	<g>
		<g>
			<path class="st1" d="M108,52.2H95.9l3-17.1H111l-0.6,3.2H102l-0.6,3.6h8.3l-0.6,3.2h-8.3l-0.7,3.9h8.5L108,52.2z"/>
			<path class="st1" d="M126.3,52.2h-4.4l-3.2-6.3l-5.4,6.3H109l7.7-8.8l-4.3-8.3h4.3l2.9,5.8l4.9-5.8h4.4l-7.3,8.3L126.3,52.2z"/>
			<path class="st1" d="M131.5,52.2h-3.6l3-17.1h8c0.9,0,1.7,0.1,2.4,0.4c0.7,0.3,1.2,0.7,1.6,1.2c0.4,0.5,0.6,1.1,0.8,1.7
				c0.1,0.7,0.1,1.4,0,2.1c-0.1,0.8-0.4,1.5-0.8,2.1s-0.8,1.2-1.4,1.7c-0.6,0.5-1.2,0.9-2,1.2c-0.8,0.3-1.6,0.4-2.5,0.4h-4.4
				L131.5,52.2z M137,42.9c0.7,0,1.4-0.2,1.9-0.6c0.6-0.4,0.9-1,1-1.7c0.1-0.7,0-1.3-0.4-1.7c-0.4-0.4-1-0.6-1.7-0.6H134l-0.8,4.6
				H137z"/>
			<path class="st1" d="M156,52.2h-12.1l3-17.1H159l-0.6,3.2H150l-0.6,3.6h8.3l-0.6,3.2h-8.3l-0.7,3.9h8.5L156,52.2z"/>
			<path class="st1" d="M172.7,52.2h-4.2l-2.3-6.1h-2.7l-1.1,6.1h-3.6l3-17.1h8c1.8,0,3.1,0.5,3.9,1.5s1.2,2.3,0.9,4
				c-0.1,0.7-0.4,1.4-0.7,2s-0.7,1.1-1.1,1.5c-0.4,0.4-0.9,0.7-1.4,1c-0.5,0.3-1,0.5-1.5,0.6L172.7,52.2z M167.9,42.9
				c0.7,0,1.4-0.2,1.9-0.6c0.6-0.4,0.9-1,1-1.7c0.1-0.7,0-1.2-0.4-1.7c-0.4-0.4-1-0.6-1.7-0.6h-3.8l-0.8,4.6H167.9z"/>
			<path class="st1" d="M182.6,52.2H179l2.4-13.9h-5l0.6-3.2h13.6l-0.6,3.2h-5L182.6,52.2z"/>
			<path class="st1" d="M197.4,52.5c-1.3,0-2.4-0.2-3.5-0.7c-1-0.4-1.9-1-2.5-1.8c-0.6-0.8-1.1-1.7-1.3-2.8c-0.3-1.1-0.3-2.3,0-3.6
				s0.7-2.5,1.3-3.6c0.6-1.1,1.4-2,2.3-2.8c0.9-0.8,2-1.4,3.2-1.8s2.4-0.7,3.7-0.7c1.7,0,3.2,0.4,4.4,1.1c1.2,0.8,2.1,1.8,2.6,3.2
				c0.5,1.4,0.6,2.9,0.3,4.6c-0.3,1.7-0.9,3.2-2,4.6c-1,1.4-2.3,2.4-3.7,3.2C200.7,52.1,199.1,52.5,197.4,52.5z M197.9,49.3
				c1.6,0,2.9-0.5,4-1.6c1.1-1.1,1.8-2.4,2.1-4c0.3-1.6,0-3-0.7-4c-0.8-1.1-1.9-1.6-3.5-1.6c-1.6,0-2.9,0.5-4,1.6
				c-1.1,1.1-1.8,2.4-2.1,4c-0.3,1.6,0,3,0.7,4C195.2,48.8,196.4,49.3,197.9,49.3z"/>
			<path class="st1" d="M214.9,52.5c-3,0-5.3-0.9-6.8-2.7l2.5-2.8c0.5,0.7,1.2,1.3,2.1,1.7s1.8,0.7,2.9,0.7c1,0,1.7-0.2,2.3-0.5
				c0.6-0.4,0.9-0.8,1-1.4c0.1-0.4,0-0.7-0.3-0.9c-0.2-0.3-0.6-0.5-1-0.6c-0.4-0.1-0.9-0.3-1.5-0.4c-0.6-0.2-1.1-0.3-1.7-0.4
				c-0.6-0.1-1.2-0.3-1.7-0.6c-0.5-0.3-1-0.6-1.4-0.9c-0.4-0.3-0.7-0.8-0.9-1.4c-0.2-0.6-0.2-1.3-0.1-2c0.3-1.5,1.1-2.7,2.4-3.7
				c1.4-1,3-1.5,5-1.5c2.7,0,4.8,0.8,6.2,2.4l-2.5,2.7c-0.6-0.6-1.3-1.1-2.1-1.4c-0.8-0.3-1.7-0.5-2.6-0.5c-0.8,0-1.4,0.2-1.9,0.5
				c-0.5,0.3-0.8,0.7-0.9,1.2c-0.1,0.3,0,0.6,0.3,0.8c0.2,0.2,0.6,0.4,1,0.5c0.4,0.1,0.9,0.3,1.5,0.4c0.6,0.2,1.1,0.3,1.7,0.4
				c0.6,0.1,1.1,0.3,1.7,0.6c0.5,0.3,1,0.6,1.4,0.9s0.7,0.8,0.9,1.4c0.2,0.6,0.2,1.3,0.1,2c-0.3,1.6-1.1,3-2.5,4
				C218.9,52,217.1,52.5,214.9,52.5z"/>
		</g>
		<g>
			<path class="st2" d="M105.1,72.7H93.9l3-17.1h11.2l-0.3,1.9h-9.1l-1,5.5h8.9l-0.3,1.9h-8.9l-1,5.9h9.1L105.1,72.7z"/>
			<path class="st2" d="M122.6,72.7h-2L113,59.1l-2.4,13.6h-2.1l3-17.1h2.2l7.5,13.3l2.4-13.3h2.1L122.6,72.7z"/>
			<path class="st2" d="M147.9,72.7h-2.4l-0.8-3.8h-8.5l-2.2,3.8h-2.4l9.9-17.1h2.6L147.9,72.7z M144.3,67l-2-9.2l-5.2,9.2H144.3z"
				/>
			<path class="st2" d="M155.2,73c-1.4,0-2.6-0.2-3.6-0.7c-1-0.5-1.8-1.2-2.4-2l1.6-1.6c0.5,0.7,1.2,1.3,2,1.8
				c0.8,0.5,1.8,0.7,2.9,0.7c0.7,0,1.4-0.1,2-0.3s1-0.4,1.4-0.7c0.3-0.3,0.6-0.6,0.8-0.9s0.3-0.7,0.4-1c0.1-0.5,0-0.9-0.1-1.2
				c-0.2-0.4-0.4-0.6-0.8-0.9c-0.4-0.2-0.8-0.4-1.2-0.6c-0.5-0.2-1-0.3-1.5-0.5c-0.5-0.2-1.1-0.3-1.6-0.5c-0.5-0.2-1-0.4-1.5-0.6
				c-0.5-0.2-0.9-0.5-1.2-0.8c-0.3-0.3-0.6-0.7-0.7-1.2c-0.1-0.5-0.2-1.1,0-1.7c0.2-1.4,1-2.5,2.3-3.4c1.3-0.9,2.8-1.3,4.5-1.3
				c2.5,0,4.4,0.8,5.6,2.4l-1.6,1.6c-1-1.4-2.5-2.1-4.6-2.1c-1,0-1.9,0.3-2.7,0.8c-0.8,0.5-1.2,1.2-1.3,2c-0.1,0.4,0,0.8,0.2,1.1
				c0.2,0.3,0.4,0.6,0.8,0.8c0.4,0.2,0.8,0.4,1.2,0.5c0.5,0.2,1,0.3,1.5,0.5s1.1,0.3,1.6,0.5c0.5,0.2,1,0.4,1.5,0.7
				c0.5,0.3,0.9,0.6,1.2,0.9c0.3,0.3,0.6,0.8,0.7,1.3c0.1,0.5,0.1,1.1,0,1.8c-0.1,0.7-0.3,1.3-0.7,1.8c-0.3,0.6-0.8,1.1-1.3,1.6
				c-0.6,0.5-1.3,0.9-2.2,1.2C157.3,72.9,156.3,73,155.2,73z"/>
			<path class="st2" d="M175.9,72.7h-11.2l3-17.1h11.2l-0.3,1.9h-9.1l-1,5.5h8.9l-0.3,1.9h-8.9l-1,5.9h9.1L175.9,72.7z"/>
			<path class="st2" d="M184.8,73c-1.4,0-2.6-0.2-3.6-0.7c-1-0.5-1.8-1.2-2.4-2l1.6-1.6c0.5,0.7,1.2,1.3,2,1.8
				c0.8,0.5,1.8,0.7,2.9,0.7c0.7,0,1.4-0.1,2-0.3s1-0.4,1.4-0.7c0.3-0.3,0.6-0.6,0.8-0.9s0.3-0.7,0.4-1c0.1-0.5,0-0.9-0.1-1.2
				c-0.2-0.4-0.4-0.6-0.8-0.9c-0.4-0.2-0.8-0.4-1.2-0.6c-0.5-0.2-1-0.3-1.5-0.5c-0.5-0.2-1.1-0.3-1.6-0.5c-0.5-0.2-1-0.4-1.5-0.6
				c-0.5-0.2-0.9-0.5-1.2-0.8c-0.3-0.3-0.6-0.7-0.7-1.2c-0.1-0.5-0.2-1.1,0-1.7c0.2-1.4,1-2.5,2.3-3.4c1.3-0.9,2.8-1.3,4.5-1.3
				c2.5,0,4.4,0.8,5.6,2.4l-1.6,1.6c-1-1.4-2.5-2.1-4.6-2.1c-1,0-1.9,0.3-2.7,0.8c-0.8,0.5-1.2,1.2-1.3,2c-0.1,0.4,0,0.8,0.2,1.1
				c0.2,0.3,0.4,0.6,0.8,0.8c0.4,0.2,0.8,0.4,1.2,0.5c0.5,0.2,1,0.3,1.5,0.5s1.1,0.3,1.6,0.5c0.5,0.2,1,0.4,1.5,0.7
				c0.5,0.3,0.9,0.6,1.2,0.9c0.3,0.3,0.6,0.8,0.7,1.3c0.1,0.5,0.1,1.1,0,1.8c-0.1,0.7-0.3,1.3-0.7,1.8c-0.3,0.6-0.8,1.1-1.3,1.6
				c-0.6,0.5-1.3,0.9-2.2,1.2C186.9,72.9,185.9,73,184.8,73z"/>
			<path class="st2" d="M206.7,71.9c-1.4,0.8-3,1.2-4.6,1.2c-1.7,0-3.1-0.4-4.2-1.2c-1.2-0.8-2-1.8-2.4-3.2s-0.6-2.8-0.3-4.5
				c0.3-1.7,0.9-3.2,1.9-4.5c0.9-1.3,2.1-2.4,3.6-3.2c1.4-0.8,3-1.2,4.6-1.2c1.6,0,3.1,0.4,4.2,1.2c1.2,0.8,2,1.8,2.5,3.2
				c0.5,1.3,0.6,2.8,0.3,4.5c-0.3,1.7-0.9,3.2-1.9,4.5S208.1,71.1,206.7,71.9z M199.2,70.2c0.9,0.6,1.9,0.9,3.2,0.9
				c1.2,0,2.4-0.3,3.5-0.9c1.1-0.6,2-1.4,2.7-2.5c0.7-1,1.2-2.2,1.4-3.6c0.4-2,0.1-3.7-0.9-5c-0.9-1.3-2.3-2-4.2-2
				c-1.9,0-3.5,0.7-4.9,2s-2.2,3-2.6,5c-0.2,1.3-0.2,2.5,0.1,3.6C197.8,68.8,198.4,69.6,199.2,70.2z"/>
			<path class="st2" d="M226.3,72.7h-2.5l-3.1-6.8h-3.4l-1.2,6.8h-2.1l3-17.1h6.9c1.6,0,2.8,0.5,3.6,1.4c0.8,0.9,1.1,2.2,0.8,3.7
				c-0.1,0.7-0.4,1.4-0.7,2c-0.4,0.6-0.8,1.1-1.3,1.5c-0.5,0.4-1,0.7-1.6,1c-0.6,0.2-1.2,0.4-1.8,0.4L226.3,72.7z M222,64
				c1,0,1.9-0.3,2.6-0.9c0.7-0.6,1.2-1.4,1.4-2.4c0.2-1,0-1.8-0.5-2.4c-0.5-0.6-1.3-0.9-2.3-0.9h-4.5l-1.2,6.5H222z"/>
			<path class="st2" d="M231.6,72.7h-2.1l3-17.1h2.1L231.6,72.7z M238.6,50.4l-5,3.7h-1.5l4.4-3.7H238.6z"/>
			<path class="st2" d="M250.2,72.7h-2.4l-0.8-3.8h-8.5l-2.2,3.8h-2.4l9.9-17.1h2.6L250.2,72.7z M246.7,67l-2-9.2l-5.2,9.2H246.7z"
				/>
		</g>
	</g>
</g>
</svg>
