<?xml version="1.0" encoding="utf-8"?>
<!-- Generator: Adobe Illustrator 21.0.0, SVG Export Plug-In . SVG Version: 6.00 Build 0)  -->
<svg version="1.1" id="Capa_1" xmlns="http://www.w3.org/2000/svg" xmlns:xlink="http://www.w3.org/1999/xlink" x="0px" y="0px"
	 viewBox="0 0 350 350" style="enable-background:new 0 0 350 350;" xml:space="preserve">
<style type="text/css">
	.st0{fill:#FFFFFF;}
	.st1{fill:#38C483;}
</style>
<g>
	<circle class="st0" cx="175" cy="175" r="163.5"/>
	<g>
		<g>
			<path class="st1" d="M256.6,208.8c-3.8-17.3-18.7-30.3-36.8-31.4h-39.4l27.8,27.8C221.8,217.2,241.7,218.4,256.6,208.8z"/>
			<path class="st1" d="M219.2,130.8c11.8-6.2,25.4-7.4,37.9-3.5c-2.5-17.7-16.6-31.7-34.3-34.1
				C226.6,105.5,225.4,119.1,219.2,130.8z"/>
			<path class="st1" d="M256.7,141.3c-14.9-9.7-34.7-8.6-48.4,3.4c-0.1,0.1-0.2,0.2-0.3,0.2L180,173.1h39.9
				C238.1,172,253,158.7,256.7,141.3z"/>
			<path class="st1" d="M93.5,141.2c3.6,17.5,18.6,30.8,36.9,31.9H170l-28.2-28.2C128.2,132.8,108.4,131.6,93.5,141.2z"/>
			<path class="st1" d="M93.6,208.9c14.8,9.5,34.5,8.3,48.1-3.6c0.1-0.1,0.2-0.2,0.3-0.2l27.7-27.7h-39.2
				C112.3,178.4,97.4,191.6,93.6,208.9z"/>
			<path class="st1" d="M205.1,208.1l-27.8-27.8v39.6c0,0.1,0,0.2,0,0.3c1.2,18,14.2,32.7,31.4,36.5
				C218.4,241.8,217.2,221.8,205.1,208.1z"/>
			<path class="st1" d="M173,220.2c0-0.1,0-0.2,0-0.3V180l-28,28c-0.1,0.1-0.1,0.2-0.2,0.2c-12,13.7-13.1,33.6-3.4,48.5
				C158.6,253.1,171.8,238.3,173,220.2z"/>
			<path class="st1" d="M177.3,130.2c0,0.1,0,0.2,0,0.3v39.2l27.8-27.8c0.1-0.1,0.2-0.2,0.2-0.3c11.9-13.6,13.1-33.2,3.6-48
				C191.6,97.3,178.5,112.1,177.3,130.2z"/>
			<path class="st1" d="M144.9,141.9L173,170v-39.4c0-0.1,0-0.2,0-0.3c-1.2-18.1-14.5-33-31.8-36.6
				C131.6,108.5,132.9,128.3,144.9,141.9z"/>
			<path class="st1" d="M130.8,130.8c-6.2-11.7-7.4-25.2-3.6-37.7c-17.6,2.5-31.6,16.4-34.1,34C105.5,123.4,119.1,124.6,130.8,130.8
				z"/>
			<path class="st1" d="M237.6,175.2c12.6,3.9,23,12.6,29.2,24.1c10.8-14.3,10.9-34.1,0.2-48.4C260.8,162.4,250.3,171.3,237.6,175.2
				z"/>
			<path class="st1" d="M175.1,112.7c3.9-12.7,12.8-23.2,24.3-29.3c-14.3-11-34.4-11-48.8-0.1C162.3,89.4,171.2,99.9,175.1,112.7z"
				/>
			<path class="st1" d="M175,23.7C91.4,23.7,23.7,91.4,23.7,175c0,83.5,67.7,151.3,151.3,151.3c83.6,0,151.3-67.7,151.3-151.3
				C326.3,91.4,258.6,23.7,175,23.7z M277.8,210.3c-1.8,1.8-3.7,3.4-5.6,4.9c0.4,2.5,0.6,5.1,0.6,7.7c0,27.6-22.4,50-50,50
				c-2.6,0-5.2-0.2-7.8-0.6c-1.4,1.9-3,3.8-4.8,5.5c-19.5,19.5-51.1,19.5-70.6,0c-1.7-1.7-3.3-3.6-4.7-5.5c-2.5,0.4-5,0.6-7.5,0.6
				c-27.6,0-50-22.4-50-50c0-2.6,0.2-5.1,0.6-7.6c-2-1.5-4-3.2-5.8-5c-19.5-19.5-19.5-51.1,0-70.6c1.8-1.8,3.8-3.5,5.8-5
				c-0.3-2.3-0.5-4.8-0.5-7.2c0-27.6,22.4-50,49.9-50c2.5,0,4.9,0.2,7.3,0.5c1.5-2,3.2-4,5-5.9c19.5-19.5,51.1-19.5,70.6,0
				c1.9,1.9,3.5,3.8,5,5.9c2.4-0.4,4.9-0.6,7.5-0.6c27.6,0,50,22.4,50,50c0,2.5-0.2,5-0.6,7.4c1.9,1.4,3.8,3,5.6,4.8
				C297.3,159.2,297.3,190.8,277.8,210.3z"/>
			<path class="st1" d="M219.2,219.2c6.2,11.8,7.4,25.6,3.5,38.1c18-2.4,32.2-16.6,34.5-34.6C244.7,226.6,231,225.4,219.2,219.2z"/>
			<path class="st1" d="M112.6,175.2c-12.8-4-23.3-12.9-29.4-24.5c-10.9,14.4-10.9,34.4,0.1,48.7C89.5,187.9,100,179.1,112.6,175.2z
				"/>
			<path class="st1" d="M130.8,219.2c-11.7,6.2-25.3,7.3-37.8,3.6c2.4,17.9,16.4,32,34.3,34.5C123.4,244.8,124.6,231,130.8,219.2z"
				/>
			<path class="st1" d="M175.1,237.8c-3.9,12.6-12.7,23.1-24.2,29.2c14.2,10.7,33.9,10.6,48.2-0.1
				C187.7,260.8,179,250.3,175.1,237.8z"/>
		</g>
	</g>
</g>
</svg>
