<?xml version="1.0" encoding="utf-8"?>
<!-- Generator: Adobe Illustrator 20.1.0, SVG Export Plug-In . SVG Version: 6.00 Build 0)  -->
<svg version="1.1" id="Capa_1" xmlns="http://www.w3.org/2000/svg" xmlns:xlink="http://www.w3.org/1999/xlink" x="0px" y="0px"
	 viewBox="0 0 121 121" style="enable-background:new 0 0 121 121;" xml:space="preserve">
<style type="text/css">
	.st0{clip-path:url(#SVGID_2_);fill:#8D8D8D;}
</style>
<g>
	<g>
		<defs>
			<rect id="SVGID_1_" x="10.5" y="10.5" width="100" height="100"/>
		</defs>
		<clipPath id="SVGID_2_">
			<use xlink:href="#SVGID_1_"  style="overflow:visible;"/>
		</clipPath>
		<path class="st0" d="M90.5,10.5h-60c-11,0-20,9-20,20v60c0,11,9,20,20,20h60c11,0,20-9,20-20v-60C110.5,19.5,101.5,10.5,90.5,10.5
			L90.5,10.5z M42.5,80.3v14.2h-16v-46h16V80.3z M34.5,43.5c-4.8,0-8-3.4-8-7.6c0-4.2,3.2-7.4,8-7.4s7.8,3.2,8,7.4
			C42.5,40.1,39.5,43.5,34.5,43.5L34.5,43.5z M94.5,94.5h-16c0,0,0-24.2,0-26c0-1.8-0.2-8-7-8c-6,0-7,5.8-7,8s0,26,0,26h-16v-46h16
			v6.2c0,0,3.2-6.2,12.6-6.2c9.6,0,17.4,6.6,17.4,20L94.5,94.5z"/>
	</g>
</g>
</svg>
